<svg width="57" height="57" viewBox="0 0 57 57" fill="none" xmlns="http://www.w3.org/2000/svg">
<path d="M13.2832 0.712377V56.2381C13.2832 56.6319 13.6022 56.9505 13.9956 56.9505H42.9957C43.3891 56.9505 43.7081 56.6319 43.7081 56.2381V0.712377C43.7081 0.318622 43.3891 0 42.9957 0H13.9956C13.6022 0 13.2832 0.318622 13.2832 0.712377ZM14.708 1.42475H42.2834V55.5258H14.708V1.42475Z" fill="#08A0AB"/>
<path d="M54.5432 14.1543C54.3456 13.8128 53.9095 13.6959 53.57 13.8935L46.9892 17.6933C46.6483 17.8901 46.5318 18.3256 46.7283 18.6665C46.8605 18.8954 47.0998 19.0227 47.3461 19.0227C47.4668 19.0227 47.5895 18.9921 47.7015 18.9274L54.2823 15.1276C54.6232 14.9307 54.7397 14.4952 54.5432 14.1543Z" fill="#08A0AB"/>
<path d="M56.2777 27.6753H48.6792C48.2858 27.6753 47.9668 27.9939 47.9668 28.3877C47.9668 28.7814 48.2858 29.1 48.6792 29.1H56.2777C56.6712 29.1 56.9901 28.7814 56.9901 28.3877C56.9901 27.9939 56.6712 27.6753 56.2777 27.6753Z" fill="#08A0AB"/>
<path d="M46.8376 38.1381C46.6411 38.479 46.7579 38.9145 47.0985 39.1114L53.6793 42.9105C53.7916 42.9752 53.9141 43.0058 54.0348 43.0058C54.281 43.0058 54.5203 42.8778 54.6525 42.6496C54.849 42.3087 54.7322 41.8732 54.3916 41.6763L47.8108 37.8772C47.4689 37.6803 47.0341 37.7979 46.8376 38.1381Z" fill="#08A0AB"/>
<path d="M2.44704 42.8368C2.57922 43.0657 2.81853 43.193 3.0648 43.193C3.1855 43.193 3.30829 43.1624 3.4203 43.0977L10.0011 39.2979C10.342 39.101 10.4585 38.6655 10.262 38.3246C10.0651 37.9837 9.62925 37.8661 9.28871 38.0637L2.70792 41.8635C2.36704 42.0604 2.25051 42.4959 2.44704 42.8368Z" fill="#08A0AB"/>
<path d="M0.712377 29.3164H8.31095C8.70436 29.3164 9.02333 28.9977 9.02333 28.604C9.02333 28.2102 8.70436 27.8916 8.31095 27.8916H0.712377C0.31897 27.8916 0 28.2102 0 28.604C0 28.9977 0.31897 29.3164 0.712377 29.3164Z" fill="#08A0AB"/>
<path d="M10.1525 18.8537C10.349 18.5128 10.2322 18.0773 9.89164 17.8804L3.31085 14.0813C2.96857 13.8844 2.53447 14.002 2.33759 14.3422C2.14106 14.6831 2.25793 15.1186 2.59847 15.3155L9.17926 19.1146C9.29161 19.1793 9.41405 19.2099 9.53475 19.2099C9.78102 19.2099 10.0203 19.0819 10.1525 18.8537Z" fill="#08A0AB"/>
<path d="M28.9994 7.77904C28.7316 7.5105 28.2564 7.5105 27.9886 7.77904L18.4219 17.4073C18.2191 17.6118 18.159 17.9179 18.2696 18.1829C18.3802 18.4487 18.6397 18.6219 18.9273 18.6219H23.9199V25.018C23.9199 25.4118 24.2389 25.7304 24.6323 25.7304H32.3881C32.7815 25.7304 33.1004 25.4118 33.1004 25.018V18.6219H38.0606C38.3483 18.6219 38.6078 18.4487 38.7184 18.1829C38.829 17.9179 38.7688 17.6118 38.5661 17.4073L28.9994 7.77904ZM32.3881 17.1972C31.9947 17.1972 31.6757 17.5158 31.6757 17.9095V24.3056H25.3446V17.9095C25.3446 17.5158 25.0257 17.1972 24.6323 17.1972H20.6394L28.494 9.29214L36.3486 17.1972H32.3881Z" fill="#08A0AB"/>
<path d="M38.0606 38.1541H33.0681V31.7573C33.0681 31.3635 32.7491 31.0449 32.3557 31.0449H24.5999C24.2065 31.0449 23.8875 31.3635 23.8875 31.7573V38.1541H18.9273C18.6397 38.1541 18.3802 38.3273 18.2696 38.5931C18.159 38.8581 18.2191 39.1642 18.4219 39.3687L27.9886 48.997C28.1225 49.1312 28.3044 49.2071 28.494 49.2071C28.6836 49.2071 28.8655 49.1312 28.9994 48.997L38.5661 39.3687C38.7688 39.1642 38.829 38.8581 38.7184 38.5931C38.6078 38.3273 38.3483 38.1541 38.0606 38.1541ZM28.494 47.4839L20.6394 39.5788H24.5999C24.9933 39.5788 25.3123 39.2602 25.3123 38.8665V32.4697H31.6433V38.8665C31.6433 39.2602 31.9623 39.5788 32.3557 39.5788H36.3486L28.494 47.4839Z" fill="#08A0AB"/>
</svg>
