<svg width="432" height="329" viewBox="0 0 432 329" fill="none" xmlns="http://www.w3.org/2000/svg">
<path d="M31.5509 12.6077L30.7143 10.2814H27.5113L26.692 12.6077H25.248L28.3823 4.19627H29.872L33.0062 12.6077H31.5509ZM30.3533 9.10101L29.5683 6.82054C29.511 6.66774 29.4308 6.42709 29.3277 6.09858C29.2284 5.77007 29.1596 5.52941 29.1214 5.37662C29.0183 5.84647 28.8674 6.36024 28.6688 6.91794L27.9124 9.10101H30.3533ZM39.6586 6.76324C39.6586 7.63799 39.3721 8.30838 38.7991 8.77441C38.2261 9.24044 37.4106 9.47345 36.3525 9.47345H35.4815V12.6077H34.1121V4.23065H36.5244C37.571 4.23065 38.3541 4.44457 38.8736 4.87239C39.3969 5.30022 39.6586 5.9305 39.6586 6.76324ZM35.4815 8.32175H36.2092C36.9121 8.32175 37.4278 8.19952 37.7563 7.95504C38.0848 7.71057 38.249 7.32858 38.249 6.80908C38.249 6.32777 38.102 5.9687 37.8078 5.73187C37.5137 5.49504 37.0553 5.37662 36.4327 5.37662H35.4815V8.32175ZM41.3317 12.6077V4.23065H42.7011V12.6077H41.3317Z" fill="white"/>
<rect x="1.80273" y="1.25391" width="14.4274" height="14.4274" rx="1.15898" stroke="#707F8D" stroke-width="1.15898"/>
<rect x="5.00977" y="7.66675" width="8.01524" height="1.60305" fill="#707F8D"/>
<rect x="9.81836" y="4.46045" width="8.01524" height="1.60305" transform="rotate(90 9.81836 4.46045)" fill="#707F8D"/>
<path d="M369.543 6.80003C369.543 8.16373 369.201 9.22375 368.518 9.98009C367.838 10.7364 366.873 11.1146 365.624 11.1146C364.36 11.1146 363.387 10.7402 362.707 9.99155C362.031 9.23903 361.693 8.17137 361.693 6.78857C361.693 5.40577 362.033 4.34385 362.713 3.60279C363.397 2.86173 364.371 2.4912 365.635 2.4912C366.881 2.4912 367.843 2.86746 368.523 3.61998C369.203 4.3725 369.543 5.43251 369.543 6.80003ZM363.149 6.80003C363.149 7.8314 363.357 8.61448 363.773 9.14926C364.19 9.68023 364.807 9.94571 365.624 9.94571C366.438 9.94571 367.051 9.68214 367.463 9.15499C367.88 8.62785 368.088 7.84286 368.088 6.80003C368.088 5.77248 367.882 4.99323 367.469 4.46226C367.06 3.9313 366.449 3.66582 365.635 3.66582C364.814 3.66582 364.193 3.9313 363.773 4.46226C363.357 4.99323 363.149 5.77248 363.149 6.80003ZM374.414 11.1146C373.611 11.1146 372.989 10.8262 372.546 10.2494H372.465C372.519 10.7842 372.546 11.1089 372.546 11.2235V13.8191H371.199V4.66281H372.288C372.318 4.78122 372.381 5.06389 372.477 5.51082H372.546C372.966 4.86908 373.596 4.54821 374.436 4.54821C375.227 4.54821 375.842 4.8347 376.281 5.40768C376.725 5.98067 376.946 6.78475 376.946 7.81994C376.946 8.85513 376.721 9.66304 376.27 10.2437C375.823 10.8243 375.204 11.1146 374.414 11.1146ZM374.087 5.64834C373.552 5.64834 373.161 5.80495 372.912 6.11818C372.668 6.43141 372.546 6.93182 372.546 7.6194V7.81994C372.546 8.59156 372.668 9.15117 372.912 9.49878C373.157 9.84257 373.556 10.0145 374.11 10.0145C374.576 10.0145 374.935 9.82347 375.187 9.44149C375.439 9.0595 375.565 8.51516 375.565 7.80848C375.565 7.09798 375.439 6.56129 375.187 6.1984C374.939 5.83169 374.572 5.64834 374.087 5.64834ZM381.278 11.1146C380.292 11.1146 379.521 10.8281 378.963 10.2551C378.409 9.67832 378.132 8.88569 378.132 7.87724C378.132 6.84205 378.39 6.02842 378.906 5.43633C379.421 4.84425 380.13 4.54821 381.031 4.54821C381.868 4.54821 382.529 4.80223 383.014 5.31028C383.499 5.81832 383.742 6.51736 383.742 7.4074V8.13508H379.519C379.538 8.75009 379.704 9.22375 380.017 9.55608C380.331 9.88459 380.772 10.0488 381.341 10.0488C381.715 10.0488 382.063 10.0145 382.384 9.94571C382.708 9.87313 383.056 9.75472 383.427 9.59046V10.6849C383.098 10.8415 382.766 10.9523 382.43 11.0172C382.093 11.0821 381.71 11.1146 381.278 11.1146ZM381.031 5.56812C380.604 5.56812 380.26 5.70373 380 5.97494C379.744 6.24615 379.591 6.64151 379.542 7.16101H382.418C382.41 6.63769 382.284 6.24233 382.04 5.97494C381.795 5.70373 381.459 5.56812 381.031 5.56812ZM388.486 4.54821C388.757 4.54821 388.981 4.56731 389.156 4.60551L389.025 5.86034C388.834 5.8145 388.635 5.79158 388.429 5.79158C387.89 5.79158 387.453 5.9673 387.117 6.31873C386.784 6.67016 386.618 7.12663 386.618 7.68816V11H385.272V4.66281H386.326L386.503 5.78012H386.572C386.782 5.40195 387.055 5.10209 387.392 4.88054C387.732 4.65899 388.096 4.54821 388.486 4.54821ZM394.302 11L394.032 10.1176H393.987C393.681 10.5034 393.374 10.767 393.064 10.9083C392.755 11.0458 392.357 11.1146 391.872 11.1146C391.25 11.1146 390.763 10.9465 390.411 10.6104C390.064 10.2742 389.89 9.79865 389.89 9.18364C389.89 8.53044 390.132 8.03768 390.617 7.70535C391.103 7.37302 391.842 7.19157 392.835 7.16101L393.929 7.12663V6.78857C393.929 6.38367 393.834 6.08189 393.643 5.88326C393.456 5.68081 393.163 5.57958 392.766 5.57958C392.441 5.57958 392.13 5.62733 391.832 5.72283C391.534 5.81832 391.248 5.93101 390.973 6.06089L390.537 5.09827C390.881 4.91874 391.257 4.78313 391.666 4.69146C392.075 4.59596 392.461 4.54821 392.823 4.54821C393.629 4.54821 394.237 4.72392 394.646 5.07535C395.058 5.42678 395.264 5.97876 395.264 6.73128V11H394.302ZM392.296 10.0832C392.785 10.0832 393.177 9.94762 393.471 9.67641C393.769 9.40138 393.918 9.01748 393.918 8.52471V7.97465L393.104 8.00903C392.47 8.03195 392.008 8.1389 391.718 8.3299C391.431 8.51707 391.288 8.80547 391.288 9.1951C391.288 9.47777 391.372 9.69742 391.54 9.85403C391.708 10.0068 391.96 10.0832 392.296 10.0832ZM399.504 10.0259C399.833 10.0259 400.161 9.97436 400.49 9.87122V10.8854C400.341 10.9503 400.148 11.0038 399.911 11.0458C399.678 11.0917 399.436 11.1146 399.184 11.1146C397.908 11.1146 397.27 10.4423 397.27 9.0977V5.68272H396.405V5.08681L397.333 4.59405L397.791 3.25327H398.622V4.66281H400.427V5.68272H398.622V9.07478C398.622 9.39947 398.702 9.64012 398.863 9.79674C399.027 9.94953 399.241 10.0259 399.504 10.0259ZM403.109 11H401.762V4.66281H403.109V11ZM401.682 2.98397C401.682 2.74331 401.747 2.55805 401.877 2.42817C402.01 2.2983 402.199 2.23336 402.444 2.23336C402.681 2.23336 402.864 2.2983 402.994 2.42817C403.128 2.55805 403.194 2.74331 403.194 2.98397C403.194 3.21316 403.128 3.3946 402.994 3.5283C402.864 3.65818 402.681 3.72311 402.444 3.72311C402.199 3.72311 402.01 3.65818 401.877 3.5283C401.747 3.3946 401.682 3.21316 401.682 2.98397ZM410.66 7.81994C410.66 8.85513 410.395 9.66304 409.864 10.2437C409.333 10.8243 408.594 11.1146 407.647 11.1146C407.054 11.1146 406.531 10.9809 406.077 10.7135C405.622 10.4461 405.272 10.0622 405.028 9.56181C404.784 9.06141 404.661 8.48078 404.661 7.81994C404.661 6.79239 404.925 5.99022 405.452 5.41341C405.979 4.83661 406.722 4.54821 407.681 4.54821C408.598 4.54821 409.323 4.84425 409.858 5.43633C410.393 6.0246 410.66 6.81913 410.66 7.81994ZM406.048 7.81994C406.048 9.28296 406.588 10.0145 407.669 10.0145C408.739 10.0145 409.274 9.28296 409.274 7.81994C409.274 6.37221 408.735 5.64834 407.658 5.64834C407.093 5.64834 406.682 5.83551 406.426 6.20986C406.174 6.58421 406.048 7.1209 406.048 7.81994ZM417.788 11H416.436V7.10371C416.436 6.61477 416.337 6.24997 416.138 6.00932C415.943 5.76866 415.632 5.64834 415.204 5.64834C414.635 5.64834 414.219 5.81641 413.955 6.15256C413.692 6.48871 413.56 7.05215 413.56 7.84286V11H412.213V4.66281H413.268L413.457 5.49363H413.525C413.716 5.19186 413.988 4.95885 414.339 4.79459C414.69 4.63034 415.08 4.54821 415.508 4.54821C417.028 4.54821 417.788 5.32174 417.788 6.86879V11ZM423.627 11L423.358 10.1176H423.312C423.006 10.5034 422.699 10.767 422.389 10.9083C422.08 11.0458 421.683 11.1146 421.198 11.1146C420.575 11.1146 420.088 10.9465 419.737 10.6104C419.389 10.2742 419.215 9.79865 419.215 9.18364C419.215 8.53044 419.458 8.03768 419.943 7.70535C420.428 7.37302 421.167 7.19157 422.16 7.16101L423.255 7.12663V6.78857C423.255 6.38367 423.159 6.08189 422.968 5.88326C422.781 5.68081 422.489 5.57958 422.091 5.57958C421.767 5.57958 421.455 5.62733 421.157 5.72283C420.86 5.81832 420.573 5.93101 420.298 6.06089L419.863 5.09827C420.206 4.91874 420.583 4.78313 420.991 4.69146C421.4 4.59596 421.786 4.54821 422.149 4.54821C422.955 4.54821 423.562 4.72392 423.971 5.07535C424.383 5.42678 424.59 5.97876 424.59 6.73128V11H423.627ZM421.622 10.0832C422.111 10.0832 422.502 9.94762 422.796 9.67641C423.094 9.40138 423.243 9.01748 423.243 8.52471V7.97465L422.43 8.00903C421.795 8.03195 421.333 8.1389 421.043 8.3299C420.756 8.51707 420.613 8.80547 420.613 9.1951C420.613 9.47777 420.697 9.69742 420.865 9.85403C421.033 10.0068 421.285 10.0832 421.622 10.0832ZM427.816 11H426.469V2.08438H427.816V11Z" fill="#68D28C"/>
<path d="M7.2066 113.978C7.2066 116.891 6.07931 118.348 3.82473 118.348C3.43086 118.348 3.11847 118.314 2.88758 118.246V117.518C3.15922 117.606 3.46821 117.65 3.81454 117.65C4.62945 117.65 5.24403 117.399 5.65827 116.896C6.07591 116.39 6.30341 115.616 6.34076 114.574H6.27964C6.09289 114.856 5.84502 115.071 5.53604 115.221C5.22705 115.367 4.87902 115.44 4.49193 115.44C3.83322 115.44 3.31032 115.243 2.92323 114.849C2.53615 114.455 2.34261 113.905 2.34261 113.199C2.34261 112.425 2.55822 111.813 2.98945 111.365C3.42406 110.917 3.9945 110.693 4.70076 110.693C5.20668 110.693 5.64809 110.824 6.02498 111.085C6.40527 111.343 6.69728 111.722 6.90101 112.221C7.10474 112.717 7.2066 113.302 7.2066 113.978ZM4.70076 111.416C4.21521 111.416 3.84001 111.572 3.57516 111.885C3.31032 112.197 3.17789 112.632 3.17789 113.189C3.17789 113.678 3.30013 114.063 3.5446 114.345C3.78908 114.623 4.16088 114.762 4.66001 114.762C4.969 114.762 5.25252 114.7 5.51057 114.574C5.77202 114.448 5.97745 114.277 6.12685 114.059C6.27625 113.842 6.35095 113.615 6.35095 113.377C6.35095 113.02 6.28134 112.691 6.14213 112.389C6.00291 112.087 5.80767 111.849 5.55641 111.676C5.30854 111.503 5.02332 111.416 4.70076 111.416ZM13.2166 114.513C13.2166 115.8 13.0128 116.761 12.6054 117.396C12.2013 118.03 11.5816 118.348 10.7464 118.348C9.94504 118.348 9.33555 118.024 8.91791 117.375C8.50027 116.723 8.29145 115.769 8.29145 114.513C8.29145 113.216 8.49348 112.253 8.89754 111.625C9.3016 110.997 9.91787 110.683 10.7464 110.683C11.5545 110.683 12.1674 111.01 12.585 111.666C13.006 112.321 13.2166 113.27 13.2166 114.513ZM9.1471 114.513C9.1471 115.596 9.27443 116.385 9.52909 116.881C9.78375 117.373 10.1895 117.62 10.7464 117.62C11.31 117.62 11.7175 117.37 11.9687 116.871C12.2234 116.368 12.3507 115.582 12.3507 114.513C12.3507 113.443 12.2234 112.661 11.9687 112.165C11.7175 111.666 11.31 111.416 10.7464 111.416C10.1895 111.416 9.78375 111.662 9.52909 112.155C9.27443 112.644 9.1471 113.43 9.1471 114.513ZM21.1466 117.497H21.1008C20.7103 118.064 20.1263 118.348 19.3487 118.348C18.6187 118.348 18.05 118.098 17.6425 117.599C17.2385 117.1 17.0364 116.39 17.0364 115.47C17.0364 114.55 17.2402 113.835 17.6476 113.326C18.0551 112.817 18.6221 112.562 19.3487 112.562C20.1059 112.562 20.6866 112.837 21.0906 113.387H21.1568L21.1212 112.985L21.1008 112.593V110.321H21.9463V118.246H21.2587L21.1466 117.497ZM19.4557 117.64C20.0329 117.64 20.4506 117.484 20.7086 117.171C20.9701 116.856 21.1008 116.348 21.1008 115.649V115.47C21.1008 114.679 20.9684 114.116 20.7035 113.779C20.4421 113.44 20.0227 113.27 19.4455 113.27C18.9498 113.27 18.5695 113.464 18.3046 113.851C18.0432 114.234 17.9125 114.778 17.9125 115.48C17.9125 116.194 18.0432 116.732 18.3046 117.095C18.5661 117.458 18.9498 117.64 19.4557 117.64ZM27.177 118.246L27.0089 117.452H26.9681C26.6897 117.801 26.4113 118.039 26.1329 118.165C25.8578 118.287 25.5132 118.348 25.099 118.348C24.5455 118.348 24.1109 118.205 23.7951 117.92C23.4827 117.635 23.3265 117.229 23.3265 116.703C23.3265 115.576 24.228 114.985 26.031 114.93L26.9783 114.9V114.554C26.9783 114.116 26.8833 113.793 26.6931 113.586C26.5064 113.375 26.2059 113.27 25.7916 113.27C25.3264 113.27 24.8002 113.413 24.2127 113.698L23.953 113.051C24.228 112.902 24.5285 112.785 24.8545 112.7C25.1838 112.615 25.5132 112.572 25.8426 112.572C26.5081 112.572 27.0004 112.72 27.3196 113.015C27.6421 113.311 27.8034 113.784 27.8034 114.436V118.246H27.177ZM25.267 117.65C25.7933 117.65 26.2059 117.506 26.5047 117.217C26.8069 116.929 26.958 116.525 26.958 116.005V115.501L26.1125 115.537C25.4402 115.56 24.9546 115.666 24.6558 115.852C24.3604 116.036 24.2127 116.323 24.2127 116.713C24.2127 117.019 24.3044 117.251 24.4878 117.411C24.6745 117.57 24.9343 117.65 25.267 117.65ZM28.6642 112.664H29.5708L30.7931 115.847C31.0614 116.574 31.2277 117.098 31.2923 117.421H31.333C31.3771 117.248 31.4688 116.952 31.608 116.535C31.7506 116.114 32.2124 114.823 32.9934 112.664H33.9L31.5011 119.02C31.2634 119.648 30.985 120.093 30.6658 120.355C30.35 120.62 29.9612 120.752 29.4995 120.752C29.2414 120.752 28.9867 120.723 28.7355 120.665V119.988C28.9222 120.029 29.1311 120.049 29.3619 120.049C29.9426 120.049 30.3568 119.723 30.6047 119.071L30.9154 118.277L28.6642 112.664ZM38.4074 116.723C38.4074 117.243 38.2139 117.643 37.8268 117.925C37.4397 118.207 36.8965 118.348 36.197 118.348C35.4568 118.348 34.8796 118.231 34.4653 117.997V117.212C34.7336 117.348 35.0205 117.455 35.3261 117.533C35.6351 117.611 35.9322 117.65 36.2174 117.65C36.6588 117.65 36.9983 117.581 37.236 117.441C37.4737 117.299 37.5925 117.083 37.5925 116.795C37.5925 116.577 37.4975 116.392 37.3073 116.239C37.1206 116.083 36.7539 115.9 36.2072 115.689C35.6877 115.496 35.3176 115.328 35.0969 115.185C34.8796 115.039 34.7166 114.874 34.6079 114.691C34.5027 114.508 34.45 114.289 34.45 114.034C34.45 113.579 34.6351 113.221 35.0052 112.959C35.3753 112.695 35.8829 112.562 36.5281 112.562C37.1291 112.562 37.7165 112.684 38.2903 112.929L37.9898 113.616C37.4295 113.385 36.9219 113.27 36.4669 113.27C36.0663 113.27 35.7641 113.333 35.5604 113.459C35.3566 113.584 35.2548 113.757 35.2548 113.978C35.2548 114.127 35.2921 114.255 35.3668 114.36C35.4449 114.465 35.5688 114.565 35.7386 114.66C35.9084 114.756 36.2343 114.893 36.7165 115.073C37.3786 115.314 37.8251 115.557 38.056 115.801C38.2903 116.046 38.4074 116.353 38.4074 116.723ZM45.9301 118.246L45.762 117.452H45.7212C45.4428 117.801 45.1644 118.039 44.886 118.165C44.6109 118.287 44.2663 118.348 43.8521 118.348C43.2986 118.348 42.864 118.205 42.5482 117.92C42.2358 117.635 42.0796 117.229 42.0796 116.703C42.0796 115.576 42.9811 114.985 44.7841 114.93L45.7314 114.9V114.554C45.7314 114.116 45.6364 113.793 45.4462 113.586C45.2595 113.375 44.959 113.27 44.5447 113.27C44.0795 113.27 43.5533 113.413 42.9658 113.698L42.7061 113.051C42.9811 112.902 43.2816 112.785 43.6076 112.7C43.9369 112.615 44.2663 112.572 44.5957 112.572C45.2612 112.572 45.7535 112.72 46.0727 113.015C46.3952 113.311 46.5565 113.784 46.5565 114.436V118.246H45.9301ZM44.0201 117.65C44.5464 117.65 44.959 117.506 45.2578 117.217C45.56 116.929 45.7111 116.525 45.7111 116.005V115.501L44.8656 115.537C44.1933 115.56 43.7077 115.666 43.4089 115.852C43.1135 116.036 42.9658 116.323 42.9658 116.713C42.9658 117.019 43.0575 117.251 43.2409 117.411C43.4276 117.57 43.6874 117.65 44.0201 117.65ZM52.8721 112.664V113.199L51.8382 113.321C51.9332 113.44 52.0181 113.596 52.0928 113.79C52.1675 113.98 52.2049 114.195 52.2049 114.436C52.2049 114.983 52.0181 115.419 51.6446 115.745C51.2711 116.071 50.7584 116.234 50.1065 116.234C49.9401 116.234 49.7839 116.221 49.6379 116.194C49.278 116.384 49.098 116.623 49.098 116.912C49.098 117.064 49.1608 117.178 49.2865 117.253C49.4121 117.324 49.6277 117.36 49.9333 117.36H50.9214C51.5258 117.36 51.9893 117.487 52.3118 117.742C52.6378 117.997 52.8008 118.367 52.8008 118.852C52.8008 119.47 52.5529 119.94 52.0572 120.263C51.5614 120.589 50.8382 120.752 49.8875 120.752C49.1575 120.752 48.5938 120.616 48.1965 120.344C47.8027 120.073 47.6057 119.689 47.6057 119.193C47.6057 118.854 47.7144 118.56 47.9317 118.312C48.149 118.064 48.4546 117.896 48.8485 117.808C48.7059 117.744 48.5853 117.643 48.4868 117.508C48.3918 117.372 48.3442 117.214 48.3442 117.034C48.3442 116.83 48.3986 116.652 48.5072 116.499C48.6159 116.346 48.7873 116.199 49.0216 116.056C48.733 115.937 48.497 115.735 48.3137 115.45C48.1337 115.165 48.0437 114.839 48.0437 114.472C48.0437 113.861 48.2271 113.391 48.5938 113.061C48.9605 112.728 49.48 112.562 50.1523 112.562C50.4443 112.562 50.7075 112.596 50.9418 112.664H52.8721ZM48.4206 119.183C48.4206 119.485 48.548 119.715 48.8026 119.871C49.0573 120.027 49.4223 120.105 49.8977 120.105C50.6073 120.105 51.1319 119.998 51.4715 119.784C51.8144 119.574 51.9859 119.287 51.9859 118.923C51.9859 118.621 51.8925 118.411 51.7057 118.292C51.519 118.176 51.1676 118.119 50.6515 118.119H49.6379C49.2542 118.119 48.9554 118.21 48.7415 118.394C48.5276 118.577 48.4206 118.84 48.4206 119.183ZM48.879 114.452C48.879 114.842 48.9894 115.138 49.2101 115.338C49.4308 115.538 49.7381 115.638 50.1319 115.638C50.957 115.638 51.3696 115.238 51.3696 114.436C51.3696 113.598 50.9519 113.178 50.1167 113.178C49.7194 113.178 49.4138 113.285 49.1999 113.499C48.986 113.713 48.879 114.031 48.879 114.452ZM58.8362 115.45C58.8362 116.36 58.607 117.071 58.1486 117.584C57.6902 118.093 57.057 118.348 56.2489 118.348C55.7497 118.348 55.3066 118.231 54.9195 117.997C54.5325 117.762 54.2337 117.426 54.0231 116.988C53.8126 116.55 53.7074 116.037 53.7074 115.45C53.7074 114.54 53.9349 113.832 54.3898 113.326C54.8448 112.817 55.4764 112.562 56.2845 112.562C57.0655 112.562 57.6851 112.822 58.1435 113.341C58.6053 113.861 58.8362 114.564 58.8362 115.45ZM54.5834 115.45C54.5834 116.163 54.726 116.706 55.0112 117.08C55.2964 117.453 55.7158 117.64 56.2692 117.64C56.8227 117.64 57.242 117.455 57.5272 117.085C57.8159 116.711 57.9602 116.166 57.9602 115.45C57.9602 114.74 57.8159 114.202 57.5272 113.835C57.242 113.465 56.8193 113.28 56.259 113.28C55.7056 113.28 55.2879 113.462 55.0061 113.825C54.7243 114.189 54.5834 114.73 54.5834 115.45Z" fill="#707F8D"/>
<path d="M194.642 118.246H193.817V112.939C193.817 112.497 193.83 112.08 193.857 111.686C193.786 111.757 193.706 111.832 193.618 111.91C193.53 111.988 193.126 112.319 192.406 112.903L191.958 112.322L193.929 110.8H194.642V118.246ZM202.414 114.513C202.414 115.799 202.21 116.76 201.803 117.395C201.399 118.03 200.779 118.348 199.944 118.348C199.142 118.348 198.533 118.023 198.115 117.375C197.698 116.723 197.489 115.769 197.489 114.513C197.489 113.215 197.691 112.253 198.095 111.625C198.499 110.997 199.115 110.682 199.944 110.682C200.752 110.682 201.365 111.01 201.782 111.665C202.203 112.321 202.414 113.27 202.414 114.513ZM198.344 114.513C198.344 115.596 198.472 116.385 198.726 116.881C198.981 117.373 199.387 117.619 199.944 117.619C200.507 117.619 200.915 117.37 201.166 116.871C201.421 116.368 201.548 115.582 201.548 114.513C201.548 113.443 201.421 112.66 201.166 112.165C200.915 111.665 200.507 111.416 199.944 111.416C199.387 111.416 198.981 111.662 198.726 112.154C198.472 112.643 198.344 113.429 198.344 114.513ZM208.383 114.513C208.383 115.799 208.179 116.76 207.772 117.395C207.368 118.03 206.748 118.348 205.913 118.348C205.112 118.348 204.502 118.023 204.084 117.375C203.667 116.723 203.458 115.769 203.458 114.513C203.458 113.215 203.66 112.253 204.064 111.625C204.468 110.997 205.084 110.682 205.913 110.682C206.721 110.682 207.334 111.01 207.751 111.665C208.173 112.321 208.383 113.27 208.383 114.513ZM204.314 114.513C204.314 115.596 204.441 116.385 204.696 116.881C204.95 117.373 205.356 117.619 205.913 117.619C206.476 117.619 206.884 117.37 207.135 116.871C207.39 116.368 207.517 115.582 207.517 114.513C207.517 113.443 207.39 112.66 207.135 112.165C206.884 111.665 206.476 111.416 205.913 111.416C205.356 111.416 204.95 111.662 204.696 112.154C204.441 112.643 204.314 113.429 204.314 114.513ZM210.14 113.02C210.14 113.597 210.203 114.03 210.329 114.319C210.454 114.608 210.658 114.752 210.94 114.752C211.497 114.752 211.775 114.175 211.775 113.02C211.775 111.873 211.497 111.299 210.94 111.299C210.658 111.299 210.454 111.441 210.329 111.727C210.203 112.012 210.14 112.443 210.14 113.02ZM212.473 113.02C212.473 113.794 212.342 114.38 212.081 114.777C211.823 115.171 211.442 115.368 210.94 115.368C210.464 115.368 210.094 115.166 209.829 114.762C209.568 114.358 209.437 113.777 209.437 113.02C209.437 112.249 209.563 111.669 209.814 111.278C210.069 110.888 210.444 110.693 210.94 110.693C211.432 110.693 211.811 110.895 212.076 111.299C212.34 111.703 212.473 112.277 212.473 113.02ZM214.622 116.005C214.622 116.585 214.685 117.02 214.811 117.309C214.936 117.594 215.142 117.737 215.427 117.737C215.712 117.737 215.923 117.596 216.058 117.314C216.194 117.029 216.262 116.592 216.262 116.005C216.262 115.424 216.194 114.995 216.058 114.716C215.923 114.434 215.712 114.294 215.427 114.294C215.142 114.294 214.936 114.434 214.811 114.716C214.685 114.995 214.622 115.424 214.622 116.005ZM216.96 116.005C216.96 116.776 216.829 117.36 216.568 117.757C216.31 118.151 215.929 118.348 215.427 118.348C214.945 118.348 214.573 118.146 214.311 117.742C214.053 117.338 213.924 116.759 213.924 116.005C213.924 115.234 214.05 114.653 214.301 114.263C214.556 113.873 214.931 113.677 215.427 113.677C215.909 113.677 216.284 113.878 216.552 114.278C216.824 114.676 216.96 115.251 216.96 116.005ZM215.646 110.8L211.515 118.246H210.767L214.897 110.8H215.646ZM221.895 112.664V116.285C221.895 116.74 221.999 117.08 222.206 117.304C222.413 117.528 222.737 117.64 223.179 117.64C223.763 117.64 224.189 117.48 224.457 117.161C224.729 116.842 224.865 116.321 224.865 115.597V112.664H225.71V118.246H225.012L224.89 117.497H224.844C224.671 117.772 224.43 117.983 224.121 118.129C223.815 118.275 223.466 118.348 223.072 118.348C222.393 118.348 221.883 118.186 221.544 117.864C221.208 117.541 221.04 117.025 221.04 116.316V112.664H221.895ZM230.105 118.348C229.742 118.348 229.409 118.282 229.107 118.149C228.808 118.013 228.557 117.806 228.353 117.528H228.292C228.333 117.854 228.353 118.163 228.353 118.455V120.752H227.508V112.664H228.196L228.313 113.428H228.353C228.571 113.122 228.824 112.901 229.112 112.766C229.401 112.63 229.732 112.562 230.105 112.562C230.846 112.562 231.416 112.815 231.817 113.321C232.221 113.827 232.423 114.536 232.423 115.45C232.423 116.366 232.217 117.08 231.807 117.589C231.399 118.095 230.832 118.348 230.105 118.348ZM229.983 113.28C229.413 113.28 229 113.438 228.746 113.754C228.491 114.069 228.36 114.572 228.353 115.261V115.45C228.353 116.234 228.484 116.796 228.746 117.136C229.007 117.472 229.426 117.64 230.004 117.64C230.486 117.64 230.863 117.445 231.134 117.054C231.409 116.664 231.547 116.125 231.547 115.44C231.547 114.743 231.409 114.21 231.134 113.84C230.863 113.467 230.479 113.28 229.983 113.28ZM235.708 117.65C235.857 117.65 236.002 117.64 236.141 117.619C236.28 117.596 236.39 117.572 236.472 117.548V118.195C236.38 118.239 236.244 118.275 236.064 118.302C235.888 118.332 235.728 118.348 235.586 118.348C234.506 118.348 233.966 117.779 233.966 116.641V113.321H233.166V112.913L233.966 112.562L234.323 111.37H234.812V112.664H236.431V113.321H234.812V116.606C234.812 116.942 234.891 117.2 235.051 117.38C235.211 117.56 235.43 117.65 235.708 117.65ZM238.438 118.246H237.592V112.664H238.438V118.246ZM237.521 111.151C237.521 110.958 237.569 110.817 237.664 110.728C237.759 110.637 237.878 110.591 238.02 110.591C238.156 110.591 238.273 110.637 238.372 110.728C238.47 110.82 238.519 110.961 238.519 111.151C238.519 111.341 238.47 111.484 238.372 111.579C238.273 111.671 238.156 111.716 238.02 111.716C237.878 111.716 237.759 111.671 237.664 111.579C237.569 111.484 237.521 111.341 237.521 111.151ZM247.346 118.246V114.614C247.346 114.17 247.251 113.837 247.061 113.616C246.871 113.392 246.575 113.28 246.174 113.28C245.648 113.28 245.259 113.431 245.008 113.733C244.757 114.035 244.631 114.501 244.631 115.129V118.246H243.786V114.614C243.786 114.17 243.691 113.837 243.501 113.616C243.31 113.392 243.013 113.28 242.609 113.28C242.08 113.28 241.691 113.44 241.443 113.759C241.198 114.075 241.076 114.594 241.076 115.317V118.246H240.231V112.664H240.918L241.056 113.428H241.097C241.256 113.156 241.48 112.944 241.769 112.791C242.061 112.638 242.387 112.562 242.747 112.562C243.619 112.562 244.19 112.878 244.458 113.509H244.499C244.665 113.217 244.906 112.986 245.222 112.817C245.538 112.647 245.898 112.562 246.302 112.562C246.933 112.562 247.405 112.725 247.718 113.051C248.033 113.373 248.191 113.891 248.191 114.604V118.246H247.346ZM252.296 118.348C251.471 118.348 250.819 118.096 250.341 117.594C249.865 117.091 249.628 116.394 249.628 115.501C249.628 114.601 249.848 113.886 250.29 113.356C250.735 112.827 251.33 112.562 252.077 112.562C252.777 112.562 253.33 112.793 253.738 113.255C254.145 113.713 254.349 114.319 254.349 115.073V115.608H250.504C250.521 116.263 250.685 116.76 250.998 117.1C251.313 117.439 251.757 117.609 252.327 117.609C252.928 117.609 253.522 117.484 254.11 117.232V117.986C253.811 118.115 253.527 118.207 253.259 118.261C252.994 118.319 252.673 118.348 252.296 118.348ZM252.067 113.27C251.619 113.27 251.261 113.416 250.993 113.708C250.728 114 250.572 114.404 250.524 114.92H253.442C253.442 114.387 253.324 113.979 253.086 113.698C252.848 113.412 252.509 113.27 252.067 113.27Z" fill="#707F8D"/>
<path d="M405.316 118.246H404.45V111.569H402.092V110.8H407.674V111.569H405.316V118.246ZM413.49 115.45C413.49 116.36 413.261 117.071 412.803 117.584C412.344 118.093 411.711 118.348 410.903 118.348C410.404 118.348 409.961 118.231 409.574 117.996C409.186 117.762 408.888 117.426 408.677 116.988C408.467 116.55 408.361 116.037 408.361 115.45C408.361 114.54 408.589 113.832 409.044 113.326C409.499 112.817 410.13 112.562 410.939 112.562C411.719 112.562 412.339 112.822 412.798 113.341C413.259 113.861 413.49 114.563 413.49 115.45ZM409.237 115.45C409.237 116.163 409.38 116.706 409.665 117.08C409.95 117.453 410.37 117.64 410.923 117.64C411.477 117.64 411.896 117.455 412.181 117.085C412.47 116.711 412.614 116.166 412.614 115.45C412.614 114.74 412.47 114.202 412.181 113.835C411.896 113.465 411.473 113.28 410.913 113.28C410.36 113.28 409.942 113.462 409.66 113.825C409.378 114.188 409.237 114.73 409.237 115.45ZM418.777 117.497H418.731C418.341 118.064 417.757 118.348 416.979 118.348C416.249 118.348 415.68 118.098 415.273 117.599C414.869 117.1 414.667 116.39 414.667 115.47C414.667 114.55 414.87 113.835 415.278 113.326C415.685 112.817 416.252 112.562 416.979 112.562C417.736 112.562 418.317 112.837 418.721 113.387H418.787L418.751 112.985L418.731 112.592V110.321H419.577V118.246H418.889L418.777 117.497ZM417.086 117.64C417.663 117.64 418.081 117.484 418.339 117.171C418.6 116.855 418.731 116.348 418.731 115.648V115.47C418.731 114.679 418.599 114.115 418.334 113.779C418.072 113.44 417.653 113.27 417.076 113.27C416.58 113.27 416.2 113.463 415.935 113.85C415.673 114.234 415.543 114.777 415.543 115.48C415.543 116.193 415.673 116.731 415.935 117.095C416.196 117.458 416.58 117.64 417.086 117.64ZM424.807 118.246L424.639 117.451H424.598C424.32 117.801 424.042 118.039 423.763 118.164C423.488 118.287 423.143 118.348 422.729 118.348C422.176 118.348 421.741 118.205 421.425 117.92C421.113 117.635 420.957 117.229 420.957 116.703C420.957 115.575 421.858 114.985 423.661 114.93L424.609 114.9V114.553C424.609 114.115 424.514 113.793 424.323 113.586C424.137 113.375 423.836 113.27 423.422 113.27C422.957 113.27 422.43 113.412 421.843 113.698L421.583 113.051C421.858 112.901 422.159 112.784 422.485 112.699C422.814 112.614 423.143 112.572 423.473 112.572C424.138 112.572 424.631 112.72 424.95 113.015C425.272 113.311 425.434 113.784 425.434 114.436V118.246H424.807ZM422.897 117.65C423.424 117.65 423.836 117.506 424.135 117.217C424.437 116.928 424.588 116.524 424.588 116.005V115.501L423.743 115.536C423.07 115.56 422.585 115.665 422.286 115.852C421.991 116.035 421.843 116.322 421.843 116.713C421.843 117.018 421.935 117.251 422.118 117.411C422.305 117.57 422.565 117.65 422.897 117.65ZM426.294 112.664H427.201L428.423 115.847C428.692 116.574 428.858 117.098 428.923 117.421H428.963C429.007 117.248 429.099 116.952 429.238 116.535C429.381 116.114 429.843 114.823 430.624 112.664H431.53L429.131 119.02C428.894 119.648 428.615 120.093 428.296 120.354C427.98 120.619 427.592 120.752 427.13 120.752C426.872 120.752 426.617 120.723 426.366 120.665V119.988C426.553 120.028 426.761 120.049 426.992 120.049C427.573 120.049 427.987 119.723 428.235 119.071L428.546 118.276L426.294 112.664Z" fill="#707F8D"/>
<path d="M83 115H175" stroke="#707F8D" stroke-width="0.651927"/>
<path d="M272 115H356" stroke="#707F8D" stroke-width="0.651927"/>
<rect x="1.80273" y="42.7327" width="5.41029" height="41.4789" fill="#68D28C"/>
<rect x="174.932" y="42.7327" width="5.41029" height="41.4789" fill="#68D28C"/>
<rect x="88.3672" y="42.7327" width="5.41029" height="41.4789" fill="#68D28C"/>
<rect x="261.498" y="42.7327" width="5.41029" height="41.4789" fill="#68D28C"/>
<rect x="402.164" y="42.7327" width="5.41029" height="41.4789" fill="#68D28C"/>
<rect x="45.0859" y="42.7327" width="5.41029" height="41.4789" fill="#68D28C"/>
<rect x="218.215" y="42.7327" width="5.41029" height="41.4789" fill="#68D28C"/>
<rect x="358.883" y="42.7327" width="5.41029" height="41.4789" fill="#68D28C"/>
<rect x="131.65" y="42.7327" width="5.41029" height="41.4789" fill="#68D28C"/>
<rect x="304.779" y="42.7327" width="5.41029" height="41.4789" fill="#68D28C"/>
<rect x="23.4453" y="42.7327" width="5.41029" height="41.4789" fill="#68D28C"/>
<rect x="196.572" y="42.7327" width="5.41029" height="41.4789" fill="#68D28C"/>
<rect x="110.01" y="42.7327" width="5.41029" height="41.4789" fill="#68D28C"/>
<rect x="283.139" y="42.7327" width="5.41029" height="41.4789" fill="#68D28C"/>
<rect x="423.805" y="42.7327" width="5.41029" height="41.4789" fill="#68D28C"/>
<rect x="66.7266" y="42.7327" width="5.41029" height="41.4789" fill="#68D28C"/>
<rect x="239.857" y="42.7327" width="5.41029" height="41.4789" fill="#68D28C"/>
<rect x="380.523" y="42.7327" width="5.41029" height="41.4789" fill="#68D28C"/>
<rect x="153.291" y="42.7327" width="5.41029" height="41.4789" fill="#68D28C"/>
<rect x="326.42" y="42.7327" width="5.41029" height="41.4789" fill="#68D28C"/>
<rect x="12.623" y="42.7327" width="5.41029" height="41.4789" fill="#68D28C"/>
<rect x="185.752" y="42.7327" width="5.41029" height="41.4789" fill="#68D28C"/>
<rect x="99.1875" y="42.7327" width="5.41029" height="41.4789" fill="#68D28C"/>
<rect x="272.316" y="42.7327" width="5.41029" height="41.4789" fill="#68D28C"/>
<rect x="412.984" y="42.7327" width="5.41029" height="41.4789" fill="#68D28C"/>
<rect x="55.9062" y="42.7327" width="5.41029" height="41.4789" fill="#68D28C"/>
<rect x="229.035" y="42.7327" width="5.41029" height="41.4789" fill="#68D28C"/>
<rect x="369.703" y="42.7327" width="5.41029" height="41.4789" fill="#68D28C"/>
<rect x="142.471" y="42.7327" width="5.41029" height="41.4789" fill="#68D28C"/>
<rect x="315.6" y="42.7327" width="5.41029" height="41.4789" fill="#68D28C"/>
<rect x="34.2656" y="42.7327" width="5.41029" height="41.4789" fill="#68D28C"/>
<rect x="207.395" y="42.7327" width="5.41029" height="41.4789" fill="#68D28C"/>
<rect x="348.061" y="42.7327" width="5.41029" height="41.4789" fill="#68D28C"/>
<rect x="120.83" y="42.7327" width="5.41029" height="41.4789" fill="#68D28C"/>
<rect x="293.959" y="42.7327" width="5.41029" height="41.4789" fill="#68D28C"/>
<rect x="77.5469" y="42.7327" width="5.41029" height="41.4789" fill="#68D28C"/>
<rect x="250.678" y="42.7327" width="5.41029" height="41.4789" fill="#68D28C"/>
<rect x="391.344" y="42.7327" width="5.41029" height="41.4789" fill="#68D28C"/>
<rect x="164.111" y="42.7327" width="5.41029" height="41.4789" fill="#68D28C"/>
<rect x="337.24" y="42.7327" width="5.41029" height="41.4789" fill="#68D28C"/>
<path d="M0 158H432" stroke="#324558" stroke-width="0.651927"/>
<path d="M34.0834 206H32.5937L31.1727 201.004C31.1116 200.786 31.0352 200.473 30.9435 200.064C30.8518 199.651 30.7964 199.365 30.7773 199.204C30.7391 199.449 30.6761 199.766 30.5882 200.156C30.5042 200.545 30.4335 200.836 30.3762 201.027L28.9896 206H27.4999L26.4169 201.806L25.3168 197.623H26.7149L27.9124 202.505C28.0996 203.288 28.2333 203.979 28.3135 204.579C28.3555 204.254 28.4186 203.891 28.5026 203.49C28.5866 203.089 28.663 202.765 28.7318 202.516L30.0955 197.623H31.4535L32.8515 202.539C32.9852 202.994 33.1266 203.674 33.2755 204.579C33.3328 204.033 33.4704 203.338 33.6881 202.493L34.8799 197.623H36.2665L34.0834 206ZM40.0826 206.115C39.097 206.115 38.3254 205.828 37.7677 205.255C37.2138 204.678 36.9369 203.886 36.9369 202.877C36.9369 201.842 37.1947 201.028 37.7104 200.436C38.2261 199.844 38.9347 199.548 39.8362 199.548C40.6728 199.548 41.3336 199.802 41.8187 200.31C42.3038 200.818 42.5464 201.517 42.5464 202.407V203.135H38.3235C38.3426 203.75 38.5088 204.224 38.822 204.556C39.1352 204.885 39.5764 205.049 40.1456 205.049C40.52 205.049 40.8676 205.014 41.1884 204.946C41.5131 204.873 41.8607 204.755 42.2313 204.59V205.685C41.9028 205.841 41.5704 205.952 41.2343 206.017C40.8981 206.082 40.5142 206.115 40.0826 206.115ZM39.8362 200.568C39.4084 200.568 39.0646 200.704 38.8048 200.975C38.5489 201.246 38.3961 201.642 38.3464 202.161H41.2228C41.2152 201.638 41.0891 201.242 40.8446 200.975C40.6002 200.704 40.264 200.568 39.8362 200.568ZM47.3136 199.548C48.1043 199.548 48.7193 199.835 49.1586 200.408C49.6017 200.981 49.8233 201.785 49.8233 202.82C49.8233 203.859 49.5998 204.669 49.1529 205.249C48.706 205.826 48.0852 206.115 47.2907 206.115C46.4885 206.115 45.8659 205.826 45.4228 205.249H45.3311L45.0847 206H44.0763V197.084H45.4228V199.204C45.4228 199.361 45.4151 199.594 45.3999 199.903C45.3846 200.213 45.3731 200.41 45.3655 200.494H45.4228C45.8506 199.863 46.4809 199.548 47.3136 199.548ZM46.9641 200.648C46.4217 200.648 46.0301 200.809 45.7895 201.13C45.5527 201.447 45.4304 201.98 45.4228 202.728V202.82C45.4228 203.592 45.545 204.151 45.7895 204.499C46.034 204.843 46.4331 205.014 46.987 205.014C47.4645 205.014 47.8255 204.825 48.07 204.447C48.3183 204.069 48.4424 203.523 48.4424 202.808C48.4424 201.368 47.9496 200.648 46.9641 200.648ZM55.6448 204.195C55.6448 204.814 55.4194 205.29 54.9687 205.622C54.5179 205.95 53.8724 206.115 53.032 206.115C52.1878 206.115 51.5098 205.987 50.9979 205.731V204.568C51.7428 204.911 52.4361 205.083 53.0778 205.083C53.9068 205.083 54.3212 204.833 54.3212 204.333C54.3212 204.172 54.2754 204.038 54.1837 203.932C54.092 203.825 53.9411 203.714 53.731 203.599C53.5209 203.485 53.2287 203.355 52.8544 203.21C52.1248 202.927 51.6301 202.644 51.3703 202.362C51.1144 202.079 50.9864 201.712 50.9864 201.261C50.9864 200.719 51.2042 200.299 51.6396 200.001C52.0789 199.699 52.6748 199.548 53.4274 199.548C54.1722 199.548 54.877 199.699 55.5417 200.001L55.1062 201.015C54.4224 200.732 53.8475 200.591 53.3815 200.591C52.671 200.591 52.3158 200.793 52.3158 201.198C52.3158 201.397 52.4074 201.565 52.5908 201.703C52.778 201.84 53.1829 202.029 53.8055 202.27C54.3288 202.472 54.7089 202.658 54.9458 202.826C55.1826 202.994 55.3583 203.189 55.4729 203.41C55.5875 203.628 55.6448 203.89 55.6448 204.195ZM58.4524 206H57.1059V199.663H58.4524V206ZM57.0257 197.984C57.0257 197.743 57.0906 197.558 57.2205 197.428C57.3542 197.298 57.5433 197.233 57.7878 197.233C58.0246 197.233 58.2079 197.298 58.3378 197.428C58.4715 197.558 58.5384 197.743 58.5384 197.984C58.5384 198.213 58.4715 198.395 58.3378 198.528C58.2079 198.658 58.0246 198.723 57.7878 198.723C57.5433 198.723 57.3542 198.658 57.2205 198.528C57.0906 198.395 57.0257 198.213 57.0257 197.984ZM62.7441 205.026C63.0726 205.026 63.4011 204.974 63.7296 204.871V205.885C63.5806 205.95 63.3877 206.004 63.1509 206.046C62.9179 206.092 62.6753 206.115 62.4232 206.115C61.1474 206.115 60.5094 205.442 60.5094 204.098V200.683H59.6442V200.087L60.5725 199.594L61.0308 198.253H61.8617V199.663H63.6666V200.683H61.8617V204.075C61.8617 204.399 61.9419 204.64 62.1023 204.797C62.2666 204.95 62.4805 205.026 62.7441 205.026ZM67.7691 206.115C66.7836 206.115 66.012 205.828 65.4543 205.255C64.9004 204.678 64.6234 203.886 64.6234 202.877C64.6234 201.842 64.8813 201.028 65.397 200.436C65.9127 199.844 66.6212 199.548 67.5227 199.548C68.3593 199.548 69.0201 199.802 69.5053 200.31C69.9904 200.818 70.233 201.517 70.233 202.407V203.135H66.0101C66.0292 203.75 66.1953 204.224 66.5086 204.556C66.8218 204.885 67.263 205.049 67.8322 205.049C68.2065 205.049 68.5541 205.014 68.875 204.946C69.1997 204.873 69.5473 204.755 69.9178 204.59V205.685C69.5893 205.841 69.257 205.952 68.9208 206.017C68.5847 206.082 68.2008 206.115 67.7691 206.115ZM67.5227 200.568C67.0949 200.568 66.7511 200.704 66.4914 200.975C66.2354 201.246 66.0826 201.642 66.033 202.161H68.9094C68.9017 201.638 68.7757 201.242 68.5312 200.975C68.2867 200.704 67.9506 200.568 67.5227 200.568Z" fill="white"/>
<rect x="1.80273" y="193.697" width="14.4274" height="14.4274" rx="1.15898" stroke="#707F8D" stroke-width="1.15898"/>
<rect x="5.00977" y="200.109" width="8.01524" height="1.60305" fill="#707F8D"/>
<rect x="9.81836" y="196.903" width="8.01524" height="1.60305" transform="rotate(90 9.81836 196.903)" fill="#707F8D"/>
<path d="M369.543 197.48C369.543 198.843 369.201 199.903 368.518 200.66C367.838 201.416 366.873 201.794 365.624 201.794C364.36 201.794 363.387 201.42 362.707 200.671C362.031 199.919 361.693 198.851 361.693 197.468C361.693 196.085 362.033 195.024 362.713 194.282C363.397 193.541 364.371 193.171 365.635 193.171C366.881 193.171 367.843 193.547 368.523 194.3C369.203 195.052 369.543 196.112 369.543 197.48ZM363.149 197.48C363.149 198.511 363.357 199.294 363.773 199.829C364.19 200.36 364.807 200.625 365.624 200.625C366.438 200.625 367.051 200.362 367.463 199.835C367.88 199.308 368.088 198.523 368.088 197.48C368.088 196.452 367.882 195.673 367.469 195.142C367.06 194.611 366.449 194.346 365.635 194.346C364.814 194.346 364.193 194.611 363.773 195.142C363.357 195.673 363.149 196.452 363.149 197.48ZM374.414 201.794C373.611 201.794 372.989 201.506 372.546 200.929H372.465C372.519 201.464 372.546 201.789 372.546 201.903V204.499H371.199V195.342H372.288C372.318 195.461 372.381 195.744 372.477 196.191H372.546C372.966 195.549 373.596 195.228 374.436 195.228C375.227 195.228 375.842 195.514 376.281 196.087C376.725 196.66 376.946 197.464 376.946 198.5C376.946 199.535 376.721 200.343 376.27 200.923C375.823 201.504 375.204 201.794 374.414 201.794ZM374.087 196.328C373.552 196.328 373.161 196.485 372.912 196.798C372.668 197.111 372.546 197.612 372.546 198.299V198.5C372.546 199.271 372.668 199.831 372.912 200.178C373.157 200.522 373.556 200.694 374.11 200.694C374.576 200.694 374.935 200.503 375.187 200.121C375.439 199.739 375.565 199.195 375.565 198.488C375.565 197.778 375.439 197.241 375.187 196.878C374.939 196.511 374.572 196.328 374.087 196.328ZM381.278 201.794C380.292 201.794 379.521 201.508 378.963 200.935C378.409 200.358 378.132 199.565 378.132 198.557C378.132 197.522 378.39 196.708 378.906 196.116C379.421 195.524 380.13 195.228 381.031 195.228C381.868 195.228 382.529 195.482 383.014 195.99C383.499 196.498 383.742 197.197 383.742 198.087V198.815H379.519C379.538 199.43 379.704 199.903 380.017 200.236C380.331 200.564 380.772 200.729 381.341 200.729C381.715 200.729 382.063 200.694 382.384 200.625C382.708 200.553 383.056 200.434 383.427 200.27V201.365C383.098 201.521 382.766 201.632 382.43 201.697C382.093 201.762 381.71 201.794 381.278 201.794ZM381.031 196.248C380.604 196.248 380.26 196.383 380 196.655C379.744 196.926 379.591 197.321 379.542 197.841H382.418C382.41 197.317 382.284 196.922 382.04 196.655C381.795 196.383 381.459 196.248 381.031 196.248ZM388.486 195.228C388.757 195.228 388.981 195.247 389.156 195.285L389.025 196.54C388.834 196.494 388.635 196.471 388.429 196.471C387.89 196.471 387.453 196.647 387.117 196.998C386.784 197.35 386.618 197.806 386.618 198.368V201.68H385.272V195.342H386.326L386.503 196.46H386.572C386.782 196.082 387.055 195.782 387.392 195.56C387.732 195.339 388.096 195.228 388.486 195.228ZM394.302 201.68L394.032 200.797H393.987C393.681 201.183 393.374 201.447 393.064 201.588C392.755 201.726 392.357 201.794 391.872 201.794C391.25 201.794 390.763 201.626 390.411 201.29C390.064 200.954 389.89 200.478 389.89 199.863C389.89 199.21 390.132 198.717 390.617 198.385C391.103 198.053 391.842 197.871 392.835 197.841L393.929 197.806V197.468C393.929 197.063 393.834 196.762 393.643 196.563C393.456 196.36 393.163 196.259 392.766 196.259C392.441 196.259 392.13 196.307 391.832 196.403C391.534 196.498 391.248 196.611 390.973 196.741L390.537 195.778C390.881 195.598 391.257 195.463 391.666 195.371C392.075 195.276 392.461 195.228 392.823 195.228C393.629 195.228 394.237 195.404 394.646 195.755C395.058 196.106 395.264 196.658 395.264 197.411V201.68H394.302ZM392.296 200.763C392.785 200.763 393.177 200.627 393.471 200.356C393.769 200.081 393.918 199.697 393.918 199.204V198.654L393.104 198.689C392.47 198.712 392.008 198.819 391.718 199.01C391.431 199.197 391.288 199.485 391.288 199.875C391.288 200.157 391.372 200.377 391.54 200.534C391.708 200.687 391.96 200.763 392.296 200.763ZM399.504 200.706C399.833 200.706 400.161 200.654 400.49 200.551V201.565C400.341 201.63 400.148 201.684 399.911 201.726C399.678 201.771 399.436 201.794 399.184 201.794C397.908 201.794 397.27 201.122 397.27 199.777V196.362H396.405V195.767L397.333 195.274L397.791 193.933H398.622V195.342H400.427V196.362H398.622V199.754C398.622 200.079 398.702 200.32 398.863 200.476C399.027 200.629 399.241 200.706 399.504 200.706ZM403.109 201.68H401.762V195.342H403.109V201.68ZM401.682 193.664C401.682 193.423 401.747 193.238 401.877 193.108C402.01 192.978 402.199 192.913 402.444 192.913C402.681 192.913 402.864 192.978 402.994 193.108C403.128 193.238 403.194 193.423 403.194 193.664C403.194 193.893 403.128 194.074 402.994 194.208C402.864 194.338 402.681 194.403 402.444 194.403C402.199 194.403 402.01 194.338 401.877 194.208C401.747 194.074 401.682 193.893 401.682 193.664ZM410.66 198.5C410.66 199.535 410.395 200.343 409.864 200.923C409.333 201.504 408.594 201.794 407.647 201.794C407.054 201.794 406.531 201.661 406.077 201.393C405.622 201.126 405.272 200.742 405.028 200.241C404.784 199.741 404.661 199.16 404.661 198.5C404.661 197.472 404.925 196.67 405.452 196.093C405.979 195.516 406.722 195.228 407.681 195.228C408.598 195.228 409.323 195.524 409.858 196.116C410.393 196.704 410.66 197.499 410.66 198.5ZM406.048 198.5C406.048 199.963 406.588 200.694 407.669 200.694C408.739 200.694 409.274 199.963 409.274 198.5C409.274 197.052 408.735 196.328 407.658 196.328C407.093 196.328 406.682 196.515 406.426 196.89C406.174 197.264 406.048 197.801 406.048 198.5ZM417.788 201.68H416.436V197.783C416.436 197.294 416.337 196.93 416.138 196.689C415.943 196.448 415.632 196.328 415.204 196.328C414.635 196.328 414.219 196.496 413.955 196.832C413.692 197.168 413.56 197.732 413.56 198.523V201.68H412.213V195.342H413.268L413.457 196.173H413.525C413.716 195.872 413.988 195.639 414.339 195.474C414.69 195.31 415.08 195.228 415.508 195.228C417.028 195.228 417.788 196.001 417.788 197.548V201.68ZM423.627 201.68L423.358 200.797H423.312C423.006 201.183 422.699 201.447 422.389 201.588C422.08 201.726 421.683 201.794 421.198 201.794C420.575 201.794 420.088 201.626 419.737 201.29C419.389 200.954 419.215 200.478 419.215 199.863C419.215 199.21 419.458 198.717 419.943 198.385C420.428 198.053 421.167 197.871 422.16 197.841L423.255 197.806V197.468C423.255 197.063 423.159 196.762 422.968 196.563C422.781 196.36 422.489 196.259 422.091 196.259C421.767 196.259 421.455 196.307 421.157 196.403C420.86 196.498 420.573 196.611 420.298 196.741L419.863 195.778C420.206 195.598 420.583 195.463 420.991 195.371C421.4 195.276 421.786 195.228 422.149 195.228C422.955 195.228 423.562 195.404 423.971 195.755C424.383 196.106 424.59 196.658 424.59 197.411V201.68H423.627ZM421.622 200.763C422.111 200.763 422.502 200.627 422.796 200.356C423.094 200.081 423.243 199.697 423.243 199.204V198.654L422.43 198.689C421.795 198.712 421.333 198.819 421.043 199.01C420.756 199.197 420.613 199.485 420.613 199.875C420.613 200.157 420.697 200.377 420.865 200.534C421.033 200.687 421.285 200.763 421.622 200.763ZM427.816 201.68H426.469V192.764H427.816V201.68Z" fill="#68D28C"/>
<path d="M7.2066 306.421C7.2066 309.334 6.07931 310.791 3.82473 310.791C3.43086 310.791 3.11847 310.757 2.88758 310.689V309.961C3.15922 310.049 3.46821 310.093 3.81454 310.093C4.62945 310.093 5.24403 309.842 5.65827 309.339C6.07591 308.833 6.30341 308.059 6.34076 307.017H6.27964C6.09289 307.299 5.84502 307.514 5.53604 307.664C5.22705 307.81 4.87902 307.883 4.49193 307.883C3.83322 307.883 3.31032 307.686 2.92323 307.292C2.53615 306.898 2.34261 306.348 2.34261 305.642C2.34261 304.867 2.55822 304.256 2.98945 303.808C3.42406 303.36 3.9945 303.136 4.70076 303.136C5.20668 303.136 5.64809 303.266 6.02498 303.528C6.40527 303.786 6.69728 304.165 6.90101 304.664C7.10474 305.159 7.2066 305.745 7.2066 306.421ZM4.70076 303.859C4.21521 303.859 3.84001 304.015 3.57516 304.328C3.31032 304.64 3.17789 305.075 3.17789 305.631C3.17789 306.12 3.30013 306.506 3.5446 306.788C3.78908 307.066 4.16088 307.205 4.66001 307.205C4.969 307.205 5.25252 307.142 5.51057 307.017C5.77202 306.891 5.97745 306.72 6.12685 306.502C6.27625 306.285 6.35095 306.058 6.35095 305.82C6.35095 305.463 6.28134 305.134 6.14213 304.832C6.00291 304.53 5.80767 304.292 5.55641 304.119C5.30854 303.946 5.02332 303.859 4.70076 303.859ZM13.2166 306.956C13.2166 308.243 13.0128 309.203 12.6054 309.838C12.2013 310.473 11.5816 310.791 10.7464 310.791C9.94504 310.791 9.33555 310.467 8.91791 309.818C8.50027 309.166 8.29145 308.212 8.29145 306.956C8.29145 305.659 8.49348 304.696 8.89754 304.068C9.3016 303.44 9.91787 303.126 10.7464 303.126C11.5545 303.126 12.1674 303.453 12.585 304.109C13.006 304.764 13.2166 305.713 13.2166 306.956ZM9.1471 306.956C9.1471 308.039 9.27443 308.828 9.52909 309.324C9.78375 309.816 10.1895 310.063 10.7464 310.063C11.31 310.063 11.7175 309.813 11.9687 309.314C12.2234 308.811 12.3507 308.025 12.3507 306.956C12.3507 305.886 12.2234 305.103 11.9687 304.608C11.7175 304.109 11.31 303.859 10.7464 303.859C10.1895 303.859 9.78375 304.105 9.52909 304.598C9.27443 305.086 9.1471 305.873 9.1471 306.956ZM21.1466 309.94H21.1008C20.7103 310.507 20.1263 310.791 19.3487 310.791C18.6187 310.791 18.05 310.541 17.6425 310.042C17.2385 309.543 17.0364 308.833 17.0364 307.913C17.0364 306.993 17.2402 306.278 17.6476 305.769C18.0551 305.26 18.6221 305.005 19.3487 305.005C20.1059 305.005 20.6866 305.28 21.0906 305.83H21.1568L21.1212 305.428L21.1008 305.036V302.764H21.9463V310.689H21.2587L21.1466 309.94ZM19.4557 310.083C20.0329 310.083 20.4506 309.927 20.7086 309.614C20.9701 309.299 21.1008 308.791 21.1008 308.091V307.913C21.1008 307.122 20.9684 306.558 20.7035 306.222C20.4421 305.883 20.0227 305.713 19.4455 305.713C18.9498 305.713 18.5695 305.906 18.3046 306.294C18.0432 306.677 17.9125 307.221 17.9125 307.923C17.9125 308.636 18.0432 309.175 18.3046 309.538C18.5661 309.901 18.9498 310.083 19.4557 310.083ZM27.177 310.689L27.0089 309.894H26.9681C26.6897 310.244 26.4113 310.482 26.1329 310.607C25.8578 310.73 25.5132 310.791 25.099 310.791C24.5455 310.791 24.1109 310.648 23.7951 310.363C23.4827 310.078 23.3265 309.672 23.3265 309.146C23.3265 308.018 24.228 307.428 26.031 307.373L26.9783 307.343V306.996C26.9783 306.558 26.8833 306.236 26.6931 306.029C26.5064 305.818 26.2059 305.713 25.7916 305.713C25.3264 305.713 24.8002 305.856 24.2127 306.141L23.953 305.494C24.228 305.345 24.5285 305.227 24.8545 305.142C25.1838 305.058 25.5132 305.015 25.8426 305.015C26.5081 305.015 27.0004 305.163 27.3196 305.458C27.6421 305.754 27.8034 306.227 27.8034 306.879V310.689H27.177ZM25.267 310.093C25.7933 310.093 26.2059 309.949 26.5047 309.66C26.8069 309.372 26.958 308.967 26.958 308.448V307.944L26.1125 307.979C25.4402 308.003 24.9546 308.108 24.6558 308.295C24.3604 308.479 24.2127 308.765 24.2127 309.156C24.2127 309.462 24.3044 309.694 24.4878 309.854C24.6745 310.013 24.9343 310.093 25.267 310.093ZM28.6642 305.107H29.5708L30.7931 308.29C31.0614 309.017 31.2277 309.541 31.2923 309.864H31.333C31.3771 309.691 31.4688 309.395 31.608 308.978C31.7506 308.557 32.2124 307.266 32.9934 305.107H33.9L31.5011 311.463C31.2634 312.091 30.985 312.536 30.6658 312.798C30.35 313.062 29.9612 313.195 29.4995 313.195C29.2414 313.195 28.9867 313.166 28.7355 313.108V312.431C28.9222 312.472 29.1311 312.492 29.3619 312.492C29.9426 312.492 30.3568 312.166 30.6047 311.514L30.9154 310.72L28.6642 305.107ZM38.4074 309.166C38.4074 309.686 38.2139 310.086 37.8268 310.368C37.4397 310.65 36.8965 310.791 36.197 310.791C35.4568 310.791 34.8796 310.674 34.4653 310.439V309.655C34.7336 309.791 35.0205 309.898 35.3261 309.976C35.6351 310.054 35.9322 310.093 36.2174 310.093C36.6588 310.093 36.9983 310.023 37.236 309.884C37.4737 309.742 37.5925 309.526 37.5925 309.237C37.5925 309.02 37.4975 308.835 37.3073 308.682C37.1206 308.526 36.7539 308.343 36.2072 308.132C35.6877 307.939 35.3176 307.771 35.0969 307.628C34.8796 307.482 34.7166 307.317 34.6079 307.134C34.5027 306.951 34.45 306.732 34.45 306.477C34.45 306.022 34.6351 305.664 35.0052 305.402C35.3753 305.137 35.8829 305.005 36.5281 305.005C37.1291 305.005 37.7165 305.127 38.2903 305.372L37.9898 306.059C37.4295 305.828 36.9219 305.713 36.4669 305.713C36.0663 305.713 35.7641 305.776 35.5604 305.901C35.3566 306.027 35.2548 306.2 35.2548 306.421C35.2548 306.57 35.2921 306.698 35.3668 306.803C35.4449 306.908 35.5688 307.008 35.7386 307.103C35.9084 307.198 36.2343 307.336 36.7165 307.516C37.3786 307.757 37.8251 308 38.056 308.244C38.2903 308.489 38.4074 308.796 38.4074 309.166ZM45.9301 310.689L45.762 309.894H45.7212C45.4428 310.244 45.1644 310.482 44.886 310.607C44.6109 310.73 44.2663 310.791 43.8521 310.791C43.2986 310.791 42.864 310.648 42.5482 310.363C42.2358 310.078 42.0796 309.672 42.0796 309.146C42.0796 308.018 42.9811 307.428 44.7841 307.373L45.7314 307.343V306.996C45.7314 306.558 45.6364 306.236 45.4462 306.029C45.2595 305.818 44.959 305.713 44.5447 305.713C44.0795 305.713 43.5533 305.856 42.9658 306.141L42.7061 305.494C42.9811 305.345 43.2816 305.227 43.6076 305.142C43.9369 305.058 44.2663 305.015 44.5957 305.015C45.2612 305.015 45.7535 305.163 46.0727 305.458C46.3952 305.754 46.5565 306.227 46.5565 306.879V310.689H45.9301ZM44.0201 310.093C44.5464 310.093 44.959 309.949 45.2578 309.66C45.56 309.372 45.7111 308.967 45.7111 308.448V307.944L44.8656 307.979C44.1933 308.003 43.7077 308.108 43.4089 308.295C43.1135 308.479 42.9658 308.765 42.9658 309.156C42.9658 309.462 43.0575 309.694 43.2409 309.854C43.4276 310.013 43.6874 310.093 44.0201 310.093ZM52.8721 305.107V305.642L51.8382 305.764C51.9332 305.883 52.0181 306.039 52.0928 306.232C52.1675 306.423 52.2049 306.638 52.2049 306.879C52.2049 307.426 52.0181 307.862 51.6446 308.188C51.2711 308.514 50.7584 308.677 50.1065 308.677C49.9401 308.677 49.7839 308.664 49.6379 308.636C49.278 308.827 49.098 309.066 49.098 309.355C49.098 309.507 49.1608 309.621 49.2865 309.696C49.4121 309.767 49.6277 309.803 49.9333 309.803H50.9214C51.5258 309.803 51.9893 309.93 52.3118 310.185C52.6378 310.439 52.8008 310.81 52.8008 311.295C52.8008 311.913 52.5529 312.383 52.0572 312.706C51.5614 313.032 50.8382 313.195 49.8875 313.195C49.1575 313.195 48.5938 313.059 48.1965 312.787C47.8027 312.516 47.6057 312.132 47.6057 311.636C47.6057 311.297 47.7144 311.003 47.9317 310.755C48.149 310.507 48.4546 310.339 48.8485 310.251C48.7059 310.186 48.5853 310.086 48.4868 309.95C48.3918 309.815 48.3442 309.657 48.3442 309.477C48.3442 309.273 48.3986 309.095 48.5072 308.942C48.6159 308.789 48.7873 308.642 49.0216 308.499C48.733 308.38 48.497 308.178 48.3137 307.893C48.1337 307.608 48.0437 307.282 48.0437 306.915C48.0437 306.304 48.2271 305.833 48.5938 305.504C48.9605 305.171 49.48 305.005 50.1523 305.005C50.4443 305.005 50.7075 305.039 50.9418 305.107H52.8721ZM48.4206 311.626C48.4206 311.928 48.548 312.157 48.8026 312.314C49.0573 312.47 49.4223 312.548 49.8977 312.548C50.6073 312.548 51.1319 312.441 51.4715 312.227C51.8144 312.017 51.9859 311.73 51.9859 311.366C51.9859 311.064 51.8925 310.854 51.7057 310.735C51.519 310.619 51.1676 310.562 50.6515 310.562H49.6379C49.2542 310.562 48.9554 310.653 48.7415 310.837C48.5276 311.02 48.4206 311.283 48.4206 311.626ZM48.879 306.895C48.879 307.285 48.9894 307.58 49.2101 307.781C49.4308 307.981 49.7381 308.081 50.1319 308.081C50.957 308.081 51.3696 307.681 51.3696 306.879C51.3696 306.041 50.9519 305.621 50.1167 305.621C49.7194 305.621 49.4138 305.728 49.1999 305.942C48.986 306.156 48.879 306.474 48.879 306.895ZM58.8362 307.893C58.8362 308.803 58.607 309.514 58.1486 310.027C57.6902 310.536 57.057 310.791 56.2489 310.791C55.7497 310.791 55.3066 310.674 54.9195 310.439C54.5325 310.205 54.2337 309.869 54.0231 309.431C53.8126 308.993 53.7074 308.48 53.7074 307.893C53.7074 306.983 53.9349 306.275 54.3898 305.769C54.8448 305.26 55.4764 305.005 56.2845 305.005C57.0655 305.005 57.6851 305.265 58.1435 305.784C58.6053 306.304 58.8362 307.007 58.8362 307.893ZM54.5834 307.893C54.5834 308.606 54.726 309.149 55.0112 309.523C55.2964 309.896 55.7158 310.083 56.2692 310.083C56.8227 310.083 57.242 309.898 57.5272 309.528C57.8159 309.154 57.9602 308.609 57.9602 307.893C57.9602 307.183 57.8159 306.645 57.5272 306.278C57.242 305.908 56.8193 305.723 56.259 305.723C55.7056 305.723 55.2879 305.905 55.0061 306.268C54.7243 306.631 54.5834 307.173 54.5834 307.893Z" fill="#707F8D"/>
<path d="M194.642 310.689H193.817V305.382C193.817 304.94 193.83 304.523 193.857 304.129C193.786 304.2 193.706 304.275 193.618 304.353C193.53 304.431 193.126 304.762 192.406 305.346L191.958 304.766L193.929 303.243H194.642V310.689ZM202.414 306.956C202.414 308.243 202.21 309.203 201.803 309.838C201.399 310.473 200.779 310.791 199.944 310.791C199.142 310.791 198.533 310.467 198.115 309.818C197.698 309.166 197.489 308.212 197.489 306.956C197.489 305.659 197.691 304.696 198.095 304.068C198.499 303.44 199.115 303.126 199.944 303.126C200.752 303.126 201.365 303.453 201.782 304.109C202.203 304.764 202.414 305.713 202.414 306.956ZM198.344 306.956C198.344 308.039 198.472 308.828 198.726 309.324C198.981 309.816 199.387 310.063 199.944 310.063C200.507 310.063 200.915 309.813 201.166 309.314C201.421 308.811 201.548 308.025 201.548 306.956C201.548 305.886 201.421 305.103 201.166 304.608C200.915 304.109 200.507 303.859 199.944 303.859C199.387 303.859 198.981 304.105 198.726 304.598C198.472 305.086 198.344 305.873 198.344 306.956ZM208.383 306.956C208.383 308.243 208.179 309.203 207.772 309.838C207.368 310.473 206.748 310.791 205.913 310.791C205.112 310.791 204.502 310.467 204.084 309.818C203.667 309.166 203.458 308.212 203.458 306.956C203.458 305.659 203.66 304.696 204.064 304.068C204.468 303.44 205.084 303.126 205.913 303.126C206.721 303.126 207.334 303.453 207.751 304.109C208.173 304.764 208.383 305.713 208.383 306.956ZM204.314 306.956C204.314 308.039 204.441 308.828 204.696 309.324C204.95 309.816 205.356 310.063 205.913 310.063C206.476 310.063 206.884 309.813 207.135 309.314C207.39 308.811 207.517 308.025 207.517 306.956C207.517 305.886 207.39 305.103 207.135 304.608C206.884 304.109 206.476 303.859 205.913 303.859C205.356 303.859 204.95 304.105 204.696 304.598C204.441 305.086 204.314 305.873 204.314 306.956ZM210.14 305.463C210.14 306.041 210.203 306.474 210.329 306.762C210.454 307.051 210.658 307.195 210.94 307.195C211.497 307.195 211.775 306.618 211.775 305.463C211.775 304.316 211.497 303.742 210.94 303.742C210.658 303.742 210.454 303.884 210.329 304.17C210.203 304.455 210.14 304.886 210.14 305.463ZM212.473 305.463C212.473 306.238 212.342 306.823 212.081 307.221C211.823 307.614 211.442 307.811 210.94 307.811C210.464 307.811 210.094 307.609 209.829 307.205C209.568 306.801 209.437 306.221 209.437 305.463C209.437 304.693 209.563 304.112 209.814 303.721C210.069 303.331 210.444 303.136 210.94 303.136C211.432 303.136 211.811 303.338 212.076 303.742C212.34 304.146 212.473 304.72 212.473 305.463ZM214.622 308.448C214.622 309.029 214.685 309.463 214.811 309.752C214.936 310.037 215.142 310.18 215.427 310.18C215.712 310.18 215.923 310.039 216.058 309.757C216.194 309.472 216.262 309.035 216.262 308.448C216.262 307.867 216.194 307.438 216.058 307.159C215.923 306.878 215.712 306.737 215.427 306.737C215.142 306.737 214.936 306.878 214.811 307.159C214.685 307.438 214.622 307.867 214.622 308.448ZM216.96 308.448C216.96 309.219 216.829 309.803 216.568 310.2C216.31 310.594 215.929 310.791 215.427 310.791C214.945 310.791 214.573 310.589 214.311 310.185C214.053 309.781 213.924 309.202 213.924 308.448C213.924 307.677 214.05 307.097 214.301 306.706C214.556 306.316 214.931 306.12 215.427 306.12C215.909 306.12 216.284 306.321 216.552 306.721C216.824 307.119 216.96 307.694 216.96 308.448ZM215.646 303.243L211.515 310.689H210.767L214.897 303.243H215.646ZM221.895 305.107V308.728C221.895 309.183 221.999 309.523 222.206 309.747C222.413 309.971 222.737 310.083 223.179 310.083C223.763 310.083 224.189 309.923 224.457 309.604C224.729 309.285 224.865 308.764 224.865 308.041V305.107H225.71V310.689H225.012L224.89 309.94H224.844C224.671 310.215 224.43 310.426 224.121 310.572C223.815 310.718 223.466 310.791 223.072 310.791C222.393 310.791 221.883 310.63 221.544 310.307C221.208 309.984 221.04 309.468 221.04 308.759V305.107H221.895ZM230.105 310.791C229.742 310.791 229.409 310.725 229.107 310.592C228.808 310.456 228.557 310.249 228.353 309.971H228.292C228.333 310.297 228.353 310.606 228.353 310.898V313.195H227.508V305.107H228.196L228.313 305.871H228.353C228.571 305.565 228.824 305.345 229.112 305.209C229.401 305.073 229.732 305.005 230.105 305.005C230.846 305.005 231.416 305.258 231.817 305.764C232.221 306.27 232.423 306.979 232.423 307.893C232.423 308.81 232.217 309.523 231.807 310.032C231.399 310.538 230.832 310.791 230.105 310.791ZM229.983 305.723C229.413 305.723 229 305.881 228.746 306.197C228.491 306.513 228.36 307.015 228.353 307.704V307.893C228.353 308.677 228.484 309.239 228.746 309.579C229.007 309.915 229.426 310.083 230.004 310.083C230.486 310.083 230.863 309.888 231.134 309.497C231.409 309.107 231.547 308.569 231.547 307.883C231.547 307.187 231.409 306.653 231.134 306.283C230.863 305.91 230.479 305.723 229.983 305.723ZM235.708 310.093C235.857 310.093 236.002 310.083 236.141 310.063C236.28 310.039 236.39 310.015 236.472 309.991V310.638C236.38 310.682 236.244 310.718 236.064 310.745C235.888 310.776 235.728 310.791 235.586 310.791C234.506 310.791 233.966 310.222 233.966 309.085V305.764H233.166V305.356L233.966 305.005L234.323 303.813H234.812V305.107H236.431V305.764H234.812V309.049C234.812 309.385 234.891 309.643 235.051 309.823C235.211 310.003 235.43 310.093 235.708 310.093ZM238.438 310.689H237.592V305.107H238.438V310.689ZM237.521 303.594C237.521 303.401 237.569 303.26 237.664 303.171C237.759 303.08 237.878 303.034 238.02 303.034C238.156 303.034 238.273 303.08 238.372 303.171C238.47 303.263 238.519 303.404 238.519 303.594C238.519 303.784 238.47 303.927 238.372 304.022C238.273 304.114 238.156 304.16 238.02 304.16C237.878 304.16 237.759 304.114 237.664 304.022C237.569 303.927 237.521 303.784 237.521 303.594ZM247.346 310.689V307.058C247.346 306.613 247.251 306.28 247.061 306.059C246.871 305.835 246.575 305.723 246.174 305.723C245.648 305.723 245.259 305.874 245.008 306.176C244.757 306.479 244.631 306.944 244.631 307.572V310.689H243.786V307.058C243.786 306.613 243.691 306.28 243.501 306.059C243.31 305.835 243.013 305.723 242.609 305.723C242.08 305.723 241.691 305.883 241.443 306.202C241.198 306.518 241.076 307.037 241.076 307.76V310.689H240.231V305.107H240.918L241.056 305.871H241.097C241.256 305.599 241.48 305.387 241.769 305.234C242.061 305.081 242.387 305.005 242.747 305.005C243.619 305.005 244.19 305.321 244.458 305.952H244.499C244.665 305.66 244.906 305.429 245.222 305.26C245.538 305.09 245.898 305.005 246.302 305.005C246.933 305.005 247.405 305.168 247.718 305.494C248.033 305.816 248.191 306.334 248.191 307.047V310.689H247.346ZM252.296 310.791C251.471 310.791 250.819 310.54 250.341 310.037C249.865 309.535 249.628 308.837 249.628 307.944C249.628 307.044 249.848 306.329 250.29 305.8C250.735 305.27 251.33 305.005 252.077 305.005C252.777 305.005 253.33 305.236 253.738 305.698C254.145 306.156 254.349 306.762 254.349 307.516V308.051H250.504C250.521 308.706 250.685 309.203 250.998 309.543C251.313 309.883 251.757 310.052 252.327 310.052C252.928 310.052 253.522 309.927 254.11 309.675V310.429C253.811 310.558 253.527 310.65 253.259 310.704C252.994 310.762 252.673 310.791 252.296 310.791ZM252.067 305.713C251.619 305.713 251.261 305.859 250.993 306.151C250.728 306.443 250.572 306.847 250.524 307.363H253.442C253.442 306.83 253.324 306.423 253.086 306.141C252.848 305.856 252.509 305.713 252.067 305.713Z" fill="#707F8D"/>
<path d="M402.316 310.689H401.45V304.012H399.092V303.243H404.674V304.012H402.316V310.689ZM410.49 307.893C410.49 308.803 410.261 309.514 409.803 310.027C409.344 310.536 408.711 310.791 407.903 310.791C407.404 310.791 406.961 310.674 406.574 310.439C406.186 310.205 405.888 309.869 405.677 309.431C405.467 308.993 405.361 308.48 405.361 307.893C405.361 306.983 405.589 306.275 406.044 305.769C406.499 305.26 407.13 305.005 407.939 305.005C408.719 305.005 409.339 305.265 409.798 305.784C410.259 306.304 410.49 307.007 410.49 307.893ZM406.237 307.893C406.237 308.606 406.38 309.149 406.665 309.523C406.95 309.896 407.37 310.083 407.923 310.083C408.477 310.083 408.896 309.898 409.181 309.528C409.47 309.154 409.614 308.609 409.614 307.893C409.614 307.183 409.47 306.645 409.181 306.278C408.896 305.908 408.473 305.723 407.913 305.723C407.36 305.723 406.942 305.905 406.66 306.268C406.378 306.631 406.237 307.173 406.237 307.893ZM415.777 309.94H415.731C415.341 310.507 414.757 310.791 413.979 310.791C413.249 310.791 412.68 310.541 412.273 310.042C411.869 309.543 411.667 308.833 411.667 307.913C411.667 306.993 411.87 306.278 412.278 305.769C412.685 305.26 413.252 305.005 413.979 305.005C414.736 305.005 415.317 305.28 415.721 305.83H415.787L415.751 305.428L415.731 305.036V302.764H416.577V310.689H415.889L415.777 309.94ZM414.086 310.083C414.663 310.083 415.081 309.927 415.339 309.614C415.6 309.299 415.731 308.791 415.731 308.091V307.913C415.731 307.122 415.599 306.558 415.334 306.222C415.072 305.883 414.653 305.713 414.076 305.713C413.58 305.713 413.2 305.906 412.935 306.294C412.673 306.677 412.543 307.221 412.543 307.923C412.543 308.636 412.673 309.175 412.935 309.538C413.196 309.901 413.58 310.083 414.086 310.083ZM421.807 310.689L421.639 309.894H421.598C421.32 310.244 421.042 310.482 420.763 310.607C420.488 310.73 420.143 310.791 419.729 310.791C419.176 310.791 418.741 310.648 418.425 310.363C418.113 310.078 417.957 309.672 417.957 309.146C417.957 308.018 418.858 307.428 420.661 307.373L421.609 307.343V306.996C421.609 306.558 421.514 306.236 421.323 306.029C421.137 305.818 420.836 305.713 420.422 305.713C419.957 305.713 419.43 305.856 418.843 306.141L418.583 305.494C418.858 305.345 419.159 305.227 419.485 305.142C419.814 305.058 420.143 305.015 420.473 305.015C421.138 305.015 421.631 305.163 421.95 305.458C422.272 305.754 422.434 306.227 422.434 306.879V310.689H421.807ZM419.897 310.093C420.424 310.093 420.836 309.949 421.135 309.66C421.437 309.372 421.588 308.967 421.588 308.448V307.944L420.743 307.979C420.07 308.003 419.585 308.108 419.286 308.295C418.991 308.479 418.843 308.765 418.843 309.156C418.843 309.462 418.935 309.694 419.118 309.854C419.305 310.013 419.565 310.093 419.897 310.093ZM423.294 305.107H424.201L425.423 308.29C425.692 309.017 425.858 309.541 425.923 309.864H425.963C426.007 309.691 426.099 309.395 426.238 308.978C426.381 308.557 426.843 307.266 427.624 305.107H428.53L426.131 311.463C425.894 312.091 425.615 312.536 425.296 312.798C424.98 313.062 424.592 313.195 424.13 313.195C423.872 313.195 423.617 313.166 423.366 313.108V312.431C423.553 312.472 423.761 312.492 423.992 312.492C424.573 312.492 424.987 312.166 425.235 311.514L425.546 310.72L423.294 305.107Z" fill="#707F8D"/>
<path d="M88 308H173" stroke="#707F8D" stroke-width="0.651927"/>
<path d="M275 308H359" stroke="#707F8D" stroke-width="0.651927"/>
<rect x="1.80273" y="235.177" width="5.41029" height="41.4789" fill="#68D28C"/>
<rect x="174.932" y="235.176" width="5.41029" height="41.4789" fill="#68D28C"/>
<rect x="88.3672" y="235.176" width="5.41029" height="41.4789" fill="#68D28C"/>
<rect x="261.498" y="235.176" width="5.41029" height="41.4789" fill="#68D28C"/>
<rect x="402.164" y="235.176" width="5.41029" height="41.4789" fill="#68D28C"/>
<rect x="45.0859" y="235.176" width="5.41029" height="41.4789" fill="#68D28C"/>
<rect x="218.215" y="235.176" width="5.41029" height="41.4789" fill="#68D28C"/>
<rect x="358.883" y="235.176" width="5.41029" height="41.4789" fill="#68D28C"/>
<rect x="131.65" y="235.176" width="5.41029" height="41.4789" fill="#68D28C"/>
<rect x="304.779" y="235.176" width="5.41029" height="41.4789" fill="#68D28C"/>
<rect x="23.4453" y="235.176" width="5.41029" height="41.4789" fill="#68D28C"/>
<rect x="196.572" y="235.176" width="5.41029" height="41.4789" fill="#68D28C"/>
<rect x="110.01" y="235.176" width="5.41029" height="41.4789" fill="#68D28C"/>
<rect x="283.139" y="235.176" width="5.41029" height="41.4789" fill="#68D28C"/>
<rect x="423.805" y="235.176" width="5.41029" height="41.4789" fill="#68D28C"/>
<rect x="66.7266" y="235.176" width="5.41029" height="41.4789" fill="#68D28C"/>
<rect x="239.857" y="235.176" width="5.41029" height="41.4789" fill="#68D28C"/>
<rect x="380.523" y="235.176" width="5.41029" height="41.4789" fill="#68D28C"/>
<rect x="153.291" y="235.176" width="5.41029" height="41.4789" fill="#68D28C"/>
<rect x="326.42" y="235.176" width="5.41029" height="41.4789" fill="#68D28C"/>
<rect x="12.623" y="235.176" width="5.41029" height="41.4789" fill="#68D28C"/>
<rect x="185.752" y="235.176" width="5.41029" height="41.4789" fill="#68D28C"/>
<rect x="99.1875" y="235.176" width="5.41029" height="41.4789" fill="#68D28C"/>
<rect x="272.316" y="235.176" width="5.41029" height="41.4789" fill="#68D28C"/>
<rect x="412.984" y="235.176" width="5.41029" height="41.4789" fill="#68D28C"/>
<rect x="55.9062" y="235.176" width="5.41029" height="41.4789" fill="#68D28C"/>
<rect x="229.035" y="235.176" width="5.41029" height="41.4789" fill="#68D28C"/>
<rect x="369.703" y="235.176" width="5.41029" height="41.4789" fill="#68D28C"/>
<rect x="142.471" y="235.176" width="5.41029" height="41.4789" fill="#68D28C"/>
<rect x="315.6" y="235.176" width="5.41029" height="41.4789" fill="#68D28C"/>
<rect x="34.2656" y="235.176" width="5.41029" height="41.4789" fill="#68D28C"/>
<rect x="207.395" y="235.176" width="5.41029" height="41.4789" fill="#68D28C"/>
<rect x="348.061" y="235.176" width="5.41029" height="41.4789" fill="#68D28C"/>
<rect x="120.83" y="235.176" width="5.41029" height="41.4789" fill="#68D28C"/>
<rect x="293.959" y="235.176" width="5.41029" height="41.4789" fill="#68D28C"/>
<rect x="77.5469" y="235.176" width="5.41029" height="41.4789" fill="#68D28C"/>
<rect x="250.678" y="235.176" width="5.41029" height="41.4789" fill="#68D28C"/>
<rect x="391.344" y="235.176" width="5.41029" height="41.4789" fill="#68D28C"/>
<rect x="164.111" y="235.176" width="5.41029" height="41.4789" fill="#68D28C"/>
<rect x="337.24" y="235.176" width="5.41029" height="41.4789" fill="#68D28C"/>
</svg>
