<svg width="42" height="42" viewBox="0 0 42 42" fill="none" xmlns="http://www.w3.org/2000/svg">
<g clip-path="url(#clip0)">
<path d="M26.939 22.739C24.9046 18.3749 23.264 14.864 21.689 11.6812C20.475 9.22022 20.114 6.56241 20.5406 3.54366C20.639 2.95304 20.6718 2.36241 20.7703 1.70616C20.8031 1.37804 20.8359 1.08272 20.8687 0.721787C20.9015 0.492099 20.8031 0.262412 20.6062 0.131162C20.4093 -8.82819e-05 20.1796 -0.0329008 19.95 0.0655367C19.8187 0.131162 19.7203 0.163974 19.6546 0.196787C19.4578 0.262412 19.3265 0.328037 19.1625 0.426474C16.275 2.49366 14.2406 4.79054 12.9281 7.51397C12.0421 9.38429 12.4359 11.2546 12.8953 12.8624C13.7484 15.8155 15.0609 18.6374 16.3078 21.3608L17.489 23.8546C18.6046 26.2499 19.7531 28.7108 20.8687 31.139C21.5906 32.714 21.7546 34.3546 21.3609 36.0608C21.164 36.8812 20.9671 37.6687 20.7375 38.489C20.5734 39.0796 20.4093 39.6702 20.2453 40.2937C20.1796 40.589 20.1796 40.8843 20.1796 41.114C20.1796 41.2124 20.1796 41.278 20.1796 41.3765C20.1796 41.6062 20.2781 41.803 20.475 41.9343C20.5734 41.9999 20.7046 42.0655 20.8359 42.0655C20.9015 42.0655 21 42.0655 21.0656 42.0327C21.1312 41.9999 21.2296 41.9671 21.3281 41.9343C21.5906 41.8687 21.8859 41.7702 22.1484 41.5405C24.9703 39.2765 27.2343 36.6187 28.9078 33.6983C29.564 32.5827 29.7281 31.3358 29.4328 29.9577C28.9406 27.2999 27.9234 24.9374 26.939 22.739ZM27.825 33.0093C26.2828 35.6999 24.1828 38.128 21.6234 40.2608C21.7546 39.7687 21.8859 39.2765 22.0171 38.7843C22.2468 37.9968 22.4765 37.1437 22.6406 36.3233C23.1 34.3546 22.9031 32.4187 22.05 30.5812C20.9343 28.1202 19.7859 25.6593 18.6703 23.264L17.489 20.7702C16.2421 18.1124 14.9625 15.3562 14.1421 12.5015C13.65 10.7624 13.4531 9.4171 14.1093 8.07179C15.225 5.70929 16.964 3.67491 19.425 1.87022C19.3593 2.39522 19.3265 2.88741 19.2281 3.3796C18.7687 6.66085 19.1953 9.58116 20.5078 12.2718C22.05 15.4546 23.7234 18.9655 25.725 23.2968C26.7093 25.4296 27.6937 27.7265 28.1859 30.1874C28.4156 31.2702 28.2843 32.1562 27.825 33.0093Z" fill="#2ACCD7"/>
<path d="M14.6347 27.4313C14.1097 25.7579 13.5519 24.0517 12.83 22.411C12.0097 20.5407 11.1238 18.6704 10.2378 16.8329C9.68003 15.6517 9.08941 14.4048 8.53159 13.1907C8.20347 12.5017 7.97378 11.7798 7.84253 11.0907C7.51441 9.38447 7.74409 7.67822 7.97378 5.87354C8.00659 5.67666 8.00659 5.5126 7.97378 5.31572C7.97378 5.21729 7.97378 5.15166 7.97378 5.05322C7.97378 4.82354 7.84253 4.59385 7.64566 4.49541C7.44878 4.36416 7.18628 4.36416 6.98941 4.49541C6.89097 4.56104 6.79253 4.59385 6.72691 4.62666C6.56284 4.7251 6.39878 4.79072 6.23472 4.92197C4.43003 6.23447 2.98628 7.80947 1.90347 9.58135C1.08316 10.9267 0.886281 12.3048 1.24722 13.8142C1.80503 16.1767 2.78941 18.3751 3.80659 20.6063C4.36441 21.7876 4.88941 22.936 5.44722 24.1173C6.20191 25.7579 6.98941 27.3985 7.74409 29.0392C8.26909 30.1876 8.40034 31.4017 8.13784 32.6813C8.00659 33.3704 7.80972 34.0923 7.61284 34.7813C7.51441 35.1751 7.38316 35.6017 7.28472 35.9954C7.21909 36.2251 7.18628 36.422 7.18628 36.6517C7.18628 36.7501 7.15347 36.8157 7.15347 36.9142C7.12066 37.1767 7.25191 37.472 7.48159 37.6032L7.64566 37.7017C7.74409 37.7673 7.84253 37.7673 7.94097 37.7673C8.03941 37.7673 8.17066 37.7345 8.26909 37.6688C8.33472 37.636 8.40034 37.6032 8.46597 37.5704C8.63003 37.472 8.82691 37.3735 9.02378 37.2423C11.255 35.4376 13.0597 33.3704 14.3722 31.0407C14.9628 30.0235 15.0941 28.9735 14.766 27.9235L14.6347 27.4313ZM13.2566 30.3517C12.1082 32.3532 10.5988 34.1907 8.72847 35.7657C8.79409 35.536 8.85972 35.3392 8.89253 35.1095C9.08941 34.3876 9.28628 33.6657 9.45034 32.9438C9.77847 31.3688 9.61441 29.8923 8.99097 28.4813C8.23628 26.8407 7.48159 25.2001 6.69409 23.5595C6.13628 22.3782 5.61128 21.2298 5.05347 20.0485C4.00347 17.7845 3.08472 15.7501 2.55972 13.486C2.29722 12.3376 2.46128 11.2548 3.08472 10.2048C3.97066 8.72822 5.15191 7.38291 6.62847 6.26729C6.39878 7.90791 6.23472 9.61416 6.56284 11.3204C6.72691 12.1407 6.98941 12.9282 7.35034 13.7157C7.90816 14.9298 8.49878 16.1767 9.08941 17.3907C9.94253 19.1954 10.8285 21.0657 11.6488 22.936C12.3378 24.511 12.8957 26.2173 13.4207 27.8579L13.5847 28.3173C13.7488 28.9735 13.6503 29.6626 13.2566 30.3517Z" fill="#2ACCD7"/>
<path d="M40.8195 28.4811C40.6226 27.3654 40.3273 26.0201 39.8023 24.8061C38.9163 22.7389 37.932 20.7045 37.0132 18.7029C36.4226 17.4232 35.832 16.1764 35.2741 14.8967L35.1757 14.667C34.7163 13.617 34.2241 12.567 33.896 11.4842C33.4695 10.0404 33.6335 8.43262 33.8304 6.95605C33.896 6.5623 33.9288 6.16855 33.9616 5.80762L34.0273 5.28262C34.0601 5.02012 33.9288 4.7248 33.6663 4.62637L33.5023 4.52793C33.3054 4.42949 33.0757 4.42949 32.9116 4.52793C32.846 4.56074 32.8132 4.59355 32.7476 4.62637C32.5835 4.69199 32.4195 4.79043 32.2554 4.92168C30.4835 6.23418 29.0726 7.74355 27.9898 9.48262C27.1695 10.8279 26.907 12.2389 27.2351 13.7154C27.7601 16.0451 28.6788 18.1451 29.7616 20.4748C30.3195 21.7217 30.9101 22.9357 31.4679 24.1498C32.1898 25.7248 32.9773 27.3326 33.6991 28.9404C34.2241 30.0561 34.3882 31.1389 34.1913 32.1232C34.0273 32.9764 33.7976 33.8295 33.6007 34.6498C33.4695 35.1092 33.371 35.5686 33.2726 36.0607C33.2398 36.2576 33.207 36.4545 33.1741 36.6842C33.1741 36.7826 33.1413 36.9139 33.1413 37.0451C33.1085 37.2748 33.207 37.5373 33.4038 37.6686C33.5023 37.7342 33.6335 37.7998 33.7648 37.7998C33.8632 37.7998 33.9616 37.767 34.0601 37.7342C34.1913 37.6686 34.2898 37.6357 34.3554 37.6029C34.5523 37.5045 34.7163 37.4389 34.9132 37.3076C37.4398 35.2732 39.2773 33.1076 40.4913 30.7123C40.8195 30.0232 40.9507 29.1701 40.8195 28.4811ZM39.3101 30.0889C38.2929 32.1232 36.7507 33.9936 34.6507 35.7654C34.7163 35.5029 34.782 35.2404 34.8476 34.9779C35.0445 34.1248 35.2741 33.2389 35.4382 32.3857C35.7007 31.1061 35.5038 29.7607 34.8476 28.3826C34.1257 26.7748 33.3382 25.167 32.6163 23.592C32.0257 22.3779 31.4679 21.1311 30.9101 19.917C29.8601 17.6857 28.9741 15.6186 28.482 13.4201C28.2195 12.2717 28.4163 11.1889 29.0726 10.1389C29.9585 8.6623 31.107 7.41543 32.5507 6.26699C32.5179 6.43105 32.5179 6.59512 32.4851 6.75918C32.2554 8.3998 32.0913 10.1389 32.5835 11.8123C32.9116 12.9936 33.4366 14.1092 33.9288 15.192L34.0273 15.4217C34.6179 16.7014 35.2085 17.9482 35.7663 19.2279C36.6851 21.2295 37.6366 23.2639 38.5226 25.2982C39.0148 26.4139 39.2773 27.6279 39.4741 28.6779C39.6054 29.1373 39.5398 29.6951 39.3101 30.0889Z" fill="#2ACCD7"/>
</g>
<defs>
<clipPath id="clip0">
<rect width="42" height="42" fill="white"/>
</clipPath>
</defs>
</svg>
