<svg width="42" height="42" viewBox="0 0 42 42" fill="none" xmlns="http://www.w3.org/2000/svg">
<path d="M24.2353 1.3125C24.2353 3.21563 24.2025 5.61094 24.2025 7.31719C25.1869 7.48125 26.1384 7.64531 27.09 7.84219C28.4353 8.1375 29.6822 8.6625 30.8306 9.48281C33.6197 11.5172 33.9806 17.4563 30.1087 19.425C30.0431 19.4578 29.9775 19.5234 29.8791 19.5891C30.6666 19.95 31.4541 20.1797 32.1431 20.6062C33.6525 21.4922 34.5384 22.8375 34.7681 24.6094C35.0306 26.4141 34.8666 28.1859 34.1775 29.8594C33.2587 32.025 31.5525 33.2719 29.3541 33.7969C27.6806 34.2234 25.9416 34.3547 24.2025 34.65C24.1041 34.65 24.0384 34.6828 23.9072 34.6828C23.8744 36.4547 23.8744 38.7188 23.8416 40.6547H20.2322C20.2322 38.7844 20.265 36.5203 20.265 34.6828C19.3134 34.65 18.3947 34.6172 17.3775 34.6172C17.3447 36.4219 17.3447 38.7188 17.3119 40.6547H13.7025C13.7025 38.7188 13.7353 36.3891 13.7353 34.5187C11.2744 34.4859 8.91187 34.4531 6.45094 34.4203C6.71344 32.9766 6.94312 31.5984 7.20562 30.1219C8.02594 30.1219 8.81344 30.1219 9.60094 30.1219C9.60094 30.1219 9.60094 30.1219 9.63375 30.1219C10.7494 30.1219 11.2087 29.6625 11.2087 28.5469C11.2744 23.3953 11.34 18.2437 11.3728 13.0922C11.3728 11.8453 10.7166 11.1562 9.46969 11.0578C9.01031 11.025 8.55094 11.025 8.09156 11.025C7.63219 11.025 7.17281 11.025 6.64781 10.9922C6.64781 9.7125 6.68062 8.46562 6.68062 7.15312C9.10875 7.18594 11.5041 7.18594 13.965 7.21875C14.0962 5.57812 14.1291 3.21563 14.1291 1.3125H17.7384C17.7384 3.18281 17.7056 5.47969 17.7056 7.18594C18.6572 7.18594 19.5759 7.18594 20.5931 7.18594C20.6259 5.5125 20.6259 3.18281 20.6587 1.3125H24.2353ZM19.5103 18.7031C20.9869 18.7031 22.4306 18.6047 23.8416 18.1125C25.2853 17.6531 26.1056 16.6359 26.1712 15.225C26.2369 13.8797 25.5806 12.7969 24.2353 12.2063C22.7587 11.55 21.1837 11.4516 19.6087 11.4516C19.0181 11.4516 18.3947 11.4516 17.7712 11.4516C17.7384 13.9125 17.7384 16.275 17.7056 18.6703C18.2962 18.6703 18.8869 18.7031 19.5103 18.7031ZM17.7712 22.3125C17.7056 22.3125 17.6728 22.3125 17.6072 22.3125C17.5744 24.9703 17.5416 27.5953 17.5087 30.2531C18.0994 30.2531 18.6572 30.2859 19.215 30.2859C19.2478 30.2859 19.3134 30.2859 19.3462 30.2859C21.4462 30.2531 23.5791 30.2531 25.5478 29.3672C26.8603 28.7766 27.6806 27.825 27.6806 26.3156C27.6806 24.8062 26.8931 23.7891 25.5806 23.2313C23.7431 22.4109 21.7744 22.3125 19.74 22.3125C19.1166 22.3125 18.4603 22.3125 17.7712 22.3125ZM24.2353 0H20.6259C19.9041 0 19.3134 0.590625 19.3134 1.3125C19.3134 2.1 19.2806 2.98594 19.2806 3.83906C19.2806 4.52812 19.2806 5.21719 19.2478 5.87344H18.9853C18.9853 5.21719 18.9853 4.52813 18.9853 3.80625L19.0509 1.3125C19.0509 0.951562 18.9197 0.623438 18.6572 0.39375C18.4275 0.13125 18.0994 0 17.7384 0H14.1291C13.4072 0 12.8166 0.590625 12.8166 1.3125C12.8166 2.13281 12.7837 3.01875 12.7837 3.90469C12.7837 4.62656 12.7837 5.31562 12.7509 6.00469L10.7494 5.97188L6.81188 5.90625C6.09 5.90625 5.49938 6.49687 5.49938 7.21875L5.46656 9.90938V11.0578C5.46656 11.7797 6.02437 12.3703 6.74625 12.3703H7.23844C7.56656 12.3703 7.86187 12.3703 8.19 12.3703C8.28844 12.3703 8.38687 12.3703 8.51812 12.3703C8.84625 12.3703 9.17437 12.3703 9.5025 12.4031C10.0931 12.4359 10.1916 12.6 10.1916 13.125C10.1259 18.3422 10.0931 23.625 10.0275 28.5797C10.0275 28.7109 10.0275 28.7766 9.99469 28.8422C9.92906 28.8422 9.86344 28.8422 9.73219 28.8422C9.17437 28.8422 8.61656 28.8422 8.05875 28.8422H7.30406C6.68063 28.8422 6.12281 29.3016 6.02437 29.925L5.66344 31.9922L5.26969 34.2234C5.20406 34.6172 5.3025 34.9781 5.565 35.2734C5.8275 35.5687 6.18844 35.7328 6.54937 35.7328H6.97594L12.5212 35.7984C12.5212 36.4547 12.5212 37.1109 12.5212 37.8V40.6219C12.5212 40.9828 12.6525 41.3109 12.915 41.5406C13.1775 41.8031 13.5056 41.9344 13.8337 41.9344H17.4431C18.165 41.9344 18.7556 41.3438 18.7556 40.6219C18.7556 39.7359 18.7884 38.7844 18.7884 37.8328C18.7884 37.1766 18.7884 36.5203 18.8212 35.8969H18.8541H19.0837C19.0837 36.5531 19.0837 37.2422 19.0837 37.8984V40.5562C19.0837 40.9172 19.215 41.2453 19.4775 41.475C19.74 41.7375 20.0681 41.8687 20.3962 41.8687H24.0056C24.7275 41.8687 25.3181 41.2781 25.3181 40.5562C25.3181 39.6703 25.3509 38.7188 25.3509 37.7672C25.3509 37.0453 25.3509 36.3563 25.3837 35.6672C25.6462 35.6344 25.9087 35.6016 26.1384 35.5688C27.3525 35.4047 28.5994 35.2406 29.8134 34.9125C32.5369 34.2234 34.5056 32.6156 35.5228 30.1875C36.2775 28.3828 36.5072 26.3813 36.2119 24.2484C35.8837 22.0828 34.7681 20.3766 32.9306 19.3266C32.7994 19.2609 32.7009 19.1953 32.5697 19.1297C33.5869 18.0141 34.2103 16.5375 34.3416 14.8313C34.5384 12.1734 33.5212 9.61406 31.6837 8.30156C30.4369 7.41562 29.0587 6.79219 27.4509 6.43125C26.8275 6.3 26.2041 6.16875 25.6134 6.07031C25.6134 5.34844 25.6134 4.59375 25.6134 3.80625C25.6134 2.92031 25.6134 2.03437 25.6462 1.21406C25.6462 1.18125 25.6462 1.18125 25.6462 1.14844C25.5478 0.590625 24.99 0 24.2353 0ZM19.0509 12.7312C19.215 12.7312 19.4119 12.7312 19.5759 12.7312C21.1837 12.7312 22.4634 12.8297 23.6775 13.3875C24.4978 13.7484 24.8916 14.3391 24.8587 15.1594C24.8259 15.7172 24.6619 16.4719 23.415 16.8984C22.3322 17.2594 21.1181 17.4234 19.5103 17.4234C19.3462 17.4234 19.1822 17.4234 19.0181 17.4234V16.1766L19.0509 12.7312ZM18.9197 23.625C19.1822 23.625 19.4775 23.625 19.74 23.625C21.5119 23.625 23.3494 23.6906 25.0884 24.4453C26.0072 24.8391 26.4009 25.4297 26.4009 26.3484C26.4009 26.9719 26.2369 27.6938 25.0556 28.2188C23.3166 28.9734 21.4134 29.0063 19.4119 29.0063H19.3791H19.2478C19.1166 29.0063 19.0181 29.0063 18.8869 29.0063L18.9197 24.8062V23.625Z" fill="#2ACCD7"/>
</svg>
