<svg viewBox="0 0 371 261" fill="none" xmlns="http://www.w3.org/2000/svg">
<g opacity="0.7">
<path d="M372.256 -41.6987L347.608 -66.2452M372.256 -41.6987L363.236 -7.12524M372.256 -41.6987L405.927 -51.1789M347.608 -66.2452L338.317 -31.9415L363.236 -7.12524M347.608 -66.2452L381.008 -75.9951L405.927 -51.1789M363.236 -7.12524L397.446 -16.6127L405.927 -51.1789" stroke="#213146" stroke-width="1.1426"/>
<path d="M329.833 2.07863L305.185 -22.4679M329.833 2.07863L320.813 36.6521M329.833 2.07863L363.504 -7.40151M305.185 -22.4679L295.894 11.8358L320.813 36.6521M305.185 -22.4679L338.585 -32.2178L363.504 -7.40151M320.813 36.6521L355.023 27.1646L363.504 -7.40151" stroke="#213146" stroke-width="1.1426"/>
<ellipse rx="4.62983" ry="4.58715" transform="matrix(-0.695913 0.718126 -0.708564 -0.705646 354.484 27.1721)" fill="#213146"/>
<ellipse rx="2.70073" ry="2.67584" transform="matrix(-0.695913 0.718126 -0.708564 -0.705646 320.543 36.3826)" fill="#213146"/>
<ellipse rx="2.70073" ry="2.67584" transform="matrix(-0.695913 0.718126 -0.708564 -0.705646 295.624 11.5657)" fill="#213146"/>
<ellipse rx="1.9291" ry="1.91131" transform="matrix(-0.695913 0.718126 -0.708564 -0.705646 330.105 2.34888)" fill="#213146"/>
<path d="M379.672 51.7107L355.024 27.1642M379.672 51.7107L370.652 86.2842M379.672 51.7107L413.343 42.2306M355.024 27.1642L345.733 61.4679L370.652 86.2842M355.024 27.1642L388.424 17.4143L413.343 42.2306M370.652 86.2842L404.862 76.7967L413.343 42.2306" stroke="#213146" stroke-width="1.1426"/>
<ellipse rx="4.62983" ry="4.58715" transform="matrix(-0.695913 0.718126 -0.708564 -0.705646 354.486 27.1721)" fill="#213146"/>
<ellipse rx="2.70073" ry="2.67584" transform="matrix(-0.695913 0.718126 -0.708564 -0.705646 370.382 86.0149)" fill="#213146"/>
<ellipse rx="2.70073" ry="2.67584" transform="matrix(-0.695913 0.718126 -0.708564 -0.705646 345.463 61.1978)" fill="#213146"/>
<path d="M337.249 95.4873L312.601 70.9408M337.249 95.4873L328.229 130.061M337.249 95.4873L370.92 86.0072M312.601 70.9408L303.31 105.245L328.229 130.061M312.601 70.9408L346.001 61.1909L370.92 86.0072M328.229 130.061L362.439 120.573L370.92 86.0072" stroke="#213146" stroke-width="1.1426"/>
<ellipse rx="4.62983" ry="4.58715" transform="matrix(-0.695913 0.718126 -0.708564 -0.705646 361.9 120.581)" fill="#213146"/>
<ellipse rx="4.62983" ry="4.58715" transform="matrix(-0.695913 0.718126 -0.708564 -0.705646 312.063 70.948)" fill="#213146"/>
<ellipse rx="2.70073" ry="2.67584" transform="matrix(-0.695913 0.718126 -0.708564 -0.705646 345.463 61.1982)" fill="#213146"/>
<ellipse rx="2.70073" ry="2.67584" transform="matrix(-0.695913 0.718126 -0.708564 -0.705646 370.381 86.0151)" fill="#213146"/>
<ellipse rx="2.70073" ry="2.67584" transform="matrix(-0.695913 0.718126 -0.708564 -0.705646 327.959 129.791)" fill="#213146"/>
<ellipse rx="2.70073" ry="2.67584" transform="matrix(-0.695913 0.718126 -0.708564 -0.705646 303.04 104.974)" fill="#213146"/>
<ellipse rx="1.9291" ry="1.91131" transform="matrix(-0.695913 0.718126 -0.708564 -0.705646 337.521 95.7576)" fill="#213146"/>
<path d="M386.922 145.081L362.274 120.535M386.922 145.081L377.902 179.655M386.922 145.081L420.593 135.601M362.274 120.535L352.983 154.838L377.902 179.655M362.274 120.535L395.674 110.785L420.593 135.601M377.902 179.655L412.112 170.167L420.593 135.601" stroke="#213146" stroke-width="1.1426"/>
<ellipse rx="4.62983" ry="4.58715" transform="matrix(-0.695913 0.718126 -0.708564 -0.705646 361.736 120.542)" fill="#213146"/>
<ellipse rx="2.70073" ry="2.67584" transform="matrix(-0.695913 0.718126 -0.708564 -0.705646 352.713 154.568)" fill="#213146"/>
<path d="M217.389 100.982L192.741 76.4352M217.389 100.982L208.369 135.555M217.389 100.982L251.06 91.5016M192.741 76.4352L183.45 110.739L208.369 135.555M192.741 76.4352L226.141 66.6853L251.06 91.5016M208.369 135.555L242.579 126.068L251.06 91.5016" stroke="#213146" stroke-width="1.1426"/>
<ellipse rx="4.62983" ry="4.58715" transform="matrix(-0.695913 0.718126 -0.708564 -0.705646 242.039 126.075)" fill="#213146"/>
<ellipse rx="4.62983" ry="4.58715" transform="matrix(-0.695913 0.718126 -0.708564 -0.705646 192.203 76.4431)" fill="#213146"/>
<ellipse rx="2.70073" ry="2.67584" transform="matrix(-0.695913 0.718126 -0.708564 -0.705646 225.602 66.6926)" fill="#213146"/>
<ellipse rx="2.70073" ry="2.67584" transform="matrix(-0.695913 0.718126 -0.708564 -0.705646 250.52 91.5095)" fill="#213146"/>
<ellipse rx="2.70073" ry="2.67584" transform="matrix(-0.695913 0.718126 -0.708564 -0.705646 208.099 135.286)" fill="#213146"/>
<ellipse rx="2.70073" ry="2.67584" transform="matrix(-0.695913 0.718126 -0.708564 -0.705646 183.18 110.469)" fill="#213146"/>
<ellipse rx="1.9291" ry="1.91131" transform="matrix(-0.695913 0.718126 -0.708564 -0.705646 217.661 101.252)" fill="#213146"/>
<path d="M237.574 -3.77806L212.926 -28.3246M237.574 -3.77806L228.553 30.7954M237.574 -3.77806L271.244 -13.2582M212.926 -28.3246L203.634 5.97914L228.553 30.7954M212.926 -28.3246L246.325 -38.0745L271.244 -13.2582M228.553 30.7954L262.763 21.308L271.244 -13.2582" stroke="#213146" stroke-width="1.1426"/>
<ellipse rx="4.62983" ry="4.58715" transform="matrix(-0.695913 0.718126 -0.708564 -0.705646 262.224 21.3154)" fill="#213146"/>
<ellipse rx="2.70073" ry="2.67584" transform="matrix(-0.695913 0.718126 -0.708564 -0.705646 228.283 30.5259)" fill="#213146"/>
<ellipse rx="2.70073" ry="2.67584" transform="matrix(-0.695913 0.718126 -0.708564 -0.705646 203.364 5.70899)" fill="#213146"/>
<path d="M279.996 -47.5537L255.348 -72.1002M279.996 -47.5537L270.976 -12.9802M279.996 -47.5537L313.667 -57.0338M255.348 -72.1002L246.057 -37.7965L270.976 -12.9802M255.348 -72.1002L288.748 -81.8501L313.667 -57.0338M270.976 -12.9802L305.186 -22.4677L313.667 -57.0338" stroke="#213146" stroke-width="1.1426"/>
<path d="M159.678 -15.0095L135.03 -39.556M159.678 -15.0095L150.658 19.564M159.678 -15.0095L193.349 -24.4896M135.03 -39.556L125.739 -5.2523L150.658 19.564M135.03 -39.556L168.43 -49.3059L193.349 -24.4896M150.658 19.564L184.868 10.0765L193.349 -24.4896" stroke="#213146" stroke-width="1.1426"/>
<ellipse rx="4.62983" ry="4.58715" transform="matrix(-0.695913 0.718126 -0.708564 -0.705646 184.329 10.084)" fill="#213146"/>
<ellipse rx="2.70073" ry="2.67584" transform="matrix(-0.695913 0.718126 -0.708564 -0.705646 150.388 19.2939)" fill="#213146"/>
</g>
</svg>
