<svg width="520" height="430" viewBox="0 0 520 430" fill="none" xmlns="http://www.w3.org/2000/svg">
<path d="M511.221 478.666L543.395 446.493M511.221 478.666L466.673 466.646M511.221 478.666L522.888 522.861M543.395 446.493L499.2 434.119L466.673 466.646M543.395 446.493L555.415 490.334L522.888 522.861M466.673 466.646L478.341 511.547L522.888 522.861" stroke="#324558" stroke-width="1.5"/>
<circle cx="499.555" cy="433.765" r="3.5" transform="rotate(-135 499.555 433.765)" fill="#324558"/>
<path d="M455.36 422.805L487.533 390.632M455.36 422.805L410.812 410.784M455.36 422.805L467.027 466.999M487.533 390.632L443.339 378.257L410.812 410.784M487.533 390.632L499.554 434.472L467.027 466.999M410.812 410.784L422.479 455.686L467.027 466.999" stroke="#324558" stroke-width="1.5"/>
<circle cx="487.533" cy="389.925" r="6" transform="rotate(-135 487.533 389.925)" fill="#324558"/>
<circle cx="499.555" cy="433.765" r="3.5" transform="rotate(-135 499.555 433.765)" fill="#324558"/>
<circle cx="411.166" cy="410.431" r="3.5" transform="rotate(-135 411.166 410.431)" fill="#324558"/>
<circle cx="443.693" cy="377.904" r="3.5" transform="rotate(-135 443.693 377.904)" fill="#324558"/>
<circle cx="455.006" cy="423.159" r="2.5" transform="rotate(-135 455.006 423.159)" fill="#324558"/>
<path d="M390.305 487.859L422.479 455.685M390.305 487.859L345.757 475.838M390.305 487.859L401.972 532.053M422.479 455.685L378.284 443.311L345.757 475.838M422.479 455.685L434.499 499.526L401.972 532.053M345.757 475.838L357.425 520.739L401.972 532.053" stroke="#324558" stroke-width="1.5"/>
<path d="M334.444 431.997L366.617 399.824M334.444 431.997L289.896 419.976M334.444 431.997L346.111 476.191M366.617 399.824L322.423 387.45L289.896 419.976M366.617 399.824L378.638 443.665L346.111 476.191M289.896 419.976L301.563 464.878L346.111 476.191" stroke="#324558" stroke-width="1.5"/>
<circle cx="366.617" cy="399.117" r="6" transform="rotate(-135 366.617 399.117)" fill="#324558"/>
<circle cx="290.25" cy="419.623" r="3.5" transform="rotate(-135 290.25 419.623)" fill="#324558"/>
<circle cx="322.777" cy="387.096" r="3.5" transform="rotate(-135 322.777 387.096)" fill="#324558"/>
<circle cx="334.09" cy="432.351" r="2.5" transform="rotate(-135 334.09 432.351)" fill="#324558"/>
<path d="M213.53 441.19L245.703 409.016M213.53 441.19L168.982 429.169M213.53 441.19L225.197 485.384M245.703 409.016L201.509 396.642L168.982 429.169M245.703 409.016L257.724 452.857L225.197 485.384M168.982 429.169L180.649 474.07L225.197 485.384" stroke="#324558" stroke-width="1.5"/>
<circle cx="245.703" cy="408.309" r="6" transform="rotate(-135 245.703 408.309)" fill="#324558"/>
<circle cx="169.336" cy="428.815" r="3.5" transform="rotate(-135 169.336 428.815)" fill="#324558"/>
<circle cx="201.863" cy="396.288" r="3.5" transform="rotate(-135 201.863 396.288)" fill="#324558"/>
<path d="M208.528 284.029L240.701 251.855M208.528 284.029L163.98 272.008M208.528 284.029L220.195 328.223M240.701 251.855L196.507 239.481L163.98 272.008M240.701 251.855L252.722 295.696L220.195 328.223M163.98 272.008L175.647 316.909L220.195 328.223" stroke="#324558" stroke-width="1.5"/>
<circle cx="175.648" cy="316.202" r="6" transform="rotate(-135 175.648 316.202)" fill="#324558"/>
<circle cx="240.701" cy="251.148" r="6" transform="rotate(-135 240.701 251.148)" fill="#324558"/>
<circle cx="252.723" cy="294.989" r="3.5" transform="rotate(-135 252.723 294.989)" fill="#324558"/>
<circle cx="220.195" cy="327.516" r="3.5" transform="rotate(-135 220.195 327.516)" fill="#324558"/>
<circle cx="164.334" cy="271.654" r="3.5" transform="rotate(-135 164.334 271.654)" fill="#324558"/>
<circle cx="196.861" cy="239.127" r="3.5" transform="rotate(-135 196.861 239.127)" fill="#324558"/>
<circle cx="208.174" cy="284.382" r="2.5" transform="rotate(-135 208.174 284.382)" fill="#324558"/>
<path d="M343.637 311.082L375.811 278.909M343.637 311.082L299.09 299.061M343.637 311.082L355.305 355.276M375.811 278.909L331.616 266.534L299.09 299.061M375.811 278.909L387.831 322.749L355.305 355.276M299.09 299.061L310.757 343.963L355.305 355.276" stroke="#324558" stroke-width="1.5"/>
<circle cx="310.758" cy="343.256" r="6" transform="rotate(-135 310.758 343.256)" fill="#324558"/>
<circle cx="375.811" cy="278.202" r="6" transform="rotate(-135 375.811 278.202)" fill="#324558"/>
<circle cx="387.832" cy="322.042" r="3.5" transform="rotate(-135 387.832 322.042)" fill="#324558"/>
<circle cx="355.305" cy="354.569" r="3.5" transform="rotate(-135 355.305 354.569)" fill="#324558"/>
<circle cx="299.443" cy="298.708" r="3.5" transform="rotate(-135 299.443 298.708)" fill="#324558"/>
<circle cx="331.971" cy="266.181" r="3.5" transform="rotate(-135 331.971 266.181)" fill="#324558"/>
<circle cx="343.283" cy="311.436" r="2.5" transform="rotate(-135 343.283 311.436)" fill="#324558"/>
<path d="M399.499 366.944L431.672 334.77M399.499 366.944L354.951 354.923M399.499 366.944L411.166 411.138M431.672 334.77L387.478 322.396L354.951 354.923M431.672 334.77L443.693 378.611L411.166 411.138M354.951 354.923L366.618 399.824L411.166 411.138" stroke="#324558" stroke-width="1.5"/>
<circle cx="366.619" cy="399.117" r="6" transform="rotate(-135 366.619 399.117)" fill="#324558"/>
<circle cx="431.672" cy="334.063" r="6" transform="rotate(-135 431.672 334.063)" fill="#324558"/>
<circle cx="443.693" cy="377.904" r="3.5" transform="rotate(-135 443.693 377.904)" fill="#324558"/>
<circle cx="411.166" cy="410.431" r="3.5" transform="rotate(-135 411.166 410.431)" fill="#324558"/>
<circle cx="355.305" cy="354.569" r="3.5" transform="rotate(-135 355.305 354.569)" fill="#324558"/>
<circle cx="387.832" cy="322.042" r="3.5" transform="rotate(-135 387.832 322.042)" fill="#324558"/>
<circle cx="399.145" cy="367.297" r="2.5" transform="rotate(-135 399.145 367.297)" fill="#324558"/>
<path d="M464.551 301.89L496.725 269.716M464.551 301.89L420.004 289.869M464.551 301.89L476.219 346.084M496.725 269.716L452.53 257.342L420.004 289.869M496.725 269.716L508.745 313.557L476.219 346.084M420.004 289.869L431.671 334.77L476.219 346.084" stroke="#324558" stroke-width="1.5"/>
<circle cx="431.672" cy="334.063" r="6" transform="rotate(-135 431.672 334.063)" fill="#324558"/>
<circle cx="496.725" cy="269.009" r="6" transform="rotate(-135 496.725 269.009)" fill="#324558"/>
<circle cx="508.746" cy="312.85" r="3.5" transform="rotate(-135 508.746 312.85)" fill="#324558"/>
<circle cx="476.219" cy="345.377" r="3.5" transform="rotate(-135 476.219 345.377)" fill="#324558"/>
<circle cx="420.357" cy="289.515" r="3.5" transform="rotate(-135 420.357 289.515)" fill="#324558"/>
<circle cx="452.885" cy="256.988" r="3.5" transform="rotate(-135 452.885 256.988)" fill="#324558"/>
<circle cx="464.197" cy="302.243" r="2.5" transform="rotate(-135 464.197 302.243)" fill="#324558"/>
<path d="M359.528 209.029L391.701 176.855M359.528 209.029L314.98 197.008M359.528 209.029L371.195 253.223M391.701 176.855L347.507 164.481L314.98 197.008M391.701 176.855L403.722 220.696L371.195 253.223M314.98 197.008L326.647 241.909L371.195 253.223" stroke="#324558" stroke-width="1.5"/>
<circle cx="326.648" cy="241.202" r="6" transform="rotate(-135 326.648 241.202)" fill="#324558"/>
<circle cx="391.701" cy="176.148" r="6" transform="rotate(-135 391.701 176.148)" fill="#324558"/>
<circle cx="403.723" cy="219.989" r="3.5" transform="rotate(-135 403.723 219.989)" fill="#324558"/>
<circle cx="371.195" cy="252.516" r="3.5" transform="rotate(-135 371.195 252.516)" fill="#324558"/>
<circle cx="315.334" cy="196.654" r="3.5" transform="rotate(-135 315.334 196.654)" fill="#324558"/>
<circle cx="347.861" cy="164.127" r="3.5" transform="rotate(-135 347.861 164.127)" fill="#324558"/>
<circle cx="359.174" cy="209.382" r="2.5" transform="rotate(-135 359.174 209.382)" fill="#324558"/>
<path d="M520.413 357.751L552.586 325.578M520.413 357.751L475.865 345.73M520.413 357.751L532.08 401.945M552.586 325.578L508.392 313.203L475.865 345.73M552.586 325.578L564.607 369.418L532.08 401.945M475.865 345.73L487.532 390.632L532.08 401.945" stroke="#324558" stroke-width="1.5"/>
<circle cx="487.533" cy="389.924" r="6" transform="rotate(-135 487.533 389.924)" fill="#324558"/>
<circle cx="476.219" cy="345.377" r="3.5" transform="rotate(-135 476.219 345.377)" fill="#324558"/>
<circle cx="508.746" cy="312.85" r="3.5" transform="rotate(-135 508.746 312.85)" fill="#324558"/>
<circle cx="520.059" cy="358.105" r="2.5" transform="rotate(-135 520.059 358.105)" fill="#324558"/>
<path d="M576.276 413.613L608.449 381.439M576.276 413.613L531.728 401.592M576.276 413.613L587.943 457.807M608.449 381.439L564.255 369.065L531.728 401.592M608.449 381.439L620.47 425.28L587.943 457.807M531.728 401.592L543.395 446.493L587.943 457.807" stroke="#324558" stroke-width="1.5"/>
<path d="M473.53 181.028L505.703 148.855M473.53 181.028L428.982 169.007M473.53 181.028L485.197 225.222M505.703 148.855L461.509 136.481L428.982 169.007M505.703 148.855L517.724 192.696L485.197 225.222M428.982 169.007L440.649 213.909L485.197 225.222" stroke="#324558" stroke-width="1.5"/>
<circle cx="440.65" cy="213.202" r="6" transform="rotate(-135 440.65 213.202)" fill="#324558"/>
<circle cx="505.703" cy="148.148" r="6" transform="rotate(-135 505.703 148.148)" fill="#324558"/>
<circle cx="517.725" cy="191.988" r="3.5" transform="rotate(-135 517.725 191.988)" fill="#324558"/>
<circle cx="485.197" cy="224.515" r="3.5" transform="rotate(-135 485.197 224.515)" fill="#324558"/>
<circle cx="429.336" cy="168.654" r="3.5" transform="rotate(-135 429.336 168.654)" fill="#324558"/>
<circle cx="461.863" cy="136.127" r="3.5" transform="rotate(-135 461.863 136.127)" fill="#324558"/>
<circle cx="473.176" cy="181.382" r="2.5" transform="rotate(-135 473.176 181.382)" fill="#324558"/>
<path d="M450.528 93.0287L482.701 60.8553M450.528 93.0287L405.98 81.0079M450.528 93.0287L462.195 137.223M482.701 60.8553L438.507 48.481L405.98 81.0079M482.701 60.8553L494.722 104.696L462.195 137.223M405.98 81.0079L417.647 125.909L462.195 137.223" stroke="#324558" stroke-width="1.5"/>
<circle cx="417.648" cy="125.202" r="6" transform="rotate(-135 417.648 125.202)" fill="#324558"/>
<circle cx="482.701" cy="60.1482" r="6" transform="rotate(-135 482.701 60.1482)" fill="#324558"/>
<circle cx="494.723" cy="103.989" r="3.5" transform="rotate(-135 494.723 103.989)" fill="#324558"/>
<circle cx="462.195" cy="136.516" r="3.5" transform="rotate(-135 462.195 136.516)" fill="#324558"/>
<circle cx="406.334" cy="80.6543" r="3.5" transform="rotate(-135 406.334 80.6543)" fill="#324558"/>
<circle cx="438.861" cy="48.1274" r="3.5" transform="rotate(-135 438.861 48.1274)" fill="#324558"/>
<circle cx="450.174" cy="93.3823" r="2.5" transform="rotate(-135 450.174 93.3823)" fill="#324558"/>
</svg>
