<svg width="489" height="430" viewBox="0 0 489 430" fill="none" xmlns="http://www.w3.org/2000/svg">
<path d="M-23.1372 478.666L-55.3106 446.493M-23.1372 478.666L21.4105 466.646M-23.1372 478.666L-34.8045 522.861M-55.3106 446.493L-11.1164 434.119L21.4105 466.646M-55.3106 446.493L-67.3314 490.334L-34.8045 522.861M21.4105 466.646L9.74322 511.547L-34.8045 522.861" stroke="#324558" stroke-width="1.5"/>
<path d="M32.7241 422.805L0.550731 390.632M32.7241 422.805L77.2718 410.784M32.7241 422.805L21.0568 466.999M0.550731 390.632L44.7449 378.257L77.2718 410.784M0.550731 390.632L-11.4701 434.472L21.0568 466.999M77.2718 410.784L65.6045 455.686L21.0568 466.999" stroke="#324558" stroke-width="1.5"/>
<circle r="6" transform="matrix(0.707107 -0.707107 -0.707107 -0.707107 0.550782 389.925)" fill="#324558"/>
<circle r="3.5" transform="matrix(0.707107 -0.707107 -0.707107 -0.707107 76.918 410.431)" fill="#324558"/>
<circle r="3.5" transform="matrix(0.707107 -0.707107 -0.707107 -0.707107 44.3906 377.904)" fill="#324558"/>
<circle r="2.5" transform="matrix(0.707107 -0.707107 -0.707107 -0.707107 33.0781 423.159)" fill="#324558"/>
<path d="M97.7788 487.859L65.6054 455.685M97.7788 487.859L142.327 475.838M97.7788 487.859L86.1115 532.053M65.6054 455.685L109.8 443.311L142.327 475.838M65.6054 455.685L53.5846 499.526L86.1115 532.053M142.327 475.838L130.659 520.739L86.1115 532.053" stroke="#324558" stroke-width="1.5"/>
<path d="M153.64 431.997L121.467 399.824M153.64 431.997L198.188 419.976M153.64 431.997L141.973 476.191M121.467 399.824L165.661 387.45L198.188 419.976M121.467 399.824L109.446 443.665L141.973 476.191M198.188 419.976L186.521 464.878L141.973 476.191" stroke="#324558" stroke-width="1.5"/>
<circle r="6" transform="matrix(0.707107 -0.707107 -0.707107 -0.707107 121.467 399.117)" fill="#324558"/>
<circle r="3.5" transform="matrix(0.707107 -0.707107 -0.707107 -0.707107 197.834 419.623)" fill="#324558"/>
<circle r="3.5" transform="matrix(0.707107 -0.707107 -0.707107 -0.707107 165.307 387.096)" fill="#324558"/>
<circle r="2.5" transform="matrix(0.707107 -0.707107 -0.707107 -0.707107 153.994 432.351)" fill="#324558"/>
<path d="M274.554 441.19L242.381 409.016M274.554 441.19L319.102 429.169M274.554 441.19L262.887 485.384M242.381 409.016L286.575 396.642L319.102 429.169M242.381 409.016L230.36 452.857L262.887 485.384M319.102 429.169L307.435 474.07L262.887 485.384" stroke="#324558" stroke-width="1.5"/>
<circle r="6" transform="matrix(0.707107 -0.707107 -0.707107 -0.707107 242.381 408.309)" fill="#324558"/>
<circle r="3.5" transform="matrix(0.707107 -0.707107 -0.707107 -0.707107 318.748 428.815)" fill="#324558"/>
<circle r="3.5" transform="matrix(0.707107 -0.707107 -0.707107 -0.707107 286.221 396.288)" fill="#324558"/>
<path d="M279.556 284.029L247.383 251.855M279.556 284.029L324.104 272.008M279.556 284.029L267.889 328.223M247.383 251.855L291.577 239.481L324.104 272.008M247.383 251.855L235.362 295.696L267.889 328.223M324.104 272.008L312.437 316.909L267.889 328.223" stroke="#324558" stroke-width="1.5"/>
<circle r="6" transform="matrix(0.707107 -0.707107 -0.707107 -0.707107 312.436 316.202)" fill="#324558"/>
<circle r="6" transform="matrix(0.707107 -0.707107 -0.707107 -0.707107 247.383 251.148)" fill="#324558"/>
<circle r="3.5" transform="matrix(0.707107 -0.707107 -0.707107 -0.707107 235.361 294.989)" fill="#324558"/>
<circle r="3.5" transform="matrix(0.707107 -0.707107 -0.707107 -0.707107 267.889 327.516)" fill="#324558"/>
<circle r="3.5" transform="matrix(0.707107 -0.707107 -0.707107 -0.707107 323.75 271.654)" fill="#324558"/>
<circle r="3.5" transform="matrix(0.707107 -0.707107 -0.707107 -0.707107 291.223 239.127)" fill="#324558"/>
<circle r="2.5" transform="matrix(0.707107 -0.707107 -0.707107 -0.707107 279.91 284.382)" fill="#324558"/>
<path d="M144.447 311.082L112.273 278.909M144.447 311.082L188.994 299.061M144.447 311.082L132.779 355.276M112.273 278.909L156.468 266.534L188.994 299.061M112.273 278.909L100.253 322.749L132.779 355.276M188.994 299.061L177.327 343.963L132.779 355.276" stroke="#324558" stroke-width="1.5"/>
<circle r="6" transform="matrix(0.707107 -0.707107 -0.707107 -0.707107 177.326 343.256)" fill="#324558"/>
<circle r="6" transform="matrix(0.707107 -0.707107 -0.707107 -0.707107 112.273 278.202)" fill="#324558"/>
<circle r="3.5" transform="matrix(0.707107 -0.707107 -0.707107 -0.707107 100.252 322.042)" fill="#324558"/>
<circle r="3.5" transform="matrix(0.707107 -0.707107 -0.707107 -0.707107 132.779 354.569)" fill="#324558"/>
<circle r="3.5" transform="matrix(0.707107 -0.707107 -0.707107 -0.707107 188.641 298.708)" fill="#324558"/>
<circle r="3.5" transform="matrix(0.707107 -0.707107 -0.707107 -0.707107 156.113 266.181)" fill="#324558"/>
<circle r="2.5" transform="matrix(0.707107 -0.707107 -0.707107 -0.707107 144.801 311.436)" fill="#324558"/>
<path d="M88.5854 366.944L56.4121 334.77M88.5854 366.944L133.133 354.923M88.5854 366.944L76.9181 411.138M56.4121 334.77L100.606 322.396L133.133 354.923M56.4121 334.77L44.3912 378.611L76.9181 411.138M133.133 354.923L121.466 399.824L76.9181 411.138" stroke="#324558" stroke-width="1.5"/>
<circle r="6" transform="matrix(0.707107 -0.707107 -0.707107 -0.707107 121.465 399.117)" fill="#324558"/>
<circle r="6" transform="matrix(0.707107 -0.707107 -0.707107 -0.707107 56.4121 334.063)" fill="#324558"/>
<circle r="3.5" transform="matrix(0.707107 -0.707107 -0.707107 -0.707107 44.3906 377.904)" fill="#324558"/>
<circle r="3.5" transform="matrix(0.707107 -0.707107 -0.707107 -0.707107 76.918 410.431)" fill="#324558"/>
<circle r="3.5" transform="matrix(0.707107 -0.707107 -0.707107 -0.707107 132.779 354.569)" fill="#324558"/>
<circle r="3.5" transform="matrix(0.707107 -0.707107 -0.707107 -0.707107 100.252 322.042)" fill="#324558"/>
<circle r="2.5" transform="matrix(0.707107 -0.707107 -0.707107 -0.707107 88.9395 367.297)" fill="#324558"/>
<path d="M23.5327 301.89L-8.64068 269.716M23.5327 301.89L68.0804 289.869M23.5327 301.89L11.8654 346.084M-8.64068 269.716L35.5535 257.342L68.0804 289.869M-8.64068 269.716L-20.6615 313.557L11.8654 346.084M68.0804 289.869L56.4131 334.77L11.8654 346.084" stroke="#324558" stroke-width="1.5"/>
<circle r="6" transform="matrix(0.707107 -0.707107 -0.707107 -0.707107 56.4121 334.063)" fill="#324558"/>
<circle r="3.5" transform="matrix(0.707107 -0.707107 -0.707107 -0.707107 11.8652 345.377)" fill="#324558"/>
<circle r="3.5" transform="matrix(0.707107 -0.707107 -0.707107 -0.707107 67.7266 289.515)" fill="#324558"/>
<circle r="3.5" transform="matrix(0.707107 -0.707107 -0.707107 -0.707107 35.1992 256.988)" fill="#324558"/>
<circle r="2.5" transform="matrix(0.707107 -0.707107 -0.707107 -0.707107 23.8867 302.243)" fill="#324558"/>
<path d="M128.556 209.029L96.3828 176.855M128.556 209.029L173.104 197.008M128.556 209.029L116.889 253.223M96.3828 176.855L140.577 164.481L173.104 197.008M96.3828 176.855L84.3619 220.696L116.889 253.223M173.104 197.008L161.437 241.909L116.889 253.223" stroke="#324558" stroke-width="1.5"/>
<circle r="6" transform="matrix(0.707107 -0.707107 -0.707107 -0.707107 161.436 241.202)" fill="#324558"/>
<circle r="6" transform="matrix(0.707107 -0.707107 -0.707107 -0.707107 96.3828 176.148)" fill="#324558"/>
<circle r="3.5" transform="matrix(0.707107 -0.707107 -0.707107 -0.707107 84.3613 219.989)" fill="#324558"/>
<circle r="3.5" transform="matrix(0.707107 -0.707107 -0.707107 -0.707107 116.889 252.516)" fill="#324558"/>
<circle r="3.5" transform="matrix(0.707107 -0.707107 -0.707107 -0.707107 172.75 196.654)" fill="#324558"/>
<circle r="3.5" transform="matrix(0.707107 -0.707107 -0.707107 -0.707107 140.223 164.127)" fill="#324558"/>
<circle r="2.5" transform="matrix(0.707107 -0.707107 -0.707107 -0.707107 128.91 209.382)" fill="#324558"/>
<path d="M-32.3286 357.751L-64.502 325.578M-32.3286 357.751L12.2191 345.73M-32.3286 357.751L-43.9959 401.945M-64.502 325.578L-20.3078 313.203L12.2191 345.73M-64.502 325.578L-76.5228 369.418L-43.9959 401.945M12.2191 345.73L0.551813 390.632L-43.9959 401.945" stroke="#324558" stroke-width="1.5"/>
<circle r="6" transform="matrix(0.707107 -0.707107 -0.707107 -0.707107 0.550782 389.924)" fill="#324558"/>
<circle r="3.5" transform="matrix(0.707107 -0.707107 -0.707107 -0.707107 11.8652 345.377)" fill="#324558"/>
<path d="M14.5542 181.028L-17.6192 148.855M14.5542 181.028L59.1019 169.007M14.5542 181.028L2.8869 225.222M-17.6192 148.855L26.575 136.481L59.1019 169.007M-17.6192 148.855L-29.64 192.696L2.8869 225.222M59.1019 169.007L47.4346 213.909L2.8869 225.222" stroke="#324558" stroke-width="1.5"/>
<circle r="6" transform="matrix(0.707107 -0.707107 -0.707107 -0.707107 47.4336 213.202)" fill="#324558"/>
<circle r="3.5" transform="matrix(0.707107 -0.707107 -0.707107 -0.707107 2.88672 224.515)" fill="#324558"/>
<circle r="3.5" transform="matrix(0.707107 -0.707107 -0.707107 -0.707107 58.748 168.654)" fill="#324558"/>
<circle r="3.5" transform="matrix(0.707107 -0.707107 -0.707107 -0.707107 26.2207 136.127)" fill="#324558"/>
<circle r="2.5" transform="matrix(0.707107 -0.707107 -0.707107 -0.707107 14.9082 181.382)" fill="#324558"/>
<path d="M37.5561 93.0287L5.38276 60.8553M37.5561 93.0287L82.1038 81.0079M37.5561 93.0287L25.8889 137.223M5.38276 60.8553L49.5769 48.481L82.1038 81.0079M5.38276 60.8553L-6.63806 104.696L25.8889 137.223M82.1038 81.0079L70.4366 125.909L25.8889 137.223" stroke="#324558" stroke-width="1.5"/>
<circle r="6" transform="matrix(0.707107 -0.707107 -0.707107 -0.707107 70.4355 125.202)" fill="#324558"/>
<circle r="6" transform="matrix(0.707107 -0.707107 -0.707107 -0.707107 5.38281 60.1482)" fill="#324558"/>
<circle r="3.5" transform="matrix(0.707107 -0.707107 -0.707107 -0.707107 25.8887 136.516)" fill="#324558"/>
<circle r="3.5" transform="matrix(0.707107 -0.707107 -0.707107 -0.707107 81.75 80.6543)" fill="#324558"/>
<circle r="3.5" transform="matrix(0.707107 -0.707107 -0.707107 -0.707107 49.2227 48.1274)" fill="#324558"/>
<circle r="2.5" transform="matrix(0.707107 -0.707107 -0.707107 -0.707107 37.9102 93.3823)" fill="#324558"/>
</svg>
