<svg width="86" height="86" viewBox="0 0 86 86" fill="none" xmlns="http://www.w3.org/2000/svg">
<path d="M34.6156 12.0048C34.4137 12.0433 34.2318 12.152 34.1022 12.3115C33.9725 12.4711 33.9034 12.6713 33.9071 12.8769V29.4457H30.4187C30.2488 29.447 30.083 29.4978 29.9416 29.5921C29.8003 29.6863 29.6895 29.8197 29.6229 29.976C29.5564 30.1323 29.5369 30.3046 29.5669 30.4718C29.5969 30.639 29.6751 30.7938 29.7919 30.9172L34.1523 35.2774L37.6407 38.7656C37.722 38.8497 37.8194 38.9165 37.9271 38.9621C38.0348 39.0078 38.1506 39.0313 38.2675 39.0313C38.3845 39.0313 38.5002 39.0078 38.6079 38.9621C38.7156 38.9165 38.813 38.8497 38.8943 38.7656L42.3827 35.2774L46.7432 30.9172C46.8599 30.7938 46.9381 30.639 46.9681 30.4718C46.9982 30.3046 46.9787 30.1323 46.9121 29.976C46.8455 29.8197 46.7348 29.6863 46.5934 29.5921C46.452 29.4978 46.2862 29.447 46.1163 29.4457H42.628V12.8769C42.628 12.6456 42.5361 12.4238 42.3725 12.2603C42.209 12.0967 41.9872 12.0048 41.7559 12.0048H38.2675H34.7792C34.7248 11.9997 34.67 11.9997 34.6156 12.0048ZM35.6512 13.7489H38.2675H40.8838V30.3177C40.8838 30.549 40.9757 30.7708 41.1393 30.9343C41.3028 31.0979 41.5246 31.1897 41.7559 31.1898H43.9906L41.1291 34.0512L38.2675 36.9125L35.406 34.0512L32.5444 31.1898H34.7792C35.0104 31.1897 35.2322 31.0979 35.3958 30.9343C35.5593 30.7708 35.6512 30.549 35.6512 30.3177V13.7489ZM57.2628 15.493C57.0966 15.5304 56.945 15.6157 56.8267 15.7382L53.3384 19.2265L48.9779 23.5866C48.8517 23.7086 48.7653 23.8658 48.7299 24.0377C48.6945 24.2096 48.7118 24.3881 48.7795 24.55C48.8472 24.7119 48.9622 24.8497 49.1094 24.9452C49.2567 25.0407 49.4293 25.0896 49.6047 25.0854H53.0931V41.6543C53.0931 41.8855 53.185 42.1073 53.3485 42.2709C53.5121 42.4344 53.7339 42.5263 53.9652 42.5263H57.4535H60.9419C61.1732 42.5263 61.395 42.4344 61.5585 42.2709C61.7221 42.1073 61.814 41.8855 61.814 41.6543V25.0854H65.3024C65.4778 25.0896 65.6504 25.0407 65.7976 24.9452C65.9448 24.8497 66.0598 24.7119 66.1275 24.55C66.1952 24.3881 66.2125 24.2096 66.1771 24.0377C66.1417 23.8658 66.0553 23.7086 65.9292 23.5866L61.5687 19.2265L58.0803 15.7382C57.9765 15.6307 57.8468 15.5517 57.7036 15.5088C57.5604 15.4658 57.4086 15.4604 57.2628 15.493ZM57.4535 17.5913L60.3151 20.4527L63.2039 23.3414H60.9419C60.7106 23.3414 60.4888 23.4333 60.3253 23.5968C60.1617 23.7603 60.0698 23.9821 60.0698 24.2134V40.7822H57.4535H54.8373V24.2134C54.8372 23.9821 54.7453 23.7603 54.5818 23.5968C54.4183 23.4333 54.1965 23.3414 53.9652 23.3414H51.7032L54.592 20.4527L57.4535 17.5913ZM6.70871 39.1424C6.50675 39.1809 6.3249 39.2896 6.19525 39.4491C6.06561 39.6087 5.9965 39.8089 6.00014 40.0145V71.4079C6.00015 71.6392 6.09203 71.861 6.25557 72.0245C6.41912 72.1881 6.64093 72.28 6.87223 72.28H19.0815C19.3128 72.28 19.5346 72.1881 19.6982 72.0245C19.8617 71.861 19.9536 71.6392 19.9536 71.4079V64.3499C23.1556 66.6157 25.7258 68.8365 28.8925 70.6177C32.4937 72.6432 36.8431 74.024 43.5001 74.0241C50.3703 74.0241 58.7086 70.2384 65.4114 66.5028C72.0831 62.7842 77.0835 59.0703 77.1301 59.0359L77.1573 59.0089C78.4637 58.137 79.4162 57.4491 80.0734 56.529C80.7372 55.5998 81 54.5003 81 53.0953C81 52.0053 80.5567 51.0812 79.9099 50.452C79.2631 49.8227 78.4406 49.4423 77.6479 49.1984C76.0625 48.7105 74.4593 48.7351 74.0233 48.7351C72.1339 48.7351 69.9433 49.667 68.1094 50.5609C66.4321 51.3786 65.3283 52.0351 65.1116 52.1688C64.6598 49.7407 62.6264 47.8631 60.0698 47.8631H43.8271C39.1417 43.4803 30.4676 42.6716 19.9536 42.6308V40.0147C19.9536 39.7834 19.8617 39.5617 19.6982 39.3981C19.5346 39.2346 19.3128 39.1427 19.0815 39.1426H6.87223C6.81784 39.1375 6.7631 39.1373 6.70871 39.1424ZM7.74432 40.8865H18.2094V43.4209C18.2081 43.4482 18.2081 43.4755 18.2094 43.5028V62.6878C18.2071 62.7241 18.2071 62.7605 18.2094 62.7968V70.5361H7.74432V40.8865ZM19.9536 44.4019C30.5547 44.4577 39.0059 45.4673 42.8733 49.3344C42.954 49.4197 43.0511 49.4878 43.1589 49.5347C43.2666 49.5815 43.3826 49.6061 43.5001 49.6069H60.0698C62.0174 49.6069 63.5582 51.1476 63.5582 53.0951C63.5582 55.0427 62.0174 56.5832 60.0698 56.5832H34.7792C34.6636 56.5817 34.5489 56.603 34.4417 56.6462C34.3345 56.6893 34.237 56.7533 34.1547 56.8344C34.0725 56.9156 34.0072 57.0122 33.9626 57.1188C33.918 57.2254 33.8951 57.3397 33.8951 57.4553C33.8951 57.5708 33.918 57.6852 33.9626 57.7918C34.0072 57.8984 34.0725 57.9951 34.1547 58.0762C34.237 58.1573 34.3345 58.2213 34.4417 58.2644C34.5489 58.3075 34.6636 58.329 34.7792 58.3274H60.0698C62.6521 58.3274 64.7168 56.4041 65.1388 53.9399C65.354 53.9838 65.5779 53.9448 65.7657 53.8309C65.7657 53.8309 67.1287 52.9641 68.8725 52.114C70.6163 51.264 72.7817 50.479 74.0233 50.479C74.4593 50.479 75.9084 50.479 77.1573 50.8605C77.7818 51.0526 78.3219 51.3535 78.6835 51.7053C79.0451 52.0572 79.2558 52.4411 79.2558 53.0951C79.2558 54.3063 79.0826 54.9237 78.6563 55.5204C78.2299 56.1174 77.4385 56.7319 76.149 57.5915C76.1397 57.6004 76.1306 57.6094 76.1217 57.6186C76.1217 57.6186 71.1358 61.2998 64.5393 64.9765C57.9427 68.653 49.7113 72.2798 43.5001 72.2798C37.0757 72.2798 33.1402 71.0173 29.7646 69.1187C26.5094 67.2878 23.7204 64.7823 19.9536 62.2242V44.4019Z" fill="#29D1DC"/>
</svg>
