<svg width="58" height="58" viewBox="0 0 58 58" fill="none" xmlns="http://www.w3.org/2000/svg">
<path d="M28.901 20.7337C28.3123 20.7337 27.8344 20.2558 27.8344 19.667V17.3337C27.8344 16.7449 28.3123 16.267 28.901 16.267C29.4898 16.267 29.9677 16.7449 29.9677 17.3337V19.667C29.9677 20.2559 29.492 20.7337 28.901 20.7337Z" fill="#08A0AB" stroke="#0B1C2C" stroke-width="0.2"/>
<path d="M28.901 41.7337C28.3124 41.7337 27.8344 41.2536 27.8344 40.667V38.3337C27.8344 37.7471 28.3124 37.267 28.901 37.267C29.4897 37.267 29.9677 37.7471 29.9677 38.3337V40.667C29.9677 41.2537 29.4919 41.7337 28.901 41.7337Z" fill="#08A0AB" stroke="#0B1C2C" stroke-width="0.2"/>
<path d="M27.7273 29.5637L27.7274 29.5638L29.3326 30.3593L27.7273 29.5637ZM27.7273 29.5637C26.3148 28.8662 25.118 28.2745 24.2709 27.4563C23.431 26.6452 22.932 25.6078 22.932 24.0067C22.932 22.4288 23.5401 21.1146 24.5978 20.1936C25.6568 19.2716 27.1736 18.7377 28.999 18.7377C30.8031 18.7377 32.3023 19.2714 33.3491 20.1932C34.3947 21.1141 34.996 22.4284 34.996 24.0067C34.996 24.5953 34.5159 25.0734 33.9294 25.0734C33.3406 25.0734 32.8627 24.5955 32.8627 24.0067C32.8627 23.2846 32.6777 22.7228 32.3813 22.2879C32.0854 21.8538 31.6826 21.5521 31.2556 21.3429C30.4043 20.926 29.4451 20.871 28.999 20.871C28.0607 20.871 27.0809 21.0727 26.3324 21.5662C25.5788 22.0631 25.0654 22.8528 25.0654 24.0067C25.0654 24.447 25.1082 24.8108 25.2221 25.1301C25.3366 25.4511 25.5209 25.7215 25.7953 25.9782C26.3372 26.4851 27.2407 26.9458 28.6701 27.65C28.6701 27.65 28.6701 27.6501 28.6702 27.6501L30.2752 28.4479L30.2754 28.448M27.7273 29.5637L30.2754 28.448M30.2754 28.448C31.6856 29.1443 32.8806 29.7349 33.7266 30.5522C34.5653 31.3624 35.0637 32.3993 35.0637 34.0004V34.0004M30.2754 28.448L35.0637 34.0004M35.0637 34.0004C35.0648 35.5675 34.4576 36.8735 33.4002 37.7891C32.3415 38.7057 30.8246 39.2367 28.999 39.2367C27.1735 39.2367 25.6566 38.7057 24.5976 37.789M35.0637 34.0004L24.5976 37.789M24.5976 37.789C23.5399 36.8735 22.932 35.5675 22.932 34.0004M24.5976 37.789L22.932 34.0004M22.932 34.0004C22.932 33.416 23.4102 32.9337 23.9987 32.9337M22.932 34.0004L23.9987 32.9337M23.9987 32.9337C24.5872 32.9337 25.0654 33.416 25.0654 34.0004M23.9987 32.9337L25.0654 34.0004M25.0654 34.0004C25.0654 34.7149 25.2541 35.271 25.5562 35.7014M25.0654 34.0004L25.5562 35.7014M25.5562 35.7014C25.8577 36.1309 26.2679 36.4292 26.7023 36.636M25.5562 35.7014L26.7023 36.636M26.7023 36.636C27.5687 37.0484 28.545 37.1034 28.999 37.1034M26.7023 36.636L28.999 37.1034M28.999 37.1034C29.4531 37.1034 30.4294 37.0484 31.2957 36.636M28.999 37.1034L31.2957 36.636M31.2957 36.636C31.7302 36.4292 32.1404 36.1309 32.4419 35.7014M31.2957 36.636L32.4419 35.7014M32.4419 35.7014C32.744 35.271 32.9327 34.7149 32.9327 34.0004M32.4419 35.7014L32.9327 34.0004M32.9327 34.0004C32.9327 33.5606 32.8901 33.1973 32.7767 32.8784M32.9327 34.0004L32.7767 32.8784M32.7767 32.8784C32.6627 32.5577 32.479 32.2875 32.2052 32.031M32.7767 32.8784L32.2052 32.031M32.2052 32.031C31.6644 31.5244 30.7621 31.0636 29.3328 30.3594L32.2052 32.031Z" fill="#08A0AB" stroke="#0B1C2C" stroke-width="0.2"/>
<path d="M55.7833 29C55.7833 14.2324 43.7651 2.21667 29 2.21667C14.2325 2.21667 2.21667 14.2325 2.21667 29C2.21667 43.77 14.2325 55.7833 29 55.7833C43.7651 55.7833 55.7833 43.77 55.7833 29ZM0.2 29C0.2 13.0952 13.0952 0.2 29 0.2C44.9048 0.2 57.8 13.0952 57.8 29C57.8 44.9048 44.9048 57.8 29 57.8C13.0952 57.8 0.2 44.9048 0.2 29Z" fill="#08A0AB" stroke="#0B1C2C" stroke-width="0.4"/>
<path d="M47.7667 29C47.7667 18.6524 39.3476 10.2333 29 10.2333C18.6524 10.2333 10.2333 18.6524 10.2333 29C10.2333 39.3476 18.6524 47.7667 29 47.7667C39.3476 47.7667 47.7667 39.3476 47.7667 29ZM8.1 29C8.1 17.4562 17.4562 8.1 29 8.1C40.5438 8.1 49.9 17.4562 49.9 29C49.9 40.5438 40.5438 49.9 29 49.9C17.4562 49.9 8.1 40.5438 8.1 29Z" fill="#08A0AB" stroke="#0B1C2C" stroke-width="0.2"/>
</svg>
