<svg width="42" height="42" viewBox="0 0 42 42" fill="none" xmlns="http://www.w3.org/2000/svg">
<path d="M33.8617 20.8687C33.8617 20.8359 33.8617 20.8359 33.8617 20.8031C33.8617 20.7703 33.8617 20.7703 33.8289 20.7375C33.8289 20.7047 33.8289 20.7047 33.8289 20.6719C33.8289 20.6391 33.7961 20.6391 33.7961 20.6062C33.7961 20.6062 33.7961 20.5734 33.7633 20.5734L21.557 0.328125C21.5242 0.295312 21.4914 0.229688 21.4586 0.196875C21.4586 0.196875 21.4586 0.196875 21.4258 0.196875C21.393 0.164062 21.3602 0.13125 21.3273 0.13125C21.3273 0.13125 21.2945 0.13125 21.2945 0.0984375C21.2617 0.065625 21.2289 0.065625 21.1961 0.065625H21.1633C21.0977 0 21.0648 0 20.9992 0C20.9336 0 20.9008 0 20.8352 0.0328125H20.8023C20.7695 0.0328125 20.7367 0.065625 20.7039 0.065625C20.7039 0.065625 20.6711 0.065625 20.6711 0.0984375C20.6383 0.13125 20.6055 0.13125 20.5727 0.164062C20.5727 0.164062 20.5727 0.164062 20.5398 0.164062C20.507 0.196875 20.4742 0.229687 20.4414 0.295312L8.23516 20.5734C8.23516 20.5734 8.23516 20.6062 8.20234 20.6062C8.20234 20.6391 8.16953 20.6391 8.16953 20.6719C8.16953 20.7047 8.16953 20.7047 8.16953 20.7375C8.16953 20.7703 8.16953 20.7703 8.13672 20.8031C8.13672 20.8359 8.13672 20.8359 8.13672 20.8687C8.13672 20.9016 8.13672 20.9016 8.13672 20.9344C8.13672 20.9672 8.13672 20.9672 8.13672 21C8.13672 21.0328 8.13672 21.0328 8.13672 21.0656C8.13672 21.0984 8.13672 21.0984 8.16953 21.1313V21.1641C8.20234 21.2297 8.23516 21.2625 8.26797 21.2953L8.30078 21.3281C8.33359 21.3609 8.36641 21.3938 8.39922 21.4266C8.39922 21.4266 8.43203 21.4266 8.43203 21.4594L20.6711 28.6125C20.6711 28.6125 20.6711 28.6125 20.7039 28.6125C20.7367 28.6453 20.7695 28.6453 20.8023 28.6453H20.8352C20.9008 28.6453 20.9336 28.6781 20.9992 28.6781C21.0648 28.6781 21.0977 28.6781 21.1633 28.6453H21.1961C21.2289 28.6453 21.2617 28.6125 21.2945 28.6125C21.2945 28.6125 21.2945 28.6125 21.3273 28.6125L33.5336 21.4922C33.5664 21.4922 33.5664 21.4594 33.5992 21.4594L33.632 21.4266C33.6648 21.3938 33.6648 21.3937 33.6977 21.3609L33.7305 21.3281C33.7305 21.2953 33.7633 21.2953 33.7633 21.2625C33.7633 21.2297 33.7961 21.2297 33.7961 21.1969C33.7961 21.1641 33.7961 21.1641 33.8289 21.1313C33.8289 21.0984 33.8289 21.0984 33.8617 21.0656C33.8617 21.0328 33.8617 21 33.8617 21C33.8617 20.9672 33.8617 20.9672 33.8617 20.9344C33.8617 20.9344 33.8617 20.9016 33.8617 20.8687ZM20.343 14.9625L10.4664 19.4578L20.343 3.01875V14.9625ZM20.343 16.4062V26.9062L10.2367 21L20.343 16.4062ZM21.6555 16.4062L31.7617 21L21.6555 26.9062V16.4062ZM21.6555 14.9625V3.01875L31.532 19.4578L21.6555 14.9625Z" fill="#2ACCD7"></path>
<path d="M32.8437 23.6248L20.9984 30.7451L9.15309 23.6248C8.89059 23.4608 8.52965 23.5264 8.33278 23.7561C8.1359 23.9858 8.10309 24.3139 8.26716 24.5764L20.4734 41.7045C20.4734 41.7045 20.4734 41.7045 20.5062 41.7373C20.539 41.7701 20.539 41.803 20.5718 41.803L20.6047 41.8358C20.6375 41.8686 20.6703 41.8686 20.6703 41.9014C20.6703 41.9014 20.7031 41.9014 20.7031 41.9342C20.7359 41.9342 20.7687 41.967 20.8015 41.967H20.8343C20.8672 41.967 20.9328 41.9998 20.9656 41.9998C21.0312 41.9998 21.064 41.9998 21.0968 41.967H21.1297C21.1625 41.967 21.1953 41.9342 21.2281 41.9342C21.2281 41.9342 21.2609 41.9342 21.2609 41.9014C21.2937 41.9014 21.3265 41.8686 21.3265 41.8358L21.3593 41.803C21.3922 41.7701 21.425 41.7373 21.425 41.7373C21.425 41.7373 21.425 41.7373 21.4578 41.7045L33.664 24.5764C33.8281 24.3139 33.8281 23.9858 33.5984 23.7561C33.3687 23.5264 33.139 23.4936 32.8437 23.6248ZM20.3422 31.8608V39.2764L11.1547 26.3811L20.3422 31.8608ZM21.6547 39.2764V31.8608L30.8422 26.3483L21.6547 39.2764Z" fill="#2ACCD7"></path>
</svg>
