<svg width="86" height="86" viewBox="0 0 86 86" fill="none" xmlns="http://www.w3.org/2000/svg">
<path fill-rule="evenodd" clip-rule="evenodd" d="M75.3488 68H64.3196C64.3654 68.0544 64.4071 68.1126 64.4439 68.1741L68.0336 77.3372C68.1281 77.6206 68.1281 77.9985 67.9391 78.2819C67.7502 78.5653 67.3723 78.7542 67.0889 78.7542H18.9116C18.5337 78.7542 18.2504 78.5653 18.0614 78.2819C17.8725 77.9985 17.778 77.6206 17.967 77.3372L21.5566 68.1741C21.5771 68.1126 21.6032 68.0544 21.6341 68H10.6516C6.96743 68 4.00214 65.0092 4.00214 61.2934V51.3243L3.99609 51.3161L4.00214 51.3117V15.7066C3.91228 11.9908 6.96743 9 10.6516 9H75.3488C79.033 9 81.9983 11.9908 81.9983 15.7066V61.2934C82.0881 65.0092 79.033 68 75.3488 68ZM5.979 49.8549V15.7972C5.979 13.169 8.04572 11.0845 10.6516 11.0845V10.9939H75.3488C77.9547 10.9939 80.0214 13.0783 80.0214 15.7066V28.4691L72.7173 31.3095C72.176 28.928 70.0457 27.1504 67.5003 27.1504C64.8612 27.1504 62.6685 29.0613 62.2301 31.5749L53.8049 29.8011C53.4623 27.1768 51.2179 25.1504 48.5002 25.1504C45.5454 25.1504 43.1502 27.5457 43.1502 30.5004C43.1502 31.2168 43.291 31.9003 43.5464 32.5248L38.8556 42.333C37.9379 41.5933 36.7708 41.1504 35.5003 41.1504C33.4458 41.1504 31.6617 42.3085 30.7654 44.0076L23.5521 42.7346C22.8228 40.6473 20.8363 39.15 18.5002 39.15C15.5455 39.15 13.1502 41.5453 13.1502 44.5C13.1502 44.5109 13.1503 44.5218 13.1503 44.5327C13.1504 44.5453 13.1505 44.5578 13.1507 44.5703L5.979 49.8549ZM5.979 51.9666V61.384C5.979 64.0123 8.04572 66.0968 10.6516 66.0968H17.6503V49.7829C15.7473 49.4791 14.1791 48.1718 13.5053 46.4206L5.979 51.9666ZM19.3503 66.0968H35.1503V51.8391C32.3587 51.6589 30.1503 49.3375 30.1503 46.5004C30.1503 46.2066 30.174 45.9184 30.2196 45.6375L23.8502 44.5135C23.8436 47.1729 21.8967 49.3763 19.3503 49.7828V66.0968ZM36.8503 66.0968H48.1503V35.8391C46.769 35.75 45.5305 35.1366 44.6316 34.1959L40.0746 43.7243C40.5668 44.5336 40.8503 45.4839 40.8503 46.5004C40.8503 48.9888 39.1515 51.0804 36.8503 51.6786V66.0968ZM49.8503 66.0968H66.6503V37.7832C64.3623 37.418 62.5583 35.602 62.2109 33.3081L53.7517 31.5272C53.3586 33.5494 51.8266 35.1647 49.8503 35.6786V66.0968ZM68.3503 66.0968V37.7832C70.7089 37.4067 72.5532 35.4887 72.8177 33.0945L80.0214 30.2931V61.384C80.0214 64.0123 77.9547 66.0968 75.3488 66.0968H68.3503ZM23.484 68H62.6104C62.4135 68.2901 62.3378 68.6572 62.4601 69.0243L65.483 76.7704H20.5175L23.5404 69.0243C23.7153 68.6744 23.6743 68.2885 23.484 68ZM48.5002 26.8504C46.4843 26.8504 44.8502 28.4846 44.8502 30.5004C44.8502 32.5162 46.4843 34.1504 48.5002 34.1504C50.516 34.1504 52.1502 32.5162 52.1502 30.5004C52.1502 28.4846 50.516 26.8504 48.5002 26.8504ZM14.8502 44.5C14.8502 42.4842 16.4844 40.85 18.5002 40.85C20.5161 40.85 22.1502 42.4842 22.1502 44.5C22.1502 46.5158 20.5161 48.15 18.5002 48.15C16.4844 48.15 14.8502 46.5158 14.8502 44.5ZM31.8503 46.5004C31.8503 44.4846 33.4845 42.8504 35.5003 42.8504C37.5162 42.8504 39.1503 44.4846 39.1503 46.5004C39.1503 48.5162 37.5162 50.1504 35.5003 50.1504C33.4845 50.1504 31.8503 48.5162 31.8503 46.5004ZM63.8503 32.5004C63.8503 30.4846 65.4845 28.8504 67.5003 28.8504C69.5162 28.8504 71.1503 30.4846 71.1503 32.5004C71.1503 34.5162 69.5162 36.1504 67.5003 36.1504C65.4845 36.1504 63.8503 34.5162 63.8503 32.5004Z" fill="#29D1DC"/>
</svg>
