<svg width="46" height="46" viewBox="0 0 46 46" fill="none" xmlns="http://www.w3.org/2000/svg">
<path d="M41.416 35.375C41.291 35.2188 41.1035 35.125 40.916 35.125H21.8223L24.041 26.75L29.6973 24.6875C29.8848 24.625 30.041 24.4688 30.0723 24.25L31.5723 18.6875C31.6035 18.5625 31.6035 18.4375 31.541 18.3125L31.4785 18.1875C31.3535 17.875 31.0098 17.6875 30.666 17.8125L25.916 19.5312L29.8535 4.78125C29.916 4.59375 29.8535 4.40625 29.7598 4.25C29.6348 4.09375 29.4473 4 29.2598 4H17.291C17.0098 4 16.7598 4.1875 16.6973 4.46875L11.2285 24.9062L6.91602 26.4688C6.72852 26.5312 6.57227 26.6875 6.54102 26.9062L5.00977 32.6562C4.94727 32.875 5.00977 33.125 5.19727 33.2812C5.35352 33.4375 5.60352 33.5 5.82227 33.4062L9.32227 32.125L6.38477 43.2188C6.32227 43.4062 6.38477 43.5938 6.47852 43.75C6.60352 43.9062 6.79102 44 6.97852 44H38.8848C39.166 44 39.416 43.8125 39.4785 43.5312L41.5098 35.9062C41.5723 35.7188 41.5098 35.5312 41.416 35.375ZM38.3848 42.75H7.79102L10.8535 31.2812C10.916 31.0625 10.8535 30.8125 10.666 30.6562C10.4785 30.5 10.2598 30.4375 10.041 30.5312L6.50977 31.8125L7.63477 27.5312L11.9473 25.9688C12.1348 25.9062 12.291 25.75 12.3223 25.5312L17.7598 5.25H28.4473L24.4473 20.375C24.3848 20.5938 24.4473 20.8438 24.6348 21C24.8223 21.1562 25.041 21.2188 25.2598 21.125L30.1035 19.3438L28.9785 23.625L23.3223 25.6875C23.1348 25.75 22.9785 25.9063 22.9473 26.125L20.416 35.5938C20.3535 35.7812 20.416 35.9688 20.5098 36.125C20.6348 36.2812 20.8223 36.375 21.0098 36.375H40.1035L38.3848 42.75Z" fill="#2ACCD7"/>
</svg>
