<svg width="469" height="711" viewBox="0 0 469 711" fill="none" xmlns="http://www.w3.org/2000/svg">
<path d="M88.5 284V210.5L69 191.5V60" stroke="#08A0AB" stroke-width="2"/>
<g opacity="0.6">
<path d="M114 405V469.5M87 405V469.5M87 493.5L118.5 525H153.5M87 493.5V469.5M87 493.5V563.5L114 590.5V699.5M134 84V158.5M134 195V210.5L111 236V278.5M134 195L162 167V111L186 87V45.5M134 195V158.5M134 158.5L109 133.5C109 133.5 109 40.4756 109 6.5M156 346.5H175.5M175.5 346.5H195L216.5 368H229.5L261.5 336H361M175.5 346.5L249.5 420.5H372.5M137.5 388V431L161 454.5M292.5 500.5H243L220.5 478H184.5L161 454.5M161 454.5H243M192.75 235.5H175.5L137.5 273.5V307M192.75 235.5L210 252.75H289M192.75 235.5H216.625M240.5 235.5H216.625M216.625 235.5L265.5 186.625H382M210 525H153.5M87 469.5L63 493.5V632.5M153.5 525L210 581.5H322" stroke="#08A0AB" stroke-width="2"/>
<circle cx="381.5" cy="186.5" r="5.5" transform="rotate(-180 381.5 186.5)" fill="#08A0AB" stroke="#08A0AB" stroke-width="2"/>
<circle cx="242.5" cy="234.5" r="5.5" transform="rotate(-180 242.5 234.5)" fill="#08A0AB" stroke="#08A0AB" stroke-width="2"/>
<circle cx="186.5" cy="44.5" r="5.5" transform="rotate(-180 186.5 44.5)" fill="#08A0AB" stroke="#08A0AB" stroke-width="2"/>
<circle cx="133.5" cy="81.5" r="5.5" transform="rotate(-180 133.5 81.5)" fill="#08A0AB" stroke="#08A0AB" stroke-width="2"/>
<circle cx="108.5" cy="6.5" r="5.5" transform="rotate(-180 108.5 6.5)" fill="#08A0AB" stroke="#08A0AB" stroke-width="2"/>
<circle cx="69.5" cy="55.5" r="5.5" transform="rotate(-180 69.5 55.5)" fill="#08A0AB" stroke="#08A0AB" stroke-width="2"/>
<circle cx="63.5" cy="633.5" r="5.5" transform="rotate(-180 63.5 633.5)" fill="#08A0AB" stroke="#08A0AB" stroke-width="2"/>
<circle cx="113.5" cy="471.5" r="5.5" transform="rotate(-180 113.5 471.5)" fill="#08A0AB" stroke="#08A0AB" stroke-width="2"/>
<circle cx="113.5" cy="704.5" r="5.5" transform="rotate(-180 113.5 704.5)" fill="#08A0AB" stroke="#08A0AB" stroke-width="2"/>
<circle cx="209.5" cy="525.5" r="5.5" transform="rotate(-180 209.5 525.5)" fill="#08A0AB" stroke="#08A0AB" stroke-width="2"/>
<circle cx="320.5" cy="582.5" r="5.5" transform="rotate(-180 320.5 582.5)" fill="#08A0AB" stroke="#08A0AB" stroke-width="2"/>
<circle cx="242.5" cy="454.5" r="5.5" transform="rotate(-180 242.5 454.5)" fill="#08A0AB" stroke="#08A0AB" stroke-width="2"/>
</g>
<g filter="url(#filter0_d)">
<rect width="77.8247" height="77.8247" transform="matrix(0.866025 0.5 -0.866025 0.5 97.6875 346.688)" fill="#122333"/>
</g>
<rect width="77.8247" height="77.8247" transform="matrix(0.866025 0.5 -2.20305e-08 1 30.2891 307.776)" fill="#2FCCD7"/>
<rect width="77.8247" height="77.8247" transform="matrix(0.866025 -0.5 2.20305e-08 1 97.5605 346.688)" fill="url(#paint0_linear)"/>
<rect width="77.8247" height="77.8247" transform="matrix(0.866025 0.5 -0.866025 0.5 97.6875 268.863)" fill="url(#paint1_linear)"/>
<rect x="283" y="391" width="186" height="58" rx="3" fill="#0B1C2C"/>
<path d="M330.503 417.913H330.515H330.503ZM330.503 417.913H330.492M330.503 417.913H330.492M330.492 417.913H330.48M330.492 417.913H330.48M330.48 417.913H330.469M330.48 417.913H330.469M330.469 417.913H330.458M330.469 417.913H330.458M330.458 417.913H330.446M330.458 417.913H330.446M330.446 417.913H330.435M330.446 417.913H330.435M330.435 417.913H330.423M330.435 417.913H330.423M330.423 417.913H330.412M330.423 417.913H330.412M330.412 417.913H330.4M330.412 417.913H330.4M330.4 417.913H330.389M330.4 417.913H330.389M330.389 417.913H330.378M330.389 417.913H330.378M330.378 417.913H330.366M330.378 417.913H330.366M330.366 417.913H330.355M330.366 417.913H330.355M330.355 417.913H330.343M330.355 417.913H330.343M330.343 417.913H330.332M330.343 417.913H330.332M330.332 417.913H330.321M330.332 417.913H330.321M330.321 417.913H330.309M330.321 417.913H330.309M330.309 417.913H330.298M330.309 417.913H330.298M330.298 417.913H330.286M330.298 417.913H330.286M330.286 417.913H330.275M330.286 417.913H330.275M330.275 417.913H330.264M330.275 417.913H330.264M330.264 417.913H330.252M330.264 417.913H330.252M330.252 417.913H330.241M330.252 417.913H330.241M330.241 417.913H330.229M330.241 417.913H330.229M330.229 417.913H330.218M330.229 417.913H330.218M330.218 417.913H330.207M330.218 417.913H330.207M330.207 417.913H330.195M330.207 417.913H330.195M330.195 417.913H330.184M330.195 417.913H330.184M330.184 417.913H330.172M330.184 417.913H330.172M330.172 417.913H330.161M330.172 417.913H330.161M330.161 417.913H330.15M330.161 417.913H330.15M330.15 417.913H330.138M330.15 417.913H330.138M330.138 417.913H330.127M330.138 417.913H330.127M330.127 417.913H330.116M330.127 417.913H330.116M330.116 417.913H330.104M330.116 417.913H330.104M330.104 417.913H330.093M330.104 417.913H330.093M330.093 417.913H330.081M330.093 417.913H330.081M330.081 417.913H330.07M330.081 417.913H330.07M330.07 417.913H330.059M330.07 417.913H330.059M330.059 417.913H330.047M330.059 417.913H330.047M330.047 417.913H330.036M330.047 417.913H330.036M330.036 417.913H330.025M330.036 417.913H330.025M330.025 417.913H330.013M330.025 417.913H330.013M330.013 417.913H330.002M330.013 417.913H330.002M330.002 417.913H329.991M330.002 417.913H329.991M329.991 417.913H329.979M329.991 417.913H329.979M329.979 417.913H329.968M329.979 417.913H329.968M329.968 417.913H329.956M329.968 417.913H329.956M329.956 417.913H329.945M329.956 417.913H329.945M329.945 417.913H329.934M329.945 417.913H329.934M329.934 417.913H329.922M329.934 417.913H329.922M329.922 417.913H329.911M329.922 417.913H329.911M329.911 417.913H329.9M329.911 417.913H329.9M329.9 417.913H329.888M329.9 417.913H329.888M329.888 417.913H329.877M329.888 417.913H329.877M329.877 417.913H329.866M329.877 417.913H329.866M329.866 417.913H329.854M329.866 417.913H329.854M329.854 417.913H329.843M329.854 417.913H329.843M329.843 417.913H329.832M329.843 417.913H329.832M329.832 417.913H329.82M329.832 417.913H329.82M329.82 417.913H329.809M329.82 417.913H329.809M329.809 417.913H329.798M329.809 417.913H329.798M329.798 417.913H329.786M329.798 417.913H329.786M329.786 417.913H329.775M329.786 417.913H329.775M329.775 417.913H329.764M329.775 417.913H329.764M329.764 417.913H329.752M329.764 417.913H329.752M329.752 417.913H329.741M329.752 417.913H329.741M329.741 417.913H329.73M329.741 417.913H329.73M329.73 417.913H329.718M329.73 417.913H329.718M329.718 417.913H329.707M329.718 417.913H329.707M329.707 417.913H329.696M329.707 417.913H329.696M329.696 417.913H329.684M329.696 417.913H329.684M329.684 417.913H329.673M329.684 417.913H329.673M329.673 417.913H329.662M329.673 417.913H329.662M329.662 417.913H329.651M329.662 417.913H329.651M329.651 417.913H329.639M329.651 417.913H329.639M329.639 417.913H329.628M329.639 417.913H329.628M329.628 417.913H329.617M329.628 417.913H329.617M329.617 417.913H329.605M329.617 417.913H329.605M329.605 417.913H329.594M329.605 417.913H329.594M329.594 417.913H329.583M329.594 417.913H329.583M329.583 417.913H329.571M329.583 417.913H329.571M329.571 417.913H329.56M329.571 417.913H329.56M329.56 417.913H329.549M329.56 417.913H329.549M329.549 417.913H329.538M329.549 417.913H329.538M329.538 417.913H329.526M329.538 417.913H329.526M329.526 417.913H329.515M329.526 417.913H329.515M329.515 417.913H329.504M329.515 417.913H329.504M329.504 417.913H329.492M329.504 417.913H329.492M329.492 417.913H329.481M329.492 417.913H329.481M329.481 417.913H329.47M329.481 417.913H329.47M329.47 417.913H329.458M329.47 417.913H329.458M329.458 417.913H329.447M329.458 417.913H329.447M329.447 417.913H329.436M329.447 417.913H329.436M329.436 417.913H329.425M329.436 417.913H329.425M329.425 417.913H329.413M329.425 417.913H329.413M329.413 417.913H329.402M329.413 417.913H329.402M329.402 417.913H329.391M329.402 417.913H329.391M329.391 417.913H329.379M329.391 417.913H329.379M329.379 417.913H329.368M329.379 417.913H329.368M329.368 417.913H329.357M329.368 417.913H329.357M329.357 417.913H329.346M329.357 417.913H329.346M329.346 417.913H329.334M329.346 417.913H329.334M329.334 417.913H329.323M329.334 417.913H329.323M329.323 417.913H329.312M329.323 417.913H329.312M329.312 417.913H329.301M329.312 417.913H329.301M329.301 417.913H329.289M329.301 417.913H329.289M329.289 417.913H329.278M329.289 417.913H329.278M329.278 417.913H329.267M329.278 417.913H329.267M329.267 417.913H329.256M329.267 417.913H329.256M329.256 417.913H329.244M329.256 417.913H329.244M329.244 417.913H329.233M329.244 417.913H329.233M329.233 417.913H329.222M329.233 417.913H329.222M329.222 417.913H329.21M329.222 417.913H329.21M329.21 417.913H329.199M329.21 417.913H329.199M329.199 417.913H329.188M329.199 417.913H329.188M329.188 417.913H329.177M329.188 417.913H329.177M329.177 417.913H329.165M329.177 417.913H329.165M329.165 417.913H329.154M329.165 417.913H329.154M329.154 417.913H329.143M329.154 417.913H329.143M329.143 417.913H329.132M329.143 417.913H329.132M329.132 417.913H329.12M329.132 417.913H329.12M329.12 417.913H329.109M329.12 417.913H329.109M329.109 417.913H329.098M329.109 417.913H329.098M329.098 417.913H329.087M329.098 417.913H329.087M329.087 417.913H329.075M329.087 417.913H329.075M329.075 417.913H329.064M329.075 417.913H329.064M329.064 417.913H329.053M329.064 417.913H329.053M329.053 417.913H329.042M329.053 417.913H329.042M329.042 417.913H329.03M329.042 417.913H329.03M329.03 417.913H329.019M329.03 417.913H329.019M329.019 417.913H329.008M329.019 417.913H329.008M329.008 417.913H328.997M329.008 417.913H328.997M328.997 417.913H328.985M328.997 417.913H328.985M328.985 417.913H328.974M328.985 417.913H328.974M328.974 417.913H328.963M328.974 417.913H328.963M328.963 417.913H328.952M328.963 417.913H328.952M328.952 417.913H328.941M328.952 417.913H328.941M328.941 417.913H328.929M328.941 417.913H328.929M328.929 417.913H328.918M328.929 417.913H328.918M328.918 417.913H328.907M328.918 417.913H328.907M328.907 417.913H328.896M328.907 417.913H328.896M328.896 417.913H328.884M328.896 417.913H328.884M328.884 417.913H328.873M328.884 417.913H328.873M328.873 417.913H328.862M328.873 417.913H328.862M328.862 417.913H328.851M328.862 417.913H328.851M328.851 417.913H328.839M328.851 417.913H328.839M328.839 417.913H328.828M328.839 417.913H328.828M328.828 417.913H328.817M328.828 417.913H328.817M328.817 417.913H328.806M328.817 417.913H328.806M328.806 417.913H328.795M328.806 417.913H328.795M328.795 417.913H328.783M328.795 417.913H328.783M328.783 417.913H328.772M328.783 417.913H328.772M328.772 417.913H328.761M328.772 417.913H328.761M328.761 417.913H328.75M328.761 417.913H328.75M328.75 417.913H328.738M328.75 417.913H328.738M328.738 417.913H328.727M328.738 417.913H328.727M328.727 417.913H328.716M328.727 417.913H328.716M328.716 417.913H328.705M328.716 417.913H328.705M328.705 417.913H328.694M328.705 417.913H328.694M328.694 417.913H328.682M328.694 417.913H328.682M328.682 417.913H328.671M328.682 417.913H328.671M328.671 417.913H328.66M328.671 417.913H328.66M328.66 417.913H328.649M328.66 417.913H328.649M328.649 417.913H328.637M328.649 417.913H328.637M328.637 417.913H328.626M328.637 417.913H328.626M328.626 417.913H328.615M328.626 417.913H328.615M328.615 417.913H328.604M328.615 417.913H328.604M328.604 417.913H328.593M328.604 417.913H328.593M328.593 417.913H328.581M328.593 417.913H328.581M328.581 417.913H328.57M328.581 417.913H328.57M328.57 417.913H328.559M328.57 417.913H328.559M328.559 417.913H328.548M328.559 417.913H328.548M328.548 417.913H328.537M328.548 417.913H328.537M328.537 417.913H328.525M328.537 417.913H328.525M328.525 417.913H328.514M328.525 417.913H328.514M328.514 417.913H328.503M328.514 417.913H328.503M328.503 417.913H328.492M328.503 417.913H328.492M328.492 417.913H328.481M328.492 417.913H328.481M328.481 417.913H328.469M328.481 417.913H328.469M328.469 417.913H328.458M328.469 417.913H328.458M328.458 417.913H328.447M328.458 417.913H328.447M328.447 417.913H328.436M328.447 417.913H328.436M328.436 417.913H328.425M328.436 417.913H328.425M328.425 417.913H328.413M328.425 417.913H328.413M328.413 417.913H328.402M328.413 417.913H328.402M328.402 417.913H328.391M328.402 417.913H328.391M328.391 417.913H328.38M328.391 417.913H328.38M328.38 417.913H328.369M328.38 417.913H328.369M328.369 417.913H328.357M328.369 417.913H328.357M328.357 417.913H328.346M328.357 417.913H328.346M328.346 417.913H328.335M328.346 417.913H328.335M328.335 417.913H328.324M328.335 417.913H328.324M328.324 417.913H328.313M328.324 417.913H328.313M328.313 417.913H328.301M328.313 417.913H328.301M328.301 417.913H328.29M328.301 417.913H328.29M328.29 417.913H328.279M328.29 417.913H328.279M328.279 417.913H328.268M328.279 417.913H328.268M328.268 417.913H328.257M328.268 417.913H328.257M328.257 417.913H328.245M328.257 417.913H328.245M328.245 417.913H328.234M328.245 417.913H328.234M328.234 417.913H328.223M328.234 417.913H328.223M328.223 417.913H328.212M328.223 417.913H328.212M328.212 417.913H328.201M328.212 417.913H328.201M328.201 417.913H328.189M328.201 417.913H328.189M328.189 417.913H328.178M328.189 417.913H328.178M328.178 417.913H328.167M328.178 417.913H328.167M328.167 417.913H328.156M328.167 417.913H328.156M328.156 417.913H328.145M328.156 417.913H328.145M328.145 417.913H328.133M328.145 417.913H328.133M328.133 417.913H328.122M328.133 417.913H328.122M328.122 417.913H328.111M328.122 417.913H328.111M328.111 417.913H328.1M328.111 417.913H328.1M328.1 417.913H328.089M328.1 417.913H328.089M328.089 417.913H328.078M328.089 417.913H328.078M328.078 417.913H328.066M328.078 417.913H328.066M328.066 417.913H328.055M328.066 417.913H328.055M328.055 417.913H328.044M328.055 417.913H328.044M328.044 417.913H328.033M328.044 417.913H328.033M328.033 417.913H328.022M328.033 417.913H328.022M328.022 417.913H328.01M328.022 417.913H328.01M328.01 417.913H327.999M328.01 417.913H327.999M327.999 417.913H327.988M327.999 417.913H327.988M327.988 417.913H327.977M327.988 417.913H327.977M327.977 417.913H327.966M327.977 417.913H327.966M327.966 417.913H327.954M327.966 417.913H327.954M327.954 417.913H327.943M327.954 417.913H327.943M327.943 417.913H327.932M327.943 417.913H327.932M327.932 417.913H327.921M327.932 417.913H327.921M327.921 417.913H327.91M327.921 417.913H327.91M327.91 417.913H327.899M327.91 417.913H327.899M327.899 417.913H327.887M327.899 417.913H327.887M327.887 417.913H327.876M327.887 417.913H327.876M327.876 417.913H327.865M327.876 417.913H327.865M327.865 417.913H327.854M327.865 417.913H327.854M327.854 417.913H327.843M327.854 417.913H327.843M327.843 417.913H327.831M327.843 417.913H327.831M327.831 417.913H327.82M327.831 417.913H327.82M327.82 417.913H327.809M327.82 417.913H327.809M327.809 417.913H327.798M327.809 417.913H327.798M327.798 417.913H327.787M327.798 417.913H327.787M327.787 417.913H327.776M327.787 417.913H327.776M327.776 417.913H327.764M327.776 417.913H327.764M327.764 417.913H327.753M327.764 417.913H327.753M327.753 417.913H327.742M327.753 417.913H327.742M327.742 417.913H327.731M327.742 417.913H327.731M327.731 417.913H327.72M327.731 417.913H327.72M327.72 417.913H327.708M327.72 417.913H327.708M327.708 417.913H327.697M327.708 417.913H327.697M327.697 417.913H327.686M327.697 417.913H327.686M327.686 417.913H327.675M327.686 417.913H327.675M327.675 417.913H327.664M327.675 417.913H327.664M327.664 417.913H327.653M327.664 417.913H327.653M327.653 417.913H327.641M327.653 417.913H327.641M327.641 417.913H327.63M327.641 417.913H327.63M327.63 417.913H327.619M327.63 417.913H327.619M327.619 417.913H327.608M327.619 417.913H327.608M327.608 417.913H327.597M327.608 417.913H327.597M327.597 417.913H327.585M327.597 417.913H327.585M327.585 417.913H327.574M327.585 417.913H327.574M327.574 417.913H327.563M327.574 417.913H327.563M327.563 417.913H327.552M327.563 417.913H327.552M327.552 417.913H327.541M327.552 417.913H327.541M327.541 417.913H327.53M327.541 417.913H327.53M327.53 417.913H327.518M327.53 417.913H327.518M327.518 417.913H327.507M327.518 417.913H327.507M327.507 417.913H327.496M327.507 417.913H327.496M327.496 417.913H327.485M327.496 417.913H327.485M327.485 417.913H327.474M327.485 417.913H327.474M327.474 417.913H327.462M327.474 417.913H327.462M327.462 417.913H327.451M327.462 417.913H327.451M327.451 417.913H327.44M327.451 417.913H327.44M327.44 417.913H327.429M327.44 417.913H327.429M327.429 417.913H327.418M327.429 417.913H327.418M327.418 417.913H327.407M327.418 417.913H327.407M327.407 417.913H327.395M327.407 417.913H327.395M327.395 417.913H327.384M327.395 417.913H327.384M327.384 417.913H327.373M327.384 417.913H327.373M327.373 417.913H327.362M327.373 417.913H327.362M327.362 417.913H327.351M327.362 417.913H327.351M327.351 417.913H327.339M327.351 417.913H327.339M327.339 417.913H327.328M327.339 417.913H327.328M327.328 417.913H327.317M327.328 417.913H327.317M327.317 417.913H327.306M327.317 417.913H327.306M327.306 417.913H327.295M327.306 417.913H327.295M327.295 417.913H327.284M327.295 417.913H327.284M327.284 417.913H327.272M327.284 417.913H327.272M327.272 417.913H327.261M327.272 417.913H327.261M327.261 417.913H327.25M327.261 417.913H327.25M327.25 417.913H327.239M327.25 417.913H327.239M327.239 417.913H327.228M327.239 417.913H327.228M327.228 417.913H327.216M327.228 417.913H327.216M327.216 417.913H327.205M327.216 417.913H327.205M327.205 417.913H327.194M327.205 417.913H327.194M327.194 417.913H327.183M327.194 417.913H327.183M327.183 417.913H327.172M327.183 417.913H327.172M327.172 417.913H327.16M327.172 417.913H327.16M327.16 417.913H327.149M327.16 417.913H327.149M327.149 417.913H327.138M327.149 417.913H327.138M327.138 417.913H327.127M327.138 417.913H327.127M327.127 417.913H327.116M327.127 417.913H327.116M327.116 417.913H327.105M327.116 417.913H327.105M327.105 417.913H327.093M327.105 417.913H327.093M327.093 417.913H327.082M327.093 417.913H327.082M327.082 417.913H327.071M327.082 417.913H327.071M327.071 417.913H327.06M327.071 417.913H327.06M327.06 417.913H327.049M327.06 417.913H327.049M327.049 417.913H327.037M327.049 417.913H327.037M327.037 417.913H327.026M327.037 417.913H327.026M327.026 417.913H327.015M327.026 417.913H327.015M327.015 417.913H327.004M327.015 417.913H327.004M327.004 417.913H326.993M327.004 417.913H326.993M326.993 417.913H326.981M326.993 417.913H326.981M326.981 417.913H326.97M326.981 417.913H326.97M326.97 417.913H326.959M326.97 417.913H326.959M326.959 417.913H326.948M326.959 417.913H326.948M326.948 417.913H326.937M326.948 417.913H326.937M326.937 417.913H326.925M326.937 417.913H326.925M326.925 417.913H326.914M326.925 417.913H326.914M326.914 417.913H326.903M326.914 417.913H326.903M326.903 417.913H326.892M326.903 417.913H326.892M326.892 417.913H326.881M326.892 417.913H326.881M326.881 417.913H326.869M326.881 417.913H326.869M326.869 417.913H326.858M326.869 417.913H326.858M326.858 417.913H326.847M326.858 417.913H326.847M326.847 417.913H326.836M326.847 417.913H326.836M326.836 417.913H326.825M326.836 417.913H326.825M326.825 417.913H326.813M326.825 417.913H326.813M326.813 417.913H326.802M326.813 417.913H326.802M326.802 417.913H326.791M326.802 417.913H326.791M326.791 417.913H326.78M326.791 417.913H326.78M326.78 417.913H326.769M326.78 417.913H326.769M326.769 417.913H326.757M326.769 417.913H326.757M326.757 417.913H326.746M326.757 417.913H326.746M326.746 417.913H326.735M326.746 417.913H326.735M326.735 417.913H326.724M326.735 417.913H326.724M326.724 417.913H326.713M326.724 417.913H326.713M326.713 417.913H326.701M326.713 417.913H326.701M326.701 417.913H326.69M326.701 417.913H326.69M326.69 417.913H326.679M326.69 417.913H326.679M326.679 417.913H326.668M326.679 417.913H326.668M326.668 417.913H326.657M326.668 417.913H326.657M326.657 417.913H326.645M326.657 417.913H326.645M326.645 417.913H326.634M326.645 417.913H326.634M326.634 417.913H326.623M326.634 417.913H326.623M326.623 417.913H326.612M326.623 417.913H326.612M326.612 417.913H326.6M326.612 417.913H326.6M326.6 417.913H326.589M326.6 417.913H326.589M326.589 417.913H326.578M326.589 417.913H326.578M326.578 417.913H326.567M326.578 417.913H326.567M326.567 417.913H326.556M326.567 417.913H326.556M326.556 417.913H326.544M326.556 417.913H326.544M326.544 417.913H326.533M326.544 417.913H326.533M326.533 417.913H326.522M326.533 417.913H326.522M326.522 417.913H326.511M326.522 417.913H326.511M326.511 417.913H326.499M326.511 417.913H326.499M326.499 417.913H326.488M326.499 417.913H326.488M326.488 417.913H326.477M326.488 417.913H326.477M326.477 417.913H326.466M326.477 417.913H326.466M326.466 417.913H326.455M326.466 417.913H326.455M326.455 417.913H326.443M326.455 417.913H326.443M326.443 417.913H326.432M326.443 417.913H326.432M326.432 417.913H326.421M326.432 417.913H326.421M326.421 417.913H326.41M326.421 417.913H326.41M326.41 417.913H326.398M326.41 417.913H326.398M326.398 417.913H326.387M326.398 417.913H326.387M326.387 417.913H326.376M326.387 417.913H326.376M326.376 417.913H326.365M326.376 417.913H326.365M326.365 417.913H326.354M326.365 417.913H326.354M326.354 417.913H326.342M326.354 417.913H326.342M326.342 417.913H326.331M326.342 417.913H326.331M326.331 417.913H326.32M326.331 417.913H326.32M326.32 417.913H326.309M326.32 417.913H326.309M326.309 417.913H326.297M326.309 417.913H326.297M326.297 417.913H326.286M326.297 417.913H326.286M326.286 417.913H326.275M326.286 417.913H326.275M326.275 417.913H326.264M326.275 417.913H326.264M326.264 417.913H326.252M326.264 417.913H326.252M326.252 417.913H326.241M326.252 417.913H326.241M326.241 417.913H326.23M326.241 417.913H326.23M326.23 417.913H326.219M326.23 417.913H326.219M326.219 417.913H326.207M326.219 417.913H326.207M326.207 417.913H326.196M326.207 417.913H326.196M326.196 417.913H326.185M326.196 417.913H326.185M326.185 417.913H326.174M326.185 417.913H326.174M326.174 417.913H326.162M326.174 417.913H326.162M326.162 417.913H326.151M326.162 417.913H326.151M326.151 417.913H326.14M326.151 417.913H326.14M326.14 417.913H326.129M326.14 417.913H326.129M326.129 417.913H326.117M326.129 417.913H326.117M326.117 417.913H326.106M326.117 417.913H326.106M326.106 417.913H326.095M326.106 417.913H326.095M326.095 417.913H326.084M326.095 417.913H326.084M326.084 417.913H326.072M326.084 417.913H326.072M326.072 417.913H326.061M326.072 417.913H326.061M326.061 417.913H326.05M326.061 417.913H326.05M326.05 417.913H326.039M326.05 417.913H326.039M326.039 417.913H326.027M326.039 417.913H326.027M326.027 417.913H326.016M326.027 417.913H326.016M326.016 417.913H326.005M326.016 417.913H326.005M326.005 417.913H325.994M326.005 417.913H325.994M325.994 417.913H325.982M325.994 417.913H325.982M325.982 417.913H325.971M325.982 417.913H325.971M325.971 417.913H325.96M325.971 417.913H325.96M325.96 417.913H325.949M325.96 417.913H325.949M325.949 417.913H325.937M325.949 417.913H325.937M325.937 417.913H325.926M325.937 417.913H325.926M325.926 417.913H325.915M325.926 417.913H325.915M325.915 417.913H325.903M325.915 417.913H325.903M325.903 417.913H325.892M325.903 417.913H325.892M325.892 417.913H325.881M325.892 417.913H325.881M325.881 417.913H325.87M325.881 417.913H325.87M325.87 417.913H325.858M325.87 417.913H325.858M325.858 417.913H325.847M325.858 417.913H325.847M325.847 417.913H325.836M325.847 417.913H325.836M325.836 417.913H325.824M325.836 417.913H325.824M325.824 417.913H325.813M325.824 417.913H325.813M325.813 417.913H325.802M325.813 417.913H325.802M325.802 417.913H325.791M325.802 417.913H325.791M325.791 417.913H325.779M325.791 417.913H325.779M325.779 417.913H325.768M325.779 417.913H325.768M325.768 417.913H325.757M325.768 417.913H325.757M325.757 417.913H325.745M325.757 417.913H325.745M325.745 417.913H325.734M325.745 417.913H325.734M325.734 417.913H325.723M325.734 417.913H325.723M325.723 417.913H325.712M325.723 417.913H325.712M325.712 417.913H325.7M325.712 417.913H325.7M325.7 417.913H325.689M325.7 417.913H325.689M325.689 417.913H325.678M325.689 417.913H325.678M325.678 417.913H325.666M325.678 417.913H325.666M325.666 417.913H325.655M325.666 417.913H325.655M325.655 417.913H325.644M325.655 417.913H325.644M325.644 417.913H325.632M325.644 417.913H325.632M325.632 417.913H325.621M325.632 417.913H325.621M325.621 417.913H325.61M325.621 417.913H325.61M325.61 417.913H325.599M325.61 417.913H325.599M325.599 417.913H325.587M325.599 417.913H325.587M325.587 417.913H325.576M325.587 417.913H325.576M325.576 417.913H325.565M325.576 417.913H325.565M325.565 417.913H325.553M325.565 417.913H325.553M325.553 417.913H325.542M325.553 417.913H325.542M325.542 417.913H325.531M325.542 417.913H325.531M325.531 417.913H325.519M325.531 417.913H325.519M325.519 417.913H325.508M325.519 417.913H325.508M325.508 417.913H325.497M325.508 417.913H325.497M325.497 417.913H325.485M325.497 417.913H325.485M325.485 417.913H325.474M325.485 417.913H325.474M325.474 417.913H325.463M325.474 417.913H325.463M325.463 417.913H325.451M325.463 417.913H325.451M325.451 417.913H325.44M325.451 417.913H325.44M325.44 417.913H325.429M325.44 417.913H325.429M325.429 417.913H325.417M325.429 417.913H325.417M325.417 417.913H325.406M325.417 417.913H325.406M325.406 417.913H325.395M325.406 417.913H325.395M325.395 417.913H325.383M325.395 417.913H325.383M325.383 417.913H325.372M325.383 417.913H325.372M325.372 417.913H325.361M325.372 417.913H325.361M325.361 417.913H325.349M325.361 417.913H325.349M325.349 417.913H325.338M325.349 417.913H325.338M325.338 417.913H325.327M325.338 417.913H325.327M325.327 417.913H325.315M325.327 417.913H325.315M325.315 417.913H325.304M325.315 417.913H325.304M325.304 417.913H325.293M325.304 417.913H325.293M325.293 417.913H325.281M325.293 417.913H325.281M325.281 417.913H325.27M325.281 417.913H325.27M325.27 417.913H325.258M325.27 417.913H325.258M325.258 417.913H325.247M325.258 417.913H325.247M325.247 417.913H325.236M325.247 417.913H325.236M325.236 417.913H325.224M325.236 417.913H325.224M325.224 417.913H325.213M325.224 417.913H325.213M325.213 417.913H325.202M325.213 417.913H325.202M325.202 417.913H325.19M325.202 417.913H325.19M325.19 417.913H325.179M325.19 417.913H325.179M325.179 417.913H325.168M325.179 417.913H325.168M325.168 417.913H325.156M325.168 417.913H325.156M325.156 417.913H325.145M325.156 417.913H325.145M325.145 417.913H325.133M325.145 417.913H325.133M325.133 417.913H325.122M325.133 417.913H325.122M325.122 417.913H325.111M325.122 417.913H325.111M325.111 417.913H325.099M325.111 417.913H325.099M325.099 417.913H325.088M325.099 417.913H325.088M325.088 417.913H325.077M325.088 417.913H325.077M325.077 417.913H325.065M325.077 417.913H325.065M325.065 417.913H325.054M325.065 417.913H325.054M325.054 417.913H325.042M325.054 417.913H325.042M325.042 417.913H325.031M325.042 417.913H325.031M325.031 417.913H325.02M325.031 417.913H325.02M325.02 417.913H325.008M325.02 417.913H325.008M325.008 417.913H324.997M325.008 417.913H324.997M324.997 417.913H324.985M324.997 417.913H324.985M324.985 417.913H324.974M324.985 417.913H324.974M324.974 417.913H324.963M324.974 417.913H324.963M324.963 417.913H324.951M324.963 417.913H324.951M324.951 417.913H324.94M324.951 417.913H324.94M324.94 417.913H324.928M324.94 417.913H324.928M324.928 417.913H324.917M324.928 417.913H324.917M324.917 417.913H324.906M324.917 417.913H324.906M324.906 417.913H324.894M324.906 417.913H324.894M324.894 417.913H324.883M324.894 417.913H324.883M324.883 417.913H324.871M324.883 417.913H324.871M324.871 417.913H324.86M324.871 417.913H324.86M324.86 417.913H324.848M324.86 417.913H324.848M324.848 417.913H324.837M324.848 417.913H324.837M324.837 417.913H324.826M324.837 417.913H324.826M324.826 417.913H324.814M324.826 417.913H324.814M324.814 417.913H324.803M324.814 417.913H324.803M324.803 417.913H324.791M324.803 417.913H324.791M324.791 417.913H324.78M324.791 417.913H324.78M324.78 417.913H324.768M324.78 417.913H324.768M324.768 417.913H324.757M324.768 417.913H324.757M324.757 417.913H324.746M324.757 417.913H324.746M324.746 417.913C324.468 417.913 324.233 418.006 324.067 418.172M324.746 417.913L324.067 418.172M324.067 418.172C323.901 418.338 323.808 418.573 323.808 418.851M324.067 418.172L323.808 418.851M323.808 418.851V422.135M323.808 418.851V422.135M323.808 422.135C323.808 422.688 324.179 423.161 324.746 423.161M323.808 422.135L324.746 423.161M324.746 423.161H324.757M324.746 423.161H324.757M324.757 423.161H324.768M324.757 423.161H324.768M324.768 423.161H324.78M324.768 423.161H324.78M324.78 423.161H324.791M324.78 423.161H324.791M324.791 423.161H324.803M324.791 423.161H324.803M324.803 423.161H324.814M324.803 423.161H324.814M324.814 423.161H324.826M324.814 423.161H324.826M324.826 423.161H324.837M324.826 423.161H324.837M324.837 423.161H324.848M324.837 423.161H324.848M324.848 423.161H324.86M324.848 423.161H324.86M324.86 423.161H324.871M324.86 423.161H324.871M324.871 423.161H324.883M324.871 423.161H324.883M324.883 423.161H324.894M324.883 423.161H324.894M324.894 423.161H324.906M324.894 423.161H324.906M324.906 423.161H324.917M324.906 423.161H324.917M324.917 423.161H324.928M324.917 423.161H324.928M324.928 423.161H324.94M324.928 423.161H324.94M324.94 423.161H324.951M324.94 423.161H324.951M324.951 423.161H324.963M324.951 423.161H324.963M324.963 423.161H324.974M324.963 423.161H324.974M324.974 423.161H324.985M324.974 423.161H324.985M324.985 423.161H324.997M324.985 423.161H324.997M324.997 423.161H325.008M324.997 423.161H325.008M325.008 423.161H325.02M325.008 423.161H325.02M325.02 423.161H325.031M325.02 423.161H325.031M325.031 423.161H325.042M325.031 423.161H325.042M325.042 423.161H325.054M325.042 423.161H325.054M325.054 423.161H325.065M325.054 423.161H325.065M325.065 423.161H325.077M325.065 423.161H325.077M325.077 423.161H325.088M325.077 423.161H325.088M325.088 423.161H325.099M325.088 423.161H325.099M325.099 423.161H325.111M325.099 423.161H325.111M325.111 423.161H325.122M325.111 423.161H325.122M325.122 423.161H325.133M325.122 423.161H325.133M325.133 423.161H325.145M325.133 423.161H325.145M325.145 423.161H325.156M325.145 423.161H325.156M325.156 423.161H325.168M325.156 423.161H325.168M325.168 423.161H325.179M325.168 423.161H325.179M325.179 423.161H325.19M325.179 423.161H325.19M325.19 423.161H325.202M325.19 423.161H325.202M325.202 423.161H325.213M325.202 423.161H325.213M325.213 423.161H325.224M325.213 423.161H325.224M325.224 423.161H325.236M325.224 423.161H325.236M325.236 423.161H325.247M325.236 423.161H325.247M325.247 423.161H325.258M325.247 423.161H325.258M325.258 423.161H325.27M325.258 423.161H325.27M325.27 423.161H325.281M325.27 423.161H325.281M325.281 423.161H325.293M325.281 423.161H325.293M325.293 423.161H325.304M325.293 423.161H325.304M325.304 423.161H325.315M325.304 423.161H325.315M325.315 423.161H325.327M325.315 423.161H325.327M325.327 423.161H325.338M325.327 423.161H325.338M325.338 423.161H325.349M325.338 423.161H325.349M325.349 423.161H325.361M325.349 423.161H325.361M325.361 423.161H325.372M325.361 423.161H325.372M325.372 423.161H325.383M325.372 423.161H325.383M325.383 423.161H325.395M325.383 423.161H325.395M325.395 423.161H325.406M325.395 423.161H325.406M325.406 423.161H325.417M325.406 423.161H325.417M325.417 423.161H325.429M325.417 423.161H325.429M325.429 423.161H325.44M325.429 423.161H325.44M325.44 423.161H325.451M325.44 423.161H325.451M325.451 423.161H325.463M325.451 423.161H325.463M325.463 423.161H325.474M325.463 423.161H325.474M325.474 423.161H325.485M325.474 423.161H325.485M325.485 423.161H325.497M325.485 423.161H325.497M325.497 423.161H325.508M325.497 423.161H325.508M325.508 423.161H325.519M325.508 423.161H325.519M325.519 423.161H325.531M325.519 423.161H325.531M325.531 423.161H325.542M325.531 423.161H325.542M325.542 423.161H325.553M325.542 423.161H325.553M325.553 423.161H325.565M325.553 423.161H325.565M325.565 423.161H325.576M325.565 423.161H325.576M325.576 423.161H325.587M325.576 423.161H325.587M325.587 423.161H325.599M325.587 423.161H325.599M325.599 423.161H325.61M325.599 423.161H325.61M325.61 423.161H325.621M325.61 423.161H325.621M325.621 423.161H325.632M325.621 423.161H325.632M325.632 423.161H325.644M325.632 423.161H325.644M325.644 423.161H325.655M325.644 423.161H325.655M325.655 423.161H325.666M325.655 423.161H325.666M325.666 423.161H325.678M325.666 423.161H325.678M325.678 423.161H325.689M325.678 423.161H325.689M325.689 423.161H325.7M325.689 423.161H325.7M325.7 423.161H325.712M325.7 423.161H325.712M325.712 423.161H325.723M325.712 423.161H325.723M325.723 423.161H325.734M325.723 423.161H325.734M325.734 423.161H325.745M325.734 423.161H325.745M325.745 423.161H325.757M325.745 423.161H325.757M325.757 423.161H325.768M325.757 423.161H325.768M325.768 423.161H325.779M325.768 423.161H325.779M325.779 423.161H325.791M325.779 423.161H325.791M325.791 423.161H325.802M325.791 423.161H325.802M325.802 423.161H325.813M325.802 423.161H325.813M325.813 423.161H325.824M325.813 423.161H325.824M325.824 423.161H325.836M325.824 423.161H325.836M325.836 423.161H325.847M325.836 423.161H325.847M325.847 423.161H325.858M325.847 423.161H325.858M325.858 423.161H325.87M325.858 423.161H325.87M325.87 423.161H325.881M325.87 423.161H325.881M325.881 423.161H325.892M325.881 423.161H325.892M325.892 423.161H325.903M325.892 423.161H325.903M325.903 423.161H325.915M325.903 423.161H325.915M325.915 423.161H325.926M325.915 423.161H325.926M325.926 423.161H325.937M325.926 423.161H325.937M325.937 423.161H325.949M325.937 423.161H325.949M325.949 423.161H325.96M325.949 423.161H325.96M325.96 423.161H325.971M325.96 423.161H325.971M325.971 423.161H325.982M325.971 423.161H325.982M325.982 423.161H325.994M325.982 423.161H325.994M325.994 423.161H326.005M325.994 423.161H326.005M326.005 423.161H326.016M326.005 423.161H326.016M326.016 423.161H326.027M326.016 423.161H326.027M326.027 423.161H326.039M326.027 423.161H326.039M326.039 423.161H326.05M326.039 423.161H326.05M326.05 423.161H326.061M326.05 423.161H326.061M326.061 423.161H326.072M326.061 423.161H326.072M326.072 423.161H326.084M326.072 423.161H326.084M326.084 423.161H326.095M326.084 423.161H326.095M326.095 423.161H326.106M326.095 423.161H326.106M326.106 423.161H326.117M326.106 423.161H326.117M326.117 423.161H326.129M326.117 423.161H326.129M326.129 423.161H326.14M326.129 423.161H326.14M326.14 423.161H326.151M326.14 423.161H326.151M326.151 423.161H326.162M326.151 423.161H326.162M326.162 423.161H326.174M326.162 423.161H326.174M326.174 423.161H326.185M326.174 423.161H326.185M326.185 423.161H326.196M326.185 423.161H326.196M326.196 423.161H326.207M326.196 423.161H326.207M326.207 423.161H326.219M326.207 423.161H326.219M326.219 423.161H326.23M326.219 423.161H326.23M326.23 423.161H326.241M326.23 423.161H326.241M326.241 423.161H326.252M326.241 423.161H326.252M326.252 423.161H326.264M326.252 423.161H326.264M326.264 423.161H326.275M326.264 423.161H326.275M326.275 423.161H326.286M326.275 423.161H326.286M326.286 423.161H326.297M326.286 423.161H326.297M326.297 423.161H326.309M326.297 423.161H326.309M326.309 423.161H326.32M326.309 423.161H326.32M326.32 423.161H326.331M326.32 423.161H326.331M326.331 423.161H326.342M326.331 423.161H326.342M326.342 423.161H326.354M326.342 423.161H326.354M326.354 423.161H326.365M326.354 423.161H326.365M326.365 423.161H326.376M326.365 423.161H326.376M326.376 423.161H326.387M326.376 423.161H326.387M326.387 423.161H326.398M326.387 423.161H326.398M326.398 423.161H326.41M326.398 423.161H326.41M326.41 423.161H326.421M326.41 423.161H326.421M326.421 423.161H326.432M326.421 423.161H326.432M326.432 423.161H326.443M326.432 423.161H326.443M326.443 423.161H326.455M326.443 423.161H326.455M326.455 423.161H326.466M326.455 423.161H326.466M326.466 423.161H326.477M326.466 423.161H326.477M326.477 423.161H326.488M326.477 423.161H326.488M326.488 423.161H326.499M326.488 423.161H326.499M326.499 423.161H326.511M326.499 423.161H326.511M326.511 423.161H326.522M326.511 423.161H326.522M326.522 423.161H326.533M326.522 423.161H326.533M326.533 423.161H326.544M326.533 423.161H326.544M326.544 423.161H326.556M326.544 423.161H326.556M326.556 423.161H326.567M326.556 423.161H326.567M326.567 423.161H326.578M326.567 423.161H326.578M326.578 423.161H326.589M326.578 423.161H326.589M326.589 423.161H326.6M326.589 423.161H326.6M326.6 423.161H326.612M326.6 423.161H326.612M326.612 423.161H326.623M326.612 423.161H326.623M326.623 423.161H326.634M326.623 423.161H326.634M326.634 423.161H326.645M326.634 423.161H326.645M326.645 423.161H326.657M326.645 423.161H326.657M326.657 423.161H326.668M326.657 423.161H326.668M326.668 423.161H326.679M326.668 423.161H326.679M326.679 423.161H326.69M326.679 423.161H326.69M326.69 423.161H326.701M326.69 423.161H326.701M326.701 423.161H326.713M326.701 423.161H326.713M326.713 423.161H326.724M326.713 423.161H326.724M326.724 423.161H326.735M326.724 423.161H326.735M326.735 423.161H326.746M326.735 423.161H326.746M326.746 423.161H326.757M326.746 423.161H326.757M326.757 423.161H326.769M326.757 423.161H326.769M326.769 423.161H326.78M326.769 423.161H326.78M326.78 423.161H326.791M326.78 423.161H326.791M326.791 423.161H326.802M326.791 423.161H326.802M326.802 423.161H326.813M326.802 423.161H326.813M326.813 423.161H326.825M326.813 423.161H326.825M326.825 423.161H326.836M326.825 423.161H326.836M326.836 423.161H326.847M326.836 423.161H326.847M326.847 423.161H326.858M326.847 423.161H326.858M326.858 423.161H326.869M326.858 423.161H326.869M326.869 423.161H326.881M326.869 423.161H326.881M326.881 423.161H326.892M326.881 423.161H326.892M326.892 423.161H326.903M326.892 423.161H326.903M326.903 423.161H326.914M326.903 423.161H326.914M326.914 423.161H326.925M326.914 423.161H326.925M326.925 423.161H326.937M326.925 423.161H326.937M326.937 423.161H326.948M326.937 423.161H326.948M326.948 423.161H326.959M326.948 423.161H326.959M326.959 423.161H326.97M326.959 423.161H326.97M326.97 423.161H326.981M326.97 423.161H326.981M326.981 423.161H326.993M326.981 423.161H326.993M326.993 423.161H327.004M326.993 423.161H327.004M327.004 423.161H327.015M327.004 423.161H327.015M327.015 423.161H327.026M327.015 423.161H327.026M327.026 423.161H327.037M327.026 423.161H327.037M327.037 423.161H327.049M327.037 423.161H327.049M327.049 423.161H327.06M327.049 423.161H327.06M327.06 423.161H327.071M327.06 423.161H327.071M327.071 423.161H327.082M327.071 423.161H327.082M327.082 423.161H327.093M327.082 423.161H327.093M327.093 423.161H327.105M327.093 423.161H327.105M327.105 423.161H327.116M327.105 423.161H327.116M327.116 423.161H327.127M327.116 423.161H327.127M327.127 423.161H327.138M327.127 423.161H327.138M327.138 423.161H327.149M327.138 423.161H327.149M327.149 423.161H327.16M327.149 423.161H327.16M327.16 423.161H327.172M327.16 423.161H327.172M327.172 423.161H327.183M327.172 423.161H327.183M327.183 423.161H327.194M327.183 423.161H327.194M327.194 423.161H327.205M327.194 423.161H327.205M327.205 423.161H327.216M327.205 423.161H327.216M327.216 423.161H327.228M327.216 423.161H327.228M327.228 423.161H327.239M327.228 423.161H327.239M327.239 423.161H327.25M327.239 423.161H327.25M327.25 423.161H327.261M327.25 423.161H327.261M327.261 423.161H327.272M327.261 423.161H327.272M327.272 423.161H327.284M327.272 423.161H327.284M327.284 423.161H327.295M327.284 423.161H327.295M327.295 423.161H327.306M327.295 423.161H327.306M327.306 423.161H327.317M327.306 423.161H327.317M327.317 423.161H327.328M327.317 423.161H327.328M327.328 423.161H327.339M327.328 423.161H327.339M327.339 423.161H327.351M327.339 423.161H327.351M327.351 423.161H327.362M327.351 423.161H327.362M327.362 423.161H327.373M327.362 423.161H327.373M327.373 423.161H327.384M327.373 423.161H327.384M327.384 423.161H327.395M327.384 423.161H327.395M327.395 423.161H327.407M327.395 423.161H327.407M327.407 423.161H327.418M327.407 423.161H327.418M327.418 423.161H327.429M327.418 423.161H327.429M327.429 423.161H327.44M327.429 423.161H327.44M327.44 423.161H327.451M327.44 423.161H327.451M327.451 423.161H327.462M327.451 423.161H327.462M327.462 423.161H327.474M327.462 423.161H327.474M327.474 423.161H327.485M327.474 423.161H327.485M327.485 423.161H327.496M327.485 423.161H327.496M327.496 423.161H327.507M327.496 423.161H327.507M327.507 423.161H327.518M327.507 423.161H327.518M327.518 423.161H327.53M327.518 423.161H327.53M327.53 423.161H327.541M327.53 423.161H327.541M327.541 423.161H327.552M327.541 423.161H327.552M327.552 423.161H327.563M327.552 423.161H327.563M327.563 423.161H327.574M327.563 423.161H327.574M327.574 423.161H327.585M327.574 423.161H327.585M327.585 423.161H327.597M327.585 423.161H327.597M327.597 423.161H327.608M327.597 423.161H327.608M327.608 423.161H327.619M327.608 423.161H327.619M327.619 423.161H327.63M327.619 423.161H327.63M327.63 423.161H327.641M327.63 423.161H327.641M327.641 423.161H327.653M327.641 423.161H327.653M327.653 423.161H327.664M327.653 423.161H327.664M327.664 423.161H327.675M327.664 423.161H327.675M327.675 423.161H327.686M327.675 423.161H327.686M327.686 423.161H327.697M327.686 423.161H327.697M327.697 423.161H327.708M327.697 423.161H327.708M327.708 423.161H327.72M327.708 423.161H327.72M327.72 423.161H327.731M327.72 423.161H327.731M327.731 423.161H327.742M327.731 423.161H327.742M327.742 423.161H327.753M327.742 423.161H327.753M327.753 423.161H327.764M327.753 423.161H327.764M327.764 423.161H327.776M327.764 423.161H327.776M327.776 423.161H327.787M327.776 423.161H327.787M327.787 423.161H327.798M327.787 423.161H327.798M327.798 423.161H327.809M327.798 423.161H327.809M327.809 423.161H327.82M327.809 423.161H327.82M327.82 423.161H327.831M327.82 423.161H327.831M327.831 423.161H327.843M327.831 423.161H327.843M327.843 423.161H327.854M327.843 423.161H327.854M327.854 423.161H327.865M327.854 423.161H327.865M327.865 423.161H327.876M327.865 423.161H327.876M327.876 423.161H327.887M327.876 423.161H327.887M327.887 423.161H327.899M327.887 423.161H327.899M327.899 423.161H327.91M327.899 423.161H327.91M327.91 423.161H327.921M327.91 423.161H327.921M327.921 423.161H327.932M327.921 423.161H327.932M327.932 423.161H327.943M327.932 423.161H327.943M327.943 423.161H327.954M327.943 423.161H327.954M327.954 423.161H327.966M327.954 423.161H327.966M327.966 423.161H327.977M327.966 423.161H327.977M327.977 423.161H327.988M327.977 423.161H327.988M327.988 423.161H327.999M327.988 423.161H327.999M327.999 423.161H328.01M327.999 423.161H328.01M328.01 423.161H328.022M328.01 423.161H328.022M328.022 423.161H328.033M328.022 423.161H328.033M328.033 423.161H328.044M328.033 423.161H328.044M328.044 423.161H328.055M328.044 423.161H328.055M328.055 423.161H328.066M328.055 423.161H328.066M328.066 423.161H328.078M328.066 423.161H328.078M328.078 423.161H328.089M328.078 423.161H328.089M328.089 423.161H328.1M328.089 423.161H328.1M328.1 423.161H328.111M328.1 423.161H328.111M328.111 423.161H328.122M328.111 423.161H328.122M328.122 423.161H328.133M328.122 423.161H328.133M328.133 423.161H328.145M328.133 423.161H328.145M328.145 423.161H328.156M328.145 423.161H328.156M328.156 423.161H328.167M328.156 423.161H328.167M328.167 423.161H328.178M328.167 423.161H328.178M328.178 423.161H328.189M328.178 423.161H328.189M328.189 423.161H328.201M328.189 423.161H328.201M328.201 423.161H328.212M328.201 423.161H328.212M328.212 423.161H328.223M328.212 423.161H328.223M328.223 423.161H328.234M328.223 423.161H328.234M328.234 423.161H328.245M328.234 423.161H328.245M328.245 423.161H328.257M328.245 423.161H328.257M328.257 423.161H328.268M328.257 423.161H328.268M328.268 423.161H328.279M328.268 423.161H328.279M328.279 423.161H328.29M328.279 423.161H328.29M328.29 423.161H328.301M328.29 423.161H328.301M328.301 423.161H328.313M328.301 423.161H328.313M328.313 423.161H328.324M328.313 423.161H328.324M328.324 423.161H328.335M328.324 423.161H328.335M328.335 423.161H328.346M328.335 423.161H328.346M328.346 423.161H328.357M328.346 423.161H328.357M328.357 423.161H328.369M328.357 423.161H328.369M328.369 423.161H328.38M328.369 423.161H328.38M328.38 423.161H328.391M328.38 423.161H328.391M328.391 423.161H328.402M328.391 423.161H328.402M328.402 423.161H328.413M328.402 423.161H328.413M328.413 423.161H328.425M328.413 423.161H328.425M328.425 423.161H328.436M328.425 423.161H328.436M328.436 423.161H328.447M328.436 423.161H328.447M328.447 423.161H328.458M328.447 423.161H328.458M328.458 423.161H328.469M328.458 423.161H328.469M328.469 423.161H328.481M328.469 423.161H328.481M328.481 423.161H328.492M328.481 423.161H328.492M328.492 423.161H328.503M328.492 423.161H328.503M328.503 423.161H328.514M328.503 423.161H328.514M328.514 423.161H328.525M328.514 423.161H328.525M328.525 423.161H328.537M328.525 423.161H328.537M328.537 423.161H328.548M328.537 423.161H328.548M328.548 423.161H328.559M328.548 423.161H328.559M328.559 423.161H328.57M328.559 423.161H328.57M328.57 423.161H328.581M328.57 423.161H328.581M328.581 423.161H328.593M328.581 423.161H328.593M328.593 423.161H328.604M328.593 423.161H328.604M328.604 423.161H328.615M328.604 423.161H328.615M328.615 423.161H328.626M328.615 423.161H328.626M328.626 423.161H328.637M328.626 423.161H328.637M328.637 423.161H328.649M328.637 423.161H328.649M328.649 423.161H328.66M328.649 423.161H328.66M328.66 423.161H328.671M328.66 423.161H328.671M328.671 423.161H328.682M328.671 423.161H328.682M328.682 423.161H328.694M328.682 423.161H328.694M328.694 423.161H328.705M328.694 423.161H328.705M328.705 423.161H328.716M328.705 423.161H328.716M328.716 423.161H328.727M328.716 423.161H328.727M328.727 423.161H328.738M328.727 423.161H328.738M328.738 423.161H328.75M328.738 423.161H328.75M328.75 423.161H328.761M328.75 423.161H328.761M328.761 423.161H328.772M328.761 423.161H328.772M328.772 423.161H328.783M328.772 423.161H328.783M328.783 423.161H328.795M328.783 423.161H328.795M328.795 423.161H328.806M328.795 423.161H328.806M328.806 423.161H328.817M328.806 423.161H328.817M328.817 423.161H328.828M328.817 423.161H328.828M328.828 423.161H328.839M328.828 423.161H328.839M328.839 423.161H328.851M328.839 423.161H328.851M328.851 423.161H328.862M328.851 423.161H328.862M328.862 423.161H328.873M328.862 423.161H328.873M328.873 423.161H328.884M328.873 423.161H328.884M328.884 423.161H328.896M328.884 423.161H328.896M328.896 423.161H328.907M328.896 423.161H328.907M328.907 423.161H328.918M328.907 423.161H328.918M328.918 423.161H328.929M328.918 423.161H328.929M328.929 423.161H328.941M328.929 423.161H328.941M328.941 423.161H328.952M328.941 423.161H328.952M328.952 423.161H328.963M328.952 423.161H328.963M328.963 423.161H328.974M328.963 423.161H328.974M328.974 423.161H328.985M328.974 423.161H328.985M328.985 423.161H328.997M328.985 423.161H328.997M328.997 423.161H329.008M328.997 423.161H329.008M329.008 423.161H329.019M329.008 423.161H329.019M329.019 423.161H329.03M329.019 423.161H329.03M329.03 423.161H329.042M329.03 423.161H329.042M329.042 423.161H329.053M329.042 423.161H329.053M329.053 423.161H329.064M329.053 423.161H329.064M329.064 423.161H329.075M329.064 423.161H329.075M329.075 423.161H329.087M329.075 423.161H329.087M329.087 423.161H329.098M329.087 423.161H329.098M329.098 423.161H329.109M329.098 423.161H329.109M329.109 423.161H329.12M329.109 423.161H329.12M329.12 423.161H329.132M329.12 423.161H329.132M329.132 423.161H329.143M329.132 423.161H329.143M329.143 423.161H329.154M329.143 423.161H329.154M329.154 423.161H329.165M329.154 423.161H329.165M329.165 423.161H329.177M329.165 423.161H329.177M329.177 423.161H329.188M329.177 423.161H329.188M329.188 423.161H329.199M329.188 423.161H329.199M329.199 423.161H329.21M329.199 423.161H329.21M329.21 423.161H329.222M329.21 423.161H329.222M329.222 423.161H329.233M329.222 423.161H329.233M329.233 423.161H329.244M329.233 423.161H329.244M329.244 423.161H329.256M329.244 423.161H329.256M329.256 423.161H329.267M329.256 423.161H329.267M329.267 423.161H329.278M329.267 423.161H329.278M329.278 423.161H329.289M329.278 423.161H329.289M329.289 423.161H329.301M329.289 423.161H329.301M329.301 423.161H329.312M329.301 423.161H329.312M329.312 423.161H329.323M329.312 423.161H329.323M329.323 423.161H329.334M329.323 423.161H329.334M329.334 423.161H329.346M329.334 423.161H329.346M329.346 423.161H329.357M329.346 423.161H329.357M329.357 423.161H329.368M329.357 423.161H329.368M329.368 423.161H329.379M329.368 423.161H329.379M329.379 423.161H329.391M329.379 423.161H329.391M329.391 423.161H329.402M329.391 423.161H329.402M329.402 423.161H329.413M329.402 423.161H329.413M329.413 423.161H329.425M329.413 423.161H329.425M329.425 423.161H329.436M329.425 423.161H329.436M329.436 423.161H329.447M329.436 423.161H329.447M329.447 423.161H329.458M329.447 423.161H329.458M329.458 423.161H329.47M329.458 423.161H329.47M329.47 423.161H329.481M329.47 423.161H329.481M329.481 423.161H329.492M329.481 423.161H329.492M329.492 423.161H329.504M329.492 423.161H329.504M329.504 423.161H329.515M329.504 423.161H329.515M329.515 423.161H329.526M329.515 423.161H329.526M329.526 423.161H329.538M329.526 423.161H329.538M329.538 423.161H329.549M329.538 423.161H329.549M329.549 423.161H329.56M329.549 423.161H329.56M329.56 423.161H329.571M329.56 423.161H329.571M329.571 423.161H329.583M329.571 423.161H329.583M329.583 423.161H329.594M329.583 423.161H329.594M329.594 423.161H329.605M329.594 423.161H329.605M329.605 423.161H329.617M329.605 423.161H329.617M329.617 423.161H329.628M329.617 423.161H329.628M329.628 423.161H329.639M329.628 423.161H329.639M329.639 423.161H329.651M329.639 423.161H329.651M329.651 423.161H329.662M329.651 423.161H329.662M329.662 423.161H329.673M329.662 423.161H329.673M329.673 423.161H329.684M329.673 423.161H329.684M329.684 423.161H329.696M329.684 423.161H329.696M329.696 423.161H329.707M329.696 423.161H329.707M329.707 423.161H329.718M329.707 423.161H329.718M329.718 423.161H329.73M329.718 423.161H329.73M329.73 423.161H329.741M329.73 423.161H329.741M329.741 423.161H329.752M329.741 423.161H329.752M329.752 423.161H329.764M329.752 423.161H329.764M329.764 423.161H329.775M329.764 423.161H329.775M329.775 423.161H329.786M329.775 423.161H329.786M329.786 423.161H329.798M329.786 423.161H329.798M329.798 423.161H329.809M329.798 423.161H329.809M329.809 423.161H329.82M329.809 423.161H329.82M329.82 423.161H329.832M329.82 423.161H329.832M329.832 423.161H329.843M329.832 423.161H329.843M329.843 423.161H329.854M329.843 423.161H329.854M329.854 423.161H329.866M329.854 423.161H329.866M329.866 423.161H329.877M329.866 423.161H329.877M329.877 423.161H329.888M329.877 423.161H329.888M329.888 423.161H329.9M329.888 423.161H329.9M329.9 423.161H329.911M329.9 423.161H329.911M329.911 423.161H329.922M329.911 423.161H329.922M329.922 423.161H329.934M329.922 423.161H329.934M329.934 423.161H329.945M329.934 423.161H329.945M329.945 423.161H329.956M329.945 423.161H329.956M329.956 423.161H329.968M329.956 423.161H329.968M329.968 423.161H329.979M329.968 423.161H329.979M329.979 423.161H329.991M329.979 423.161H329.991M329.991 423.161H330.002M329.991 423.161H330.002M330.002 423.161H330.013M330.002 423.161H330.013M330.013 423.161H330.025M330.013 423.161H330.025M330.025 423.161H330.036M330.025 423.161H330.036M330.036 423.161H330.047M330.036 423.161H330.047M330.047 423.161H330.059M330.047 423.161H330.059M330.059 423.161H330.07M330.059 423.161H330.07M330.07 423.161H330.081M330.07 423.161H330.081M330.081 423.161H330.093M330.081 423.161H330.093M330.093 423.161H330.104M330.093 423.161H330.104M330.104 423.161H330.116M330.104 423.161H330.116M330.116 423.161H330.127M330.116 423.161H330.127M330.127 423.161H330.138M330.127 423.161H330.138M330.138 423.161H330.15M330.138 423.161H330.15M330.15 423.161H330.161M330.15 423.161H330.161M330.161 423.161H330.172M330.161 423.161H330.172M330.172 423.161H330.184M330.172 423.161H330.184M330.184 423.161H330.195M330.184 423.161H330.195M330.195 423.161H330.207M330.195 423.161H330.207M330.207 423.161H330.218M330.207 423.161H330.218M330.218 423.161H330.229M330.218 423.161H330.229M330.229 423.161H330.241M330.229 423.161H330.241M330.241 423.161H330.252M330.241 423.161H330.252M330.252 423.161H330.264M330.252 423.161H330.264M330.264 423.161H330.275M330.264 423.161H330.275M330.275 423.161H330.286M330.275 423.161H330.286M330.286 423.161H330.298M330.286 423.161H330.298M330.298 423.161H330.309M330.298 423.161H330.309M330.309 423.161H330.321M330.309 423.161H330.321M330.321 423.161H330.332M330.321 423.161H330.332M330.332 423.161H330.343M330.332 423.161H330.343M330.343 423.161H330.355M330.343 423.161H330.355M330.355 423.161H330.366M330.355 423.161H330.366M330.366 423.161H330.378M330.366 423.161H330.378M330.378 423.161H330.389M330.378 423.161H330.389M330.389 423.161H330.4M330.389 423.161H330.4M330.4 423.161H330.412M330.4 423.161H330.412M330.412 423.161H330.423M330.412 423.161H330.423M330.423 423.161H330.435M330.423 423.161H330.435M330.435 423.161H330.446M330.435 423.161H330.446M330.446 423.161H330.458M330.446 423.161H330.458M330.458 423.161H330.469M330.458 423.161H330.469M330.469 423.161H330.48M330.469 423.161H330.48M330.48 423.161H330.492M330.48 423.161H330.492M330.492 423.161H330.503M330.492 423.161H330.503M330.503 423.161H330.515M330.503 423.161H330.515M330.515 423.161C331.075 423.161 331.541 422.695 331.541 422.135L330.515 423.161ZM325.988 416.504L325.99 416.504L328.032 416.415L328.032 416.416L328.042 416.414C328.415 416.321 328.79 415.948 328.79 415.478V412.993V412.943H328.74H306.728C306.308 412.943 305.979 412.606 305.979 412.283C305.979 411.866 306.312 411.534 306.728 411.534H310.811H310.822L310.832 411.529L313.672 410.198L313.651 410.102H305.485C304.925 410.102 304.459 410.569 304.459 411.129V429.945C304.459 430.506 304.925 430.972 305.485 430.972H327.763C328.323 430.972 328.79 430.506 328.79 429.945V425.596C328.79 425.036 328.323 424.57 327.763 424.57H327.758H327.752H327.746H327.74H327.735H327.729H327.723H327.718H327.712H327.706H327.7H327.695H327.689H327.683H327.677H327.672H327.666H327.66H327.655H327.649H327.643H327.637H327.632H327.626H327.62H327.615H327.609H327.603H327.597H327.592H327.586H327.58H327.575H327.569H327.563H327.557H327.552H327.546H327.54H327.534H327.529H327.523H327.517H327.512H327.506H327.5H327.494H327.489H327.483H327.477H327.471H327.466H327.46H327.454H327.449H327.443H327.437H327.431H327.426H327.42H327.414H327.408H327.403H327.397H327.391H327.386H327.38H327.374H327.368H327.363H327.357H327.351H327.345H327.34H327.334H327.328H327.323H327.317H327.311H327.305H327.3H327.294H327.288H327.282H327.277H327.271H327.265H327.259H327.254H327.248H327.242H327.236H327.231H327.225H327.219H327.214H327.208H327.202H327.196H327.191H327.185H327.179H327.173H327.168H327.162H327.156H327.15H327.145H327.139H327.133H327.127H327.122H327.116H327.11H327.104H327.099H327.093H327.087H327.081H327.076H327.07H327.064H327.058H327.053H327.047H327.041H327.035H327.03H327.024H327.018H327.012H327.007H327.001H326.995H326.989H326.984H326.978H326.972H326.966H326.961H326.955H326.949H326.943H326.938H326.932H326.926H326.92H326.915H326.909H326.903H326.897H326.891H326.886H326.88H326.874H326.868H326.863H326.857H326.851H326.845H326.84H326.834H326.828H326.822H326.816H326.811H326.805H326.799H326.793H326.788H326.782H326.776H326.77H326.764H326.759H326.753H326.747H326.741H326.736H326.73H326.724H326.718H326.712H326.707H326.701H326.695H326.689H326.683H326.678H326.672H326.666H326.66H326.654H326.649H326.643H326.637H326.631H326.625H326.62H326.614H326.608H326.602H326.596H326.591H326.585H326.579H326.573H326.567H326.562H326.556H326.55H326.544H326.538H326.533H326.527H326.521H326.515H326.509H326.504H326.498H326.492H326.486H326.48H326.474H326.469H326.463H326.457H326.451H326.445H326.44H326.434H326.428H326.422H326.416H326.41H326.405H326.399H326.393H326.387H326.381H326.375H326.37H326.364H326.358H326.352H326.346H326.34H326.334H326.329H326.323H326.317H326.311H326.305H326.299H326.294H326.288H326.282H326.276H326.27H326.264H326.258H326.253H326.247H326.241H326.235H326.229H326.223H326.217H326.212H326.206H326.2H326.194H326.188H326.182H326.176H326.17H326.165H326.159H326.153H326.147H326.141H326.135H326.129H326.123H326.118H326.112H326.106H326.1H326.094H326.088H326.082H326.076H326.071H326.065H326.059H326.053H326.047H326.041H326.035H326.029H326.023H326.017H326.012H326.006H326H325.994H325.988H325.982H325.976H325.97H325.964H325.958H325.952H325.947H325.941H325.935H325.929H325.923H325.917H325.911H325.905H325.899H325.893H325.887H325.881H325.875H325.87H325.864H325.858H325.852H325.846H325.84H325.834H325.828H325.822H325.816H325.81H325.804H325.798H325.792H325.786H325.78H325.774H325.768H325.763H325.757H325.751H325.745H325.739H325.733H325.727H325.721H325.715H325.709H325.703H325.697H325.691H325.685H325.679H325.673H325.667H325.661H325.655H325.649H325.643H325.637H325.631H325.625H325.619H325.613H325.607H325.601H325.595H325.589H325.583H325.577H325.571H325.565H325.559H325.553H325.547H325.541H325.535H325.529H325.523H325.517H325.511H325.505H325.499H325.493H325.487H325.481H325.475H325.469H325.463H325.457H325.451H325.445H325.439H325.433H325.427H325.421H325.415H325.409H325.403H325.396H325.39H325.384H325.378H325.372H325.366H325.36H325.354H325.348H325.342H325.336H325.33H325.324H325.318H325.312H325.306H325.299H325.293H325.287H325.281H325.275H325.269H325.263H325.257H325.251H325.245H325.239H325.233H325.226H325.22H325.214H325.208H325.202H325.196H325.19H325.184H325.178H325.172H325.165H325.159H325.153H325.147H325.141H325.135H325.129H325.123H325.116H325.11H325.104H325.098H325.092H325.086H325.08H325.074H325.067H325.061H325.055H325.049H325.043H325.037H325.031H325.024H325.018H325.012H325.006H325H324.994H324.987H324.981H324.975H324.969H324.963H324.957H324.95H324.944H324.938H324.932H324.926H324.92H324.913H324.907H324.901H324.895H324.889H324.882H324.876H324.87H324.864H324.858H324.851H324.845H324.839H324.833H324.827H324.82H324.814H324.808H324.802H324.795H324.789H324.783H324.777H324.771H324.764H324.758H324.752H324.746C323.443 424.57 322.399 423.528 322.399 422.135V418.851C322.399 418.303 322.514 417.885 322.711 417.566C322.907 417.247 323.187 417.023 323.524 416.866C324.201 416.549 325.1 416.504 325.988 416.504ZM314.251 411.439L314.272 411.534H324.036H324.116L324.08 411.461L322.216 407.734L322.194 407.69L322.15 407.711L314.251 411.439ZM325.678 411.507L325.692 411.534H325.722H328.74H328.79V411.484V411.129C328.79 410.569 328.323 410.102 327.763 410.102H325.012H324.928L324.968 410.176L325.678 411.507ZM324.257 408.665L324.27 408.694H324.302H327.763C329.065 408.694 330.11 409.823 330.11 411.129V411.137V411.145V411.154V411.162V411.17V411.179V411.187V411.195V411.204V411.212V411.22V411.229V411.237V411.246V411.254V411.262V411.271V411.279V411.287V411.296V411.304V411.312V411.321V411.329V411.337V411.346V411.354V411.363V411.371V411.379V411.388V411.396V411.404V411.413V411.421V411.43V411.438V411.446V411.455V411.463V411.472V411.48V411.488V411.497V411.505V411.514V411.522V411.53V411.539V411.547V411.556V411.564V411.572V411.581V411.589V411.598V411.606V411.615V411.623V411.631V411.64V411.648V411.657V411.665V411.674V411.682V411.69V411.699V411.707V411.716V411.724V411.733V411.741V411.75V411.758V411.766V411.775V411.783V411.792V411.8V411.809V411.817V411.826V411.834V411.843V411.851V411.86V411.868V411.876V411.885V411.893V411.902V411.91V411.919V411.927V411.936V411.944V411.953V411.961V411.97V411.978V411.987V411.995V412.004V412.012V412.021V412.029V412.038V412.046V412.055V412.063V412.072V412.08V412.089V412.097V412.106V412.114V412.123V412.131V412.14V412.148V412.157V412.165V412.174V412.182V412.191V412.199V412.208V412.216V412.225V412.233V412.242V412.25V412.259V412.267V412.276V412.284V412.293V412.302V412.31V412.319V412.327V412.336V412.344V412.353V412.361V412.37V412.378V412.387V412.395V412.404V412.412V412.421V412.43V412.438V412.447V412.455V412.464V412.472V412.481V412.489V412.498V412.506V412.515V412.523V412.532V412.541V412.549V412.558V412.566V412.575V412.583V412.592V412.6V412.609V412.618V412.626V412.635V412.643V412.652V412.66V412.669V412.677V412.686V412.695V412.703V412.712V412.72V412.729V412.737V412.746V412.755V412.763V412.772V412.78V412.789V412.797V412.806V412.814V412.823V412.832V412.84V412.849V412.857V412.866V412.874V412.883V412.892V412.9V412.909V412.917V412.926V412.934V412.943V412.952V412.96V412.969V412.977V412.986V412.995V413.003V413.012V413.02V413.029V413.037V413.046V413.055V413.063V413.072V413.08V413.089V413.097V413.106V413.115V413.123V413.132V413.14V413.149V413.157V413.166V413.175V413.183V413.192V413.2V413.209V413.218V413.226V413.235V413.243V413.252V413.26V413.269V413.278V413.286V413.295V413.303V413.312V413.321V413.329V413.338V413.346V413.355V413.363V413.372V413.381V413.389V413.398V413.406V413.415V413.423V413.432V413.441V413.449V413.458V413.466V413.475V413.484V413.492V413.501V413.509V413.518V413.526V413.535V413.544V413.552V413.561V413.569V413.578V413.586V413.595V413.604V413.612V413.621V413.629V413.638V413.647V413.655V413.664V413.672V413.681V413.689V413.698V413.707V413.715V413.724V413.732V413.741V413.749V413.758V413.767V413.775V413.784V413.792V413.801V413.809V413.818V413.827V413.835V413.844V413.852V413.861V413.869V413.878V413.886V413.895V413.904V413.912V413.921V413.929V413.938V413.946V413.955V413.964V413.972V413.981V413.989V413.998V414.006V414.015V414.023V414.032V414.04V414.049V414.058V414.066V414.075V414.083V414.092V414.1V414.109V414.117V414.126V414.135V414.143V414.152V414.16V414.169V414.177V414.186V414.194V414.203V414.211V414.22V414.228V414.237V414.246V414.254V414.263V414.271V414.28V414.288V414.297V414.305V414.314V414.322V414.331V414.339V414.348V414.356V414.365V414.373V414.382V414.39V414.399V414.407V414.416V414.425V414.433V414.442V414.45V414.459V414.467V414.476V414.484V414.493V414.501V414.51V414.518V414.527V414.535V414.544V414.552V414.561V414.569V414.578V414.586V414.595V414.603V414.612V414.62V414.629V414.637V414.645V414.654V414.662V414.671V414.679V414.688V414.696V414.705V414.713V414.722V414.73V414.739V414.747V414.756V414.764V414.773V414.781V414.79V414.798V414.806V414.815V414.823V414.832V414.84V414.849V414.857V414.866V414.874V414.882V414.891V414.899V414.908V414.916V414.925V414.933V414.942V414.95V414.958V414.967V414.975V414.984V414.992V415.001V415.009V415.017V415.026V415.034V415.043V415.051V415.059V415.068V415.076V415.085V415.093V415.102V415.11V415.118V415.127V415.135V415.144V415.152V415.16V415.169V415.177V415.186V415.194V415.202V415.211V415.219V415.227V415.236V415.244V415.253V415.261V415.269V415.278V415.286V415.294V415.303V415.311V415.319V415.328V415.336V415.345V415.353V415.361V415.37V415.378V415.386V415.395V415.403V415.411V415.42V415.428V415.436V415.445V415.453V415.461V415.47V415.478C330.11 415.833 330.109 416.088 329.938 416.432L329.901 416.504H329.982H330.515C331.821 416.504 332.95 417.549 332.95 418.851V422.135C332.95 423.438 331.819 424.57 330.515 424.57H329.982H329.889L329.941 424.648C330.108 424.899 330.11 425.237 330.11 425.596V429.945C330.11 431.249 329.067 432.292 327.763 432.292H305.485C304.179 432.292 303.05 431.247 303.05 429.945V411.129C303.05 409.825 304.181 408.694 305.485 408.694H316.757H316.769L316.779 408.689L322.282 406.115L322.282 406.115L322.283 406.114C322.61 405.951 323.025 406.113 323.192 406.447C323.192 406.447 323.192 406.447 323.192 406.447L324.257 408.665Z" fill="#2ACCD7" stroke="#153F4C" stroke-width="0.1"/>
<path d="M366.553 427H364.268L362.088 419.336C361.994 419.002 361.877 418.521 361.736 417.895C361.596 417.262 361.511 416.822 361.481 416.576C361.423 416.951 361.326 417.438 361.191 418.035C361.062 418.633 360.954 419.078 360.866 419.371L358.739 427H356.454L354.793 420.566L353.105 414.15H355.25L357.087 421.639C357.374 422.84 357.579 423.9 357.702 424.82C357.767 424.322 357.863 423.766 357.992 423.15C358.121 422.535 358.238 422.037 358.344 421.656L360.436 414.15H362.519L364.663 421.691C364.868 422.389 365.085 423.432 365.313 424.82C365.401 423.982 365.612 422.916 365.946 421.621L367.774 414.15H369.901L366.553 427ZM380.781 427L379.498 423.432H374.585L373.328 427H371.113L375.921 414.098H378.206L383.014 427H380.781ZM378.944 421.621L377.74 418.123C377.652 417.889 377.529 417.52 377.371 417.016C377.219 416.512 377.113 416.143 377.055 415.908C376.896 416.629 376.665 417.417 376.36 418.272L375.2 421.621H378.944ZM385.79 427V414.15H387.89V425.198H393.331V427H385.79ZM396.626 427V414.15H398.726V425.198H404.167V427H396.626ZM414.73 427H407.462V414.15H414.73V415.926H409.562V419.424H414.405V421.182H409.562V425.216H414.73V427ZM423.035 427H420.934V415.952H417.155V414.15H426.814V415.952H423.035V427ZM437.281 423.511C437.281 424.653 436.868 425.55 436.042 426.2C435.215 426.851 434.076 427.176 432.623 427.176C431.169 427.176 429.98 426.95 429.054 426.499V424.513C429.64 424.788 430.261 425.005 430.918 425.163C431.58 425.321 432.195 425.4 432.763 425.4C433.595 425.4 434.208 425.242 434.6 424.926C434.999 424.609 435.198 424.185 435.198 423.651C435.198 423.171 435.016 422.764 434.653 422.43C434.29 422.096 433.54 421.7 432.403 421.243C431.231 420.769 430.405 420.227 429.924 419.617C429.444 419.008 429.204 418.275 429.204 417.42C429.204 416.348 429.584 415.504 430.346 414.889C431.108 414.273 432.13 413.966 433.414 413.966C434.644 413.966 435.869 414.235 437.087 414.774L436.419 416.488C435.277 416.008 434.257 415.768 433.361 415.768C432.681 415.768 432.166 415.917 431.814 416.216C431.462 416.509 431.287 416.898 431.287 417.385C431.287 417.719 431.357 418.006 431.498 418.246C431.638 418.48 431.87 418.703 432.192 418.914C432.514 419.125 433.094 419.403 433.932 419.749C434.876 420.142 435.567 420.508 436.006 420.848C436.446 421.188 436.768 421.571 436.973 421.999C437.178 422.427 437.281 422.931 437.281 423.511Z" fill="#29D1DC"/>
<rect x="283" y="308" width="186" height="58" rx="3" fill="#0B1C2C"/>
<path d="M306.032 333.995V334.045H306.082H326.467H326.517V333.995V332.225V332.175H326.467H306.082H306.032V332.225V333.995ZM326.94 334.893H305.608C305.375 334.893 305.185 334.703 305.185 334.469V331.751C305.185 331.517 305.375 331.328 305.608 331.328H326.94C327.174 331.328 327.364 331.517 327.364 331.751V334.469C327.364 334.703 327.174 334.893 326.94 334.893Z" fill="#2ACCD7" stroke="#153F4C" stroke-width="0.1"/>
<path d="M304.175 350.421V350.471H304.225H328.325H328.375V350.421V348.742V348.692H328.325H304.225H304.175V348.742V350.421ZM328.798 351.319H303.751C303.517 351.319 303.327 351.129 303.327 350.895V348.268C303.327 348.035 303.517 347.845 303.751 347.845H328.798C329.032 347.845 329.222 348.035 329.222 348.268V350.895C329.222 351.129 329.032 351.319 328.798 351.319Z" fill="#2ACCD7" stroke="#153F4C" stroke-width="0.1"/>
<path d="M322.08 334.892H322.03V334.942V336.461V336.511H322.08H325.42H325.47L325.47 336.461L325.47 334.942L325.47 334.892H325.42H322.08ZM325.42 337.358H322.08C321.585 337.358 321.183 336.956 321.183 336.461V334.942C321.183 334.448 321.585 334.045 322.08 334.045H325.42C325.915 334.045 326.317 334.448 326.317 334.942V336.461C326.317 336.956 325.915 337.358 325.42 337.358Z" fill="#2ACCD7" stroke="#153F4C" stroke-width="0.1"/>
<path d="M322.78 345.301V345.351H322.83H324.67H324.72V345.301V337.408V337.358H324.67H322.83H322.78V337.408V345.301ZM325.144 346.198H322.357C322.123 346.198 321.933 346.008 321.933 345.775V336.934C321.933 336.701 322.123 336.511 322.357 336.511H325.144C325.378 336.511 325.568 336.701 325.568 336.934V345.775C325.568 346.008 325.378 346.198 325.144 346.198Z" fill="#2ACCD7" stroke="#153F4C" stroke-width="0.1"/>
<path d="M307.129 334.892H307.079V334.942V336.461V336.511H307.129H310.469H310.519L310.519 336.461L310.519 334.942L310.518 334.892H310.469H307.129ZM310.469 337.358H307.129C306.634 337.358 306.232 336.956 306.232 336.461V334.942C306.232 334.448 306.634 334.045 307.129 334.045H310.469C310.963 334.045 311.366 334.448 311.366 334.942V336.461C311.366 336.956 310.963 337.358 310.469 337.358Z" fill="#2ACCD7" stroke="#153F4C" stroke-width="0.1"/>
<path d="M307.129 346.198H307.079V346.248V347.795V347.845H307.129H310.469H310.519L310.519 347.795L310.519 346.248L310.518 346.198H310.469H307.129ZM310.469 348.692H307.129C306.634 348.692 306.232 348.29 306.232 347.795V346.248C306.232 345.754 306.634 345.351 307.129 345.351H310.469C310.963 345.351 311.366 345.754 311.366 346.248V347.795C311.366 348.29 310.963 348.692 310.469 348.692Z" fill="#2ACCD7" stroke="#153F4C" stroke-width="0.1"/>
<path d="M322.08 346.198H322.03V346.248V347.795V347.845H322.08H325.42H325.47L325.47 347.795L325.47 346.248L325.47 346.198H325.42H322.08ZM325.42 348.692H322.08C321.585 348.692 321.183 348.29 321.183 347.795V346.248C321.183 345.754 321.585 345.351 322.08 345.351H325.42C325.915 345.351 326.317 345.754 326.317 346.248V347.795C326.317 348.29 325.915 348.692 325.42 348.692Z" fill="#2ACCD7" stroke="#153F4C" stroke-width="0.1"/>
<path d="M307.829 345.301V345.351H307.879H309.719H309.769V345.301V337.408V337.358H309.719H307.879H307.829V337.408V345.301ZM310.193 346.198H307.405C307.171 346.198 306.982 346.008 306.982 345.775V336.934C306.982 336.701 307.171 336.511 307.405 336.511H310.193C310.427 336.511 310.617 336.701 310.617 336.934V345.775C310.617 346.008 310.427 346.198 310.193 346.198Z" fill="#2ACCD7" stroke="#153F4C" stroke-width="0.1"/>
<path d="M314.558 336.461V336.511H314.608H317.947H317.997V336.461V334.942V334.892H317.947H314.608H314.558V334.942V336.461ZM317.986 337.358H314.568C314.095 337.358 313.71 336.972 313.71 336.496V334.906C313.71 334.431 314.095 334.045 314.568 334.045H317.986C318.459 334.045 318.844 334.431 318.844 334.906V336.496C318.844 336.972 318.459 337.358 317.986 337.358Z" fill="#2ACCD7" stroke="#153F4C" stroke-width="0.1"/>
<path d="M314.824 346.198H314.774V346.248V347.795V347.845H314.824H317.73H317.78L317.78 347.795L317.779 346.248L317.779 346.198H317.729H314.824ZM317.729 348.692H314.824C314.329 348.692 313.927 348.29 313.927 347.795V346.248C313.927 345.754 314.329 345.351 314.824 345.351H317.729C318.224 345.351 318.627 345.754 318.627 346.248V347.795C318.627 348.29 318.224 348.692 317.729 348.692Z" fill="#2ACCD7" stroke="#153F4C" stroke-width="0.1"/>
<path d="M315.306 345.301V345.351H315.356H317.196H317.246V345.301V337.408V337.358H317.196H315.356H315.306V337.408V345.301ZM317.669 346.198H314.882C314.648 346.198 314.458 346.008 314.458 345.775V336.934C314.458 336.701 314.648 336.511 314.882 336.511H317.669C317.903 336.511 318.093 336.701 318.093 336.934V345.775C318.093 346.008 317.903 346.198 317.669 346.198Z" fill="#2ACCD7" stroke="#153F4C" stroke-width="0.1"/>
<path d="M303.225 331.408L303.225 331.408L316.027 322.131L316.028 322.13C316.173 322.025 316.371 322.023 316.519 322.127L329.769 331.404L329.769 331.404C329.921 331.51 329.986 331.702 329.93 331.879C329.875 332.055 329.711 332.175 329.526 332.175H303.474C303.29 332.175 303.127 332.057 303.071 331.882C303.014 331.707 303.076 331.516 303.225 331.408ZM304.905 331.237L304.78 331.328H304.934H328.024H328.182L328.053 331.237L316.309 323.014L316.28 322.994L316.251 323.015L304.905 331.237Z" fill="#2ACCD7" stroke="#153F4C" stroke-width="0.1"/>
<path d="M316.276 329.741C315.301 329.741 314.507 328.941 314.507 327.958C314.507 326.975 315.301 326.176 316.276 326.176C317.25 326.176 318.044 326.975 318.044 327.958C318.044 328.941 317.25 329.741 316.276 329.741ZM316.276 327.023C315.767 327.023 315.354 327.443 315.354 327.958C315.354 328.473 315.767 328.893 316.276 328.893C316.784 328.893 317.196 328.473 317.196 327.958C317.196 327.443 316.784 327.023 316.276 327.023Z" fill="#2ACCD7" stroke="#153F4C" stroke-width="0.1"/>
<path d="M351.696 331.15H355.511C357.28 331.15 358.558 331.408 359.343 331.924C360.134 332.439 360.529 333.254 360.529 334.367C360.529 335.117 360.336 335.741 359.949 336.239C359.562 336.737 359.006 337.051 358.279 337.18V337.268C359.182 337.438 359.844 337.774 360.266 338.278C360.693 338.776 360.907 339.453 360.907 340.309C360.907 341.463 360.503 342.368 359.694 343.024C358.892 343.675 357.772 344 356.337 344H351.696V331.15ZM353.797 336.459H355.818C356.697 336.459 357.339 336.321 357.743 336.046C358.147 335.765 358.35 335.29 358.35 334.622C358.35 334.019 358.13 333.582 357.69 333.312C357.257 333.043 356.565 332.908 355.616 332.908H353.797V336.459ZM353.797 338.164V342.233H356.029C356.908 342.233 357.57 342.066 358.016 341.732C358.467 341.393 358.692 340.859 358.692 340.133C358.692 339.465 358.464 338.97 358.007 338.647C357.55 338.325 356.855 338.164 355.924 338.164H353.797ZM372.631 344L371.348 340.432H366.434L365.178 344H362.963L367.77 331.098H370.056L374.863 344H372.631ZM370.794 338.621L369.59 335.123C369.502 334.889 369.379 334.52 369.221 334.016C369.068 333.512 368.963 333.143 368.904 332.908C368.746 333.629 368.515 334.417 368.21 335.272L367.05 338.621H370.794ZM388.345 344H385.769L379.45 333.761H379.38L379.424 334.332C379.506 335.422 379.547 336.418 379.547 337.32V344H377.639V331.15H380.188L386.49 341.337H386.543C386.531 341.202 386.508 340.713 386.472 339.869C386.437 339.02 386.42 338.357 386.42 337.883V331.15H388.345V344ZM402.626 344H400.191L396.157 338.182L394.918 339.192V344H392.817V331.15H394.918V337.285C395.492 336.582 396.063 335.905 396.632 335.255L400.103 331.15H402.494C400.25 333.787 398.641 335.665 397.669 336.784L402.626 344ZM405.411 344V331.15H407.511V344H405.411ZM422.698 344H420.123L413.803 333.761H413.733L413.777 334.332C413.859 335.422 413.9 336.418 413.9 337.32V344H411.993V331.15H414.542L420.843 341.337H420.896C420.884 341.202 420.861 340.713 420.826 339.869C420.791 339.02 420.773 338.357 420.773 337.883V331.15H422.698V344ZM432.426 337.03H437.155V343.481C436.381 343.733 435.637 343.912 434.922 344.018C434.213 344.123 433.446 344.176 432.62 344.176C430.674 344.176 429.174 343.602 428.12 342.453C427.065 341.299 426.538 339.673 426.538 337.575C426.538 335.507 427.132 333.89 428.322 332.724C429.511 331.552 431.149 330.966 433.235 330.966C434.577 330.966 435.848 331.224 437.049 331.739L436.311 333.488C435.268 333.008 434.225 332.768 433.182 332.768C431.811 332.768 430.727 333.198 429.93 334.06C429.133 334.921 428.735 336.099 428.735 337.593C428.735 339.163 429.092 340.358 429.807 341.179C430.528 341.993 431.562 342.4 432.91 342.4C433.589 342.4 434.316 342.315 435.089 342.146V338.832H432.426V337.03Z" fill="#29D1DC"/>
<rect x="283" y="225" width="186" height="58" rx="3" fill="#0B1C2C"/>
<path d="M316.552 239.937C316.552 241.295 316.529 243.005 316.529 244.223C317.232 244.34 317.911 244.458 318.59 244.598C319.551 244.809 320.441 245.184 321.26 245.769C323.251 247.221 323.509 251.461 320.745 252.866C320.698 252.89 320.651 252.937 320.581 252.983C321.143 253.241 321.705 253.405 322.197 253.71C323.275 254.342 323.907 255.302 324.071 256.567C324.259 257.855 324.141 259.12 323.65 260.315C322.994 261.861 321.776 262.751 320.206 263.126C319.012 263.43 317.77 263.524 316.529 263.735C316.459 263.735 316.412 263.758 316.318 263.758C316.295 265.023 316.295 266.639 316.271 268.021H313.695C313.695 266.686 313.718 265.07 313.718 263.758C313.039 263.735 312.383 263.711 311.657 263.711C311.634 264.999 311.634 266.639 311.61 268.021H309.034C309.034 266.639 309.057 264.976 309.057 263.641C307.3 263.617 305.614 263.594 303.857 263.571C304.045 262.54 304.209 261.556 304.396 260.502C304.982 260.502 305.544 260.502 306.106 260.502C306.106 260.502 306.106 260.502 306.129 260.502C306.926 260.502 307.254 260.174 307.254 259.378C307.3 255.7 307.347 252.023 307.371 248.346C307.371 247.456 306.902 246.964 306.012 246.893C305.684 246.87 305.356 246.87 305.028 246.87C304.7 246.87 304.373 246.87 303.998 246.847C303.998 245.933 304.021 245.043 304.021 244.106C305.755 244.13 307.464 244.13 309.221 244.153C309.315 242.982 309.338 241.295 309.338 239.937H311.915C311.915 241.272 311.891 242.912 311.891 244.13C312.571 244.13 313.226 244.13 313.953 244.13C313.976 242.935 313.976 241.272 313.999 239.937H316.552ZM313.18 252.351C314.234 252.351 315.264 252.281 316.271 251.929C317.302 251.601 317.888 250.875 317.934 249.868C317.981 248.908 317.513 248.135 316.552 247.713C315.498 247.245 314.374 247.175 313.25 247.175C312.828 247.175 312.383 247.175 311.938 247.175C311.915 248.931 311.915 250.618 311.891 252.328C312.313 252.328 312.735 252.351 313.18 252.351ZM311.938 254.928C311.891 254.928 311.868 254.928 311.821 254.928C311.798 256.825 311.774 258.699 311.751 260.596C312.172 260.596 312.571 260.619 312.969 260.619C312.992 260.619 313.039 260.619 313.062 260.619C314.562 260.596 316.084 260.596 317.489 259.963C318.426 259.542 319.012 258.863 319.012 257.785C319.012 256.708 318.45 255.982 317.513 255.583C316.201 254.998 314.796 254.928 313.344 254.928C312.898 254.928 312.43 254.928 311.938 254.928ZM316.552 239H313.976C313.461 239 313.039 239.422 313.039 239.937C313.039 240.499 313.016 241.131 313.016 241.74C313.016 242.232 313.016 242.724 312.992 243.193H312.805C312.805 242.724 312.805 242.232 312.805 241.717L312.852 239.937C312.852 239.679 312.758 239.445 312.571 239.281C312.407 239.094 312.172 239 311.915 239H309.338C308.823 239 308.401 239.422 308.401 239.937C308.401 240.522 308.378 241.155 308.378 241.787C308.378 242.303 308.378 242.794 308.354 243.286L306.926 243.263L304.115 243.216C303.6 243.216 303.178 243.638 303.178 244.153L303.155 246.074V246.893C303.155 247.409 303.553 247.83 304.068 247.83H304.419C304.654 247.83 304.864 247.83 305.099 247.83C305.169 247.83 305.239 247.83 305.333 247.83C305.567 247.83 305.801 247.83 306.036 247.854C306.457 247.877 306.527 247.994 306.527 248.369C306.481 252.093 306.457 255.864 306.41 259.401C306.41 259.495 306.41 259.542 306.387 259.589C306.34 259.589 306.293 259.589 306.2 259.589C305.801 259.589 305.403 259.589 305.005 259.589H304.466C304.021 259.589 303.623 259.917 303.553 260.362L303.295 261.837L303.014 263.43C302.967 263.711 303.037 263.969 303.225 264.18C303.412 264.39 303.67 264.507 303.928 264.507H304.232L308.19 264.554C308.19 265.023 308.19 265.491 308.19 265.983V267.997C308.19 268.255 308.284 268.489 308.472 268.653C308.659 268.841 308.893 268.934 309.127 268.934H311.704C312.219 268.934 312.641 268.513 312.641 267.997C312.641 267.365 312.664 266.686 312.664 266.007C312.664 265.538 312.664 265.07 312.688 264.625H312.711H312.875C312.875 265.093 312.875 265.585 312.875 266.053V267.951C312.875 268.208 312.969 268.442 313.156 268.606C313.344 268.794 313.578 268.888 313.812 268.888H316.388C316.904 268.888 317.325 268.466 317.325 267.951C317.325 267.318 317.349 266.639 317.349 265.96C317.349 265.444 317.349 264.952 317.372 264.461C317.56 264.437 317.747 264.414 317.911 264.39C318.778 264.273 319.668 264.156 320.534 263.922C322.478 263.43 323.884 262.282 324.61 260.549C325.149 259.261 325.313 257.832 325.102 256.309C324.868 254.764 324.071 253.546 322.759 252.796C322.666 252.749 322.596 252.702 322.502 252.656C323.228 251.859 323.673 250.805 323.767 249.587C323.907 247.69 323.181 245.863 321.869 244.926C320.979 244.294 319.996 243.849 318.848 243.591C318.403 243.497 317.958 243.403 317.536 243.333C317.536 242.818 317.536 242.279 317.536 241.717C317.536 241.085 317.536 240.452 317.56 239.867C317.56 239.843 317.56 239.843 317.56 239.82C317.489 239.422 317.091 239 316.552 239ZM312.852 248.088C312.969 248.088 313.109 248.088 313.226 248.088C314.374 248.088 315.288 248.158 316.154 248.557C316.74 248.814 317.021 249.236 316.997 249.821C316.974 250.22 316.857 250.758 315.967 251.063C315.194 251.32 314.327 251.438 313.18 251.438C313.062 251.438 312.945 251.438 312.828 251.438V250.547L312.852 248.088ZM312.758 255.864C312.945 255.864 313.156 255.864 313.344 255.864C314.608 255.864 315.92 255.911 317.161 256.45C317.817 256.731 318.098 257.153 318.098 257.809C318.098 258.254 317.981 258.769 317.138 259.144C315.897 259.682 314.538 259.706 313.109 259.706H313.086H312.992C312.898 259.706 312.828 259.706 312.735 259.706L312.758 256.708V255.864Z" fill="#2ACCD7"/>
<path d="M352.163 249.768C350.956 249.768 350.007 250.195 349.315 251.051C348.624 251.906 348.278 253.087 348.278 254.593C348.278 256.169 348.609 257.361 349.271 258.17C349.939 258.979 350.903 259.383 352.163 259.383C352.708 259.383 353.235 259.33 353.745 259.225C354.255 259.113 354.785 258.973 355.336 258.803V260.604C354.328 260.985 353.186 261.176 351.908 261.176C350.027 261.176 348.583 260.607 347.575 259.471C346.567 258.328 346.063 256.696 346.063 254.575C346.063 253.239 346.307 252.07 346.793 251.068C347.285 250.066 347.994 249.299 348.92 248.766C349.846 248.232 350.933 247.966 352.181 247.966C353.493 247.966 354.706 248.241 355.819 248.792L355.063 250.541C354.63 250.336 354.17 250.157 353.684 250.005C353.203 249.847 352.696 249.768 352.163 249.768ZM361.285 254.127H362.744C363.723 254.127 364.432 253.945 364.871 253.582C365.31 253.219 365.53 252.68 365.53 251.965C365.53 251.238 365.293 250.717 364.818 250.4C364.344 250.084 363.629 249.926 362.674 249.926H361.285V254.127ZM361.285 255.867V261H359.184V248.15H362.814C364.473 248.15 365.7 248.461 366.497 249.082C367.294 249.703 367.692 250.641 367.692 251.895C367.692 253.494 366.86 254.634 365.196 255.313L368.826 261H366.435L363.359 255.867H361.285ZM375.408 254.013L378.449 248.15H380.734L376.454 256.017V261H374.345V256.087L370.082 248.15H372.367L375.408 254.013ZM392.018 252.035C392.018 253.377 391.579 254.405 390.7 255.12C389.821 255.835 388.57 256.192 386.947 256.192H385.611V261H383.511V248.15H387.211C388.816 248.15 390.017 248.479 390.814 249.135C391.617 249.791 392.018 250.758 392.018 252.035ZM385.611 254.426H386.727C387.805 254.426 388.596 254.238 389.1 253.863C389.604 253.488 389.856 252.902 389.856 252.105C389.856 251.367 389.631 250.816 389.179 250.453C388.728 250.09 388.025 249.908 387.07 249.908H385.611V254.426ZM400.103 261H398.003V249.952H394.223V248.15H403.882V249.952H400.103V261ZM418.348 254.558C418.348 256.649 417.824 258.275 416.775 259.436C415.732 260.596 414.253 261.176 412.337 261.176C410.397 261.176 408.906 260.602 407.863 259.453C406.826 258.299 406.307 256.661 406.307 254.54C406.307 252.419 406.829 250.79 407.872 249.653C408.921 248.517 410.415 247.948 412.354 247.948C414.264 247.948 415.741 248.525 416.784 249.68C417.827 250.834 418.348 252.46 418.348 254.558ZM408.54 254.558C408.54 256.14 408.859 257.341 409.498 258.161C410.136 258.976 411.083 259.383 412.337 259.383C413.585 259.383 414.525 258.979 415.158 258.17C415.796 257.361 416.116 256.157 416.116 254.558C416.116 252.981 415.799 251.786 415.167 250.972C414.54 250.157 413.602 249.75 412.354 249.75C411.094 249.75 410.142 250.157 409.498 250.972C408.859 251.786 408.54 252.981 408.54 254.558Z" fill="#29D1DC"/>
<rect x="283" y="474" width="186" height="57" rx="3" fill="#0B1C2C"/>
<path d="M360.163 498.768C358.956 498.768 358.007 499.195 357.315 500.051C356.624 500.906 356.278 502.087 356.278 503.593C356.278 505.169 356.609 506.361 357.271 507.17C357.939 507.979 358.903 508.383 360.163 508.383C360.708 508.383 361.235 508.33 361.745 508.225C362.255 508.113 362.785 507.973 363.336 507.803V509.604C362.328 509.985 361.186 510.176 359.908 510.176C358.027 510.176 356.583 509.607 355.575 508.471C354.567 507.328 354.063 505.696 354.063 503.575C354.063 502.239 354.307 501.07 354.793 500.068C355.285 499.066 355.994 498.299 356.92 497.766C357.846 497.232 358.933 496.966 360.181 496.966C361.493 496.966 362.706 497.241 363.819 497.792L363.063 499.541C362.63 499.336 362.17 499.157 361.684 499.005C361.203 498.847 360.696 498.768 360.163 498.768ZM375.156 510L373.873 506.432H368.96L367.703 510H365.488L370.296 497.098H372.581L377.389 510H375.156ZM373.319 504.621L372.115 501.123C372.027 500.889 371.904 500.52 371.746 500.016C371.594 499.512 371.488 499.143 371.43 498.908C371.271 499.629 371.04 500.417 370.735 501.272L369.575 504.621H373.319ZM387.574 506.511C387.574 507.653 387.161 508.55 386.335 509.2C385.509 509.851 384.369 510.176 382.916 510.176C381.463 510.176 380.273 509.95 379.347 509.499V507.513C379.933 507.788 380.555 508.005 381.211 508.163C381.873 508.321 382.488 508.4 383.056 508.4C383.889 508.4 384.501 508.242 384.893 507.926C385.292 507.609 385.491 507.185 385.491 506.651C385.491 506.171 385.309 505.764 384.946 505.43C384.583 505.096 383.833 504.7 382.696 504.243C381.524 503.769 380.698 503.227 380.218 502.617C379.737 502.008 379.497 501.275 379.497 500.42C379.497 499.348 379.878 498.504 380.639 497.889C381.401 497.273 382.424 496.966 383.707 496.966C384.937 496.966 386.162 497.235 387.381 497.774L386.713 499.488C385.57 499.008 384.551 498.768 383.654 498.768C382.974 498.768 382.459 498.917 382.107 499.216C381.756 499.509 381.58 499.898 381.58 500.385C381.58 500.719 381.65 501.006 381.791 501.246C381.931 501.48 382.163 501.703 382.485 501.914C382.807 502.125 383.388 502.403 384.225 502.749C385.169 503.142 385.86 503.508 386.3 503.848C386.739 504.188 387.061 504.571 387.266 504.999C387.472 505.427 387.574 505.931 387.574 506.511ZM401.275 510H399.166V504.208H393.242V510H391.141V497.15H393.242V502.406H399.166V497.15H401.275V510Z" fill="#29D1DC"/>
<path d="M312.543 520C316.272 520 319.507 517.848 321.076 514.723C321.478 514.741 321.877 514.754 322.262 514.754C322.434 514.754 322.601 514.754 322.772 514.749C322.958 514.745 323.145 514.741 323.327 514.728C323.41 514.727 323.491 514.723 323.581 514.72C323.594 514.72 323.607 514.719 323.62 514.718L324.154 514.68C324.296 514.672 324.428 514.659 324.584 514.644C329.17 514.213 332.304 512.575 332.44 510.557C332.455 510.475 332.624 509.539 332.624 508.551C332.624 507.727 332.505 506.917 332.454 506.627C332.565 505.95 332.624 505.286 332.624 504.707C332.624 504.137 332.567 503.485 332.456 502.796C332.565 502.12 332.624 501.46 332.624 500.883C332.624 500.033 332.502 499.238 332.458 498.979C332.507 498.686 332.622 497.905 332.622 497.086C332.622 496.249 332.501 495.451 332.455 495.175C332.501 494.899 332.622 494.102 332.622 493.264C332.622 492.393 332.491 491.565 332.45 491.323C332.437 488.858 328.062 487 322.262 487C316.454 487 312.074 488.863 312.074 491.334C312.074 491.337 312.074 491.339 312.074 491.341C312.028 491.609 311.905 492.414 311.905 493.259C311.905 494.096 312.026 494.895 312.073 495.17C312.026 495.446 311.905 496.244 311.905 497.082C311.905 497.911 312.024 498.704 312.072 498.986C312.023 499.274 311.903 500.055 311.903 500.878C311.903 500.899 311.905 500.918 311.905 500.938C306.94 501.267 303 505.41 303 510.457C303 515.719 307.281 520 312.543 520ZM313.005 500.926C313.005 500.91 313.003 500.894 313.003 500.878C313.003 500.865 313.004 500.852 313.004 500.839C313.037 500.871 313.076 500.901 313.112 500.933C313.076 500.931 313.041 500.928 313.005 500.926ZM329.01 501.683C328.914 501.395 328.602 501.239 328.315 501.335C326.633 501.894 324.484 502.202 322.263 502.202C318.963 502.202 315.893 501.521 314.25 500.426C314.249 500.424 314.247 500.423 314.245 500.422C313.77 500.102 313.209 499.599 313.181 499.003C313.182 498.993 313.179 498.983 313.179 498.972V498.968C313.179 498.96 313.177 498.954 313.176 498.946C313.175 498.928 313.175 498.91 313.172 498.891C313.172 498.891 313.17 498.882 313.169 498.879C313.168 498.868 313.166 498.857 313.164 498.846C313.13 498.653 313.005 497.873 313.005 497.082C313.005 497.063 313.006 497.044 313.006 497.026C313.174 497.182 313.37 497.338 313.6 497.494C313.694 497.557 313.802 497.588 313.908 497.588C314.084 497.588 314.257 497.504 314.364 497.346C314.534 497.095 314.468 496.753 314.216 496.582C313.754 496.27 313.204 495.776 313.179 495.193C313.18 495.185 313.18 495.178 313.18 495.17C313.18 495.15 313.177 495.13 313.175 495.11C313.174 495.097 313.174 495.083 313.172 495.069C313.17 495.06 313.005 494.168 313.005 493.259C313.005 493.242 313.006 493.224 313.006 493.207C314.59 494.688 318.05 495.668 322.262 495.668C326.477 495.668 329.939 494.686 331.521 493.203C331.521 493.224 331.522 493.244 331.522 493.264C331.522 494.172 331.358 495.065 331.356 495.074C331.354 495.084 331.355 495.093 331.354 495.102C331.353 495.108 331.353 495.112 331.352 495.118C331.35 495.137 331.347 495.156 331.347 495.175C331.347 495.176 331.347 495.178 331.347 495.18C331.332 495.777 330.76 496.282 330.279 496.603C328.641 497.702 325.569 498.385 322.262 498.385C319.714 498.385 317.338 497.995 315.575 497.285C315.294 497.172 314.973 497.308 314.859 497.59C314.746 497.872 314.883 498.193 315.165 498.306C317.056 499.067 319.577 499.485 322.262 499.485C325.829 499.485 329.055 498.749 330.89 497.517C331.136 497.353 331.344 497.188 331.521 497.023C331.521 497.044 331.522 497.065 331.522 497.086C331.522 497.868 331.401 498.635 331.366 498.84C331.355 498.882 331.348 498.926 331.348 498.971C331.348 498.974 331.349 498.976 331.349 498.979C331.348 498.984 331.347 498.99 331.347 498.996C331.335 499.589 330.758 500.098 330.276 500.422C330.154 500.504 330.023 500.584 329.884 500.661C329.619 500.809 329.524 501.144 329.671 501.409C329.772 501.59 329.959 501.692 330.152 501.692C330.243 501.692 330.335 501.669 330.42 501.622C330.578 501.534 330.726 501.442 330.867 501.349C330.881 501.34 330.895 501.332 330.909 501.322C331.148 501.16 331.35 500.998 331.523 500.836C331.523 500.852 331.524 500.867 331.524 500.883C331.524 501.25 331.496 501.853 331.362 502.675C331.362 502.675 331.362 502.676 331.362 502.676C331.353 502.715 331.348 502.754 331.348 502.795C331.348 502.798 331.349 502.801 331.349 502.804C331.339 503.389 330.792 503.888 330.317 504.212C330.302 504.22 330.288 504.229 330.274 504.238C328.641 505.335 325.571 506.016 322.262 506.016C321.808 506.016 321.378 506.001 320.966 505.978C320.353 504.829 319.511 503.82 318.502 503.011C319.675 503.2 320.945 503.301 322.263 503.301C324.598 503.301 326.871 502.973 328.662 502.378C328.95 502.283 329.106 501.971 329.01 501.683ZM324.462 513.551C324.337 513.563 324.216 513.574 324.081 513.582L323.56 513.62C323.543 513.62 323.522 513.62 323.516 513.621C323.432 513.625 323.351 513.624 323.267 513.63C323.097 513.642 322.921 513.646 322.745 513.65C322.587 513.654 322.433 513.654 322.275 513.654C322.037 513.652 321.789 513.648 321.538 513.641C321.84 512.787 322.027 511.879 322.074 510.934C322.137 510.935 322.198 510.937 322.262 510.937C322.646 510.937 323.032 510.928 323.409 510.911C323.713 510.897 323.948 510.64 323.934 510.337C323.92 510.033 323.663 509.804 323.359 509.812C322.931 509.832 322.494 509.836 322.063 509.832C322.001 508.878 321.799 507.961 321.475 507.103C321.732 507.111 321.993 507.116 322.262 507.116C325.804 507.116 329.007 506.392 330.845 505.178C330.857 505.172 330.868 505.165 330.879 505.158C330.886 505.154 330.893 505.15 330.899 505.145C331.142 504.982 331.348 504.818 331.523 504.654C331.523 504.671 331.523 504.69 331.523 504.706C331.523 505.073 331.496 505.675 331.361 506.494C331.353 506.534 331.348 506.576 331.348 506.614C331.348 506.619 331.349 506.623 331.349 506.628C331.332 507.227 330.758 507.733 330.279 508.053C330.267 508.061 330.255 508.069 330.244 508.078C330.246 508.076 330.247 508.076 330.239 508.081C329.129 508.812 327.364 509.367 325.268 509.644C324.967 509.683 324.755 509.96 324.795 510.261C324.831 510.538 325.067 510.739 325.339 510.739C325.363 510.739 325.388 510.738 325.412 510.734C327.669 510.436 329.598 509.82 330.837 509.004C330.852 508.995 330.881 508.978 330.915 508.951C331.15 508.792 331.351 508.632 331.522 508.473C331.522 508.498 331.523 508.524 331.523 508.55C331.523 509.458 331.358 510.352 331.357 510.361C331.352 510.388 331.351 510.415 331.35 510.441C331.35 510.443 331.35 510.445 331.35 510.447C331.315 511.642 328.896 513.134 324.462 513.551ZM322.262 488.1C327.602 488.1 331.327 489.794 331.349 491.32C331.348 491.335 331.348 491.349 331.348 491.363C331.302 492.885 327.584 494.568 322.262 494.568C316.964 494.568 313.257 492.901 313.178 491.384C313.179 491.355 313.179 491.326 313.176 491.298C313.235 489.778 316.948 488.1 322.262 488.1ZM312.543 502.014C317.158 502.014 320.918 505.737 320.983 510.336C320.982 510.342 320.981 510.348 320.98 510.354C320.979 510.38 320.982 510.405 320.985 510.43C320.985 510.439 320.986 510.448 320.986 510.457C320.986 515.112 317.198 518.9 312.543 518.9C307.888 518.9 304.1 515.112 304.1 510.457C304.1 505.802 307.888 502.014 312.543 502.014Z" fill="#29D1DC"/>
<path d="M312.454 511.079H312.543C312.94 511.079 313.319 511.271 313.557 511.594C313.787 511.91 313.853 512.313 313.735 512.703C313.599 513.116 313.246 513.441 312.842 513.531C312.758 513.554 312.668 513.564 312.548 513.564C312.008 513.564 311.53 513.22 311.357 512.709C311.278 512.467 311.044 512.305 310.776 512.305C310.577 512.305 310.387 512.402 310.27 512.564C310.134 512.753 310.016 512.947 310.064 513.094C310.289 513.795 311.005 514.415 311.575 514.694L311.678 514.745V515.661C311.678 515.974 312.173 516.28 312.543 516.28C312.913 516.28 313.408 515.974 313.408 515.661V514.741L313.516 514.692C314.016 514.467 314.681 513.93 314.959 513.283C315.263 512.565 315.162 511.635 314.691 510.797C314.308 510.131 313.477 509.683 312.621 509.683H312.543C312.061 509.683 311.71 509.52 311.498 509.197C311.265 508.84 311.23 508.445 311.399 508.054C311.549 507.699 311.877 507.437 312.273 507.354C312.366 507.334 312.454 507.334 312.532 507.334C313.075 507.334 313.556 507.679 313.729 508.194C313.809 508.438 314.046 508.608 314.305 508.608C314.508 508.608 314.699 508.511 314.815 508.351C314.92 508.2 315.08 507.973 315.028 507.817C314.772 507.055 313.982 506.451 313.514 506.231L313.408 506.181V505.247C313.408 504.937 312.913 504.633 312.543 504.633C312.173 504.633 311.678 504.937 311.678 505.247V506.184L311.568 506.232C311.06 506.456 310.39 507.001 310.117 507.67C309.814 508.422 309.939 509.296 310.469 510.13C310.845 510.724 311.587 511.079 312.454 511.079Z" fill="#29D1DC"/>
<defs>
<filter id="filter0_d" x="0.289062" y="322.688" width="194.796" height="137.825" filterUnits="userSpaceOnUse" color-interpolation-filters="sRGB">
<feFlood flood-opacity="0" result="BackgroundImageFix"/>
<feColorMatrix in="SourceAlpha" type="matrix" values="0 0 0 0 0 0 0 0 0 0 0 0 0 0 0 0 0 0 127 0"/>
<feOffset dy="6"/>
<feGaussianBlur stdDeviation="15"/>
<feColorMatrix type="matrix" values="0 0 0 0 0.160784 0 0 0 0 0.819608 0 0 0 0 0.862745 0 0 0 0.25 0"/>
<feBlend mode="normal" in2="BackgroundImageFix" result="effect1_dropShadow"/>
<feBlend mode="normal" in="SourceGraphic" in2="effect1_dropShadow" result="shape"/>
</filter>
<linearGradient id="paint0_linear" x1="74.6935" y1="0.670577" x2="31.3329" y2="93.0872" gradientUnits="userSpaceOnUse">
<stop stop-color="#14BFCA"/>
<stop offset="1" stop-color="#27C7D1"/>
</linearGradient>
<linearGradient id="paint1_linear" x1="68.6801" y1="-3.41023" x2="25.7814" y2="89.4157" gradientUnits="userSpaceOnUse">
<stop stop-color="#4CE1EB"/>
<stop offset="1" stop-color="#29D1DC"/>
</linearGradient>
</defs>
</svg>
