<svg viewBox="0 0 120 56" fill="none" xmlns="http://www.w3.org/2000/svg">
<path d="M63.0207 32.3789C63.0207 30.0149 61.8554 28.3968 59.5247 27.5244C59.0555 27.4415 58.6027 27.3535 58.1662 27.2605C57.7298 27.1675 57.2772 27.0711 56.8086 26.9712C56.3383 26.8708 55.877 26.7744 55.4247 26.6819C54.9724 26.5895 54.5191 26.493 54.0647 26.3926C52.4051 26.0228 51.5752 25.3018 51.5752 24.2297C51.5752 23.49 51.9776 22.903 52.7823 22.4687C53.522 22.0988 54.3772 21.9139 55.3479 21.9139C56.3713 21.9139 57.235 22.1067 57.9388 22.4924C58.7435 22.9283 59.1458 23.7164 59.1458 24.8567H62.5666C62.5666 22.6095 61.7534 20.9496 60.127 19.877C58.7353 18.938 57.1422 18.4683 55.3479 18.4678C53.5699 18.4678 51.9847 18.9375 50.5925 19.877C48.9487 20.967 48.127 22.4174 48.1276 24.2281C48.1276 26.6434 49.2594 28.2782 51.5229 29.1325C51.9752 29.2335 52.4447 29.3426 52.9313 29.4599C53.418 29.5772 53.8959 29.6778 54.3651 29.7618L54.3405 29.7365C54.8097 29.8374 55.2749 29.9381 55.7362 30.0385C56.1975 30.1388 56.6543 30.231 57.1066 30.3151V30.2889C58.7503 30.6751 59.5722 31.371 59.5722 32.3765C59.5722 33.1982 59.1194 33.8187 58.2138 34.2383C57.4592 34.5902 56.5034 34.7661 55.3463 34.7661C54.2224 34.7661 53.2666 34.5812 52.4788 34.2113L52.5041 34.2367C51.5816 33.8008 51.1203 32.9791 51.1203 31.7718H47.7012C47.7012 34.0856 48.5899 35.779 50.3674 36.8521C51.7755 37.7414 53.4357 38.1858 55.3479 38.1852C57.2431 38.1852 58.9115 37.7493 60.3529 36.8775C62.1314 35.7563 63.0207 34.2568 63.0207 32.3789Z" fill="#08A0AB"/>
<path d="M119.955 46.8543V45.8486H117.001V44.6027H119.31V43.6048H117.001V42.3589H119.955V41.3619H116.004V46.8543H119.955ZM115.121 45.5862V43.6048H112.511V44.6019H114.124V45.3199C113.874 45.6109 113.541 45.8185 113.169 45.9151C112.798 46.0117 112.406 45.9926 112.046 45.8604C111.686 45.7281 111.375 45.4891 111.155 45.1753C110.934 44.8614 110.815 44.4877 110.812 44.1041C110.81 43.8579 110.857 43.6138 110.953 43.3868C111.048 43.1599 111.189 42.9549 111.367 42.7845C111.645 42.4982 112.01 42.3119 112.405 42.2546C112.8 42.1972 113.203 42.2721 113.551 42.4675C113.842 42.6279 114.095 42.8493 114.292 43.1166L115.113 42.5444C114.822 42.1435 114.445 41.8129 114.009 41.5766C113.624 41.3745 113.198 41.2627 112.763 41.2498C112.328 41.2369 111.896 41.3231 111.499 41.502C111.103 41.6809 110.752 41.9478 110.474 42.2823C110.196 42.6169 109.998 43.0104 109.894 43.433C109.791 43.8556 109.785 44.2962 109.877 44.7214C109.969 45.1466 110.157 45.5453 110.426 45.8872C110.695 46.229 111.039 46.5051 111.43 46.6945C111.822 46.8839 112.252 46.9817 112.687 46.9804C112.924 46.9806 113.16 46.9511 113.39 46.8924C114.086 46.7143 114.69 46.2826 115.083 45.6821L115.121 45.5862ZM108.094 44.1041C108.092 44.566 107.908 45.0084 107.581 45.335C107.254 45.6616 106.812 45.8459 106.35 45.8478H105.24V42.3605H106.35C106.812 42.3628 107.254 42.5472 107.581 42.8737C107.907 43.2002 108.091 43.6424 108.094 44.1041ZM109.091 44.1041C109.088 43.3779 108.798 42.6822 108.285 42.1686C107.771 41.6549 107.076 41.365 106.349 41.3619H104.245V46.8543H106.349C107.077 46.8516 107.774 46.5609 108.287 46.0459C108.801 45.5308 109.09 44.8332 109.091 44.1057V44.1041ZM103.3 46.8543V45.8486H100.345V44.6027H102.654V43.6048H100.345V42.3589H103.3V41.3619H99.3478V46.8543H103.3ZM95.2058 46.8543V41.3619H94.2016V43.6048H91.7383V41.3619H90.7413V46.8543H91.7383V44.6027H94.2016V46.8543H95.2058ZM90.047 42.3589V41.3619H85.7117V42.3589H87.3761V46.8543H88.3826V42.3605L90.047 42.3589ZM85.015 46.8543V41.3619H84.018V46.8543H85.015ZM83.4465 41.3634H82.4059L81.4009 44.8507L80.3967 41.3634H79.4654L78.4541 44.8507L77.4571 41.3634H76.4149L77.9841 46.8543H78.9225L79.9339 43.3575L80.9325 46.8543H81.8709L83.4465 41.3634ZM72.6549 46.8543V45.8486H69.701V44.6027H72.0098V43.6048H69.701V42.3589H72.6549V41.3619H68.704V46.8543H72.6549ZM66.8193 44.1041C66.8224 44.3336 66.7786 44.5612 66.6904 44.7731C66.6022 44.9849 66.4715 45.1764 66.3065 45.3358C66.1464 45.5 65.9548 45.6301 65.7431 45.7182C65.5314 45.8064 65.3041 45.8507 65.0748 45.8486H63.9716V42.3613H65.0812C65.3105 42.3591 65.5379 42.4035 65.7496 42.4918C65.9613 42.5801 66.1529 42.7104 66.3128 42.8749C66.4766 43.0344 66.606 43.2257 66.6931 43.4371C66.7802 43.6485 66.8231 43.8755 66.8193 44.1041ZM67.8163 44.1041C67.8134 43.3779 67.5236 42.6822 67.0102 42.1686C66.4967 41.6549 65.8011 41.365 65.0748 41.3619H62.9705V46.8543H65.0748C65.8023 46.8516 66.4991 46.5609 67.0128 46.0459C67.5266 45.5308 67.8155 44.8332 67.8163 44.1057V44.1041ZM59.9429 43.0041L60.5588 44.6978H59.3271L59.9429 43.0041ZM62.4134 46.8543L60.4121 41.3619H59.4809L57.4796 46.8543H58.5425L58.9681 45.6964H60.9178L61.3505 46.8543H62.4134ZM55.8961 42.9834C55.8974 43.0721 55.8763 43.1596 55.8347 43.2379C55.7931 43.3162 55.7325 43.3827 55.6583 43.4313C55.5022 43.5485 55.3115 43.6105 55.1162 43.6072H53.7554V42.3589H55.1194C55.3146 42.3557 55.5054 42.4176 55.6615 42.5349C55.735 42.5837 55.795 42.6502 55.836 42.7283C55.877 42.8065 55.8977 42.8937 55.8961 42.9819V42.9834ZM57.5605 46.8543L56.2131 44.7802H56.2203L56.0808 44.586C56.0398 44.5285 55.9959 44.4732 55.9492 44.4204C56.1697 44.3139 56.3667 44.1643 56.5286 43.9805C56.6621 43.8267 56.7634 43.6477 56.8266 43.454C56.8898 43.2604 56.9135 43.056 56.8964 42.8531C56.8792 42.6501 56.8216 42.4526 56.7268 42.2723C56.6321 42.092 56.5021 41.9326 56.3447 41.8033C56.0042 41.5122 55.5689 41.3558 55.121 41.3634H52.7583V46.8543H53.7554V44.6027H54.349C54.7257 44.6027 54.9923 44.7247 55.1487 44.9688L56.3724 46.8543H57.5605ZM52.0617 42.3605V41.3619H47.7295V42.3589H49.3939V46.8543H50.3989V42.3605H52.0617Z" fill="white"/>
<path d="M120 37.7998L113.348 28.3477L111.231 25.3486L106.691 18.9209H102.456L109.085 28.3477L102.456 37.7998H106.691L111.227 31.3721L115.739 37.7998H120Z" fill="white"/>
<path d="M97.8451 28.3479C97.8451 30.1296 97.2151 31.6418 95.9549 32.8846C94.6783 34.1622 93.1661 34.8007 91.4182 34.8002C89.654 34.8002 88.1418 34.1616 86.8816 32.8846C85.605 31.6244 84.9665 30.1122 84.9659 28.3479C84.9659 26.6006 85.6045 25.0883 86.8816 23.8113C88.1254 22.5511 89.6376 21.921 91.4182 21.921C93.1825 21.921 94.6947 22.5511 95.9549 23.8113C97.2151 25.0714 97.8451 26.5837 97.8451 28.3479ZM101.298 28.3479C101.298 25.6262 100.332 23.299 98.3999 21.3662C96.4677 19.4334 94.1404 18.4672 91.4182 18.4678C88.7135 18.4678 86.3778 19.4339 84.4111 21.3662C82.4952 23.2821 81.5376 25.6093 81.5381 28.3479C81.5386 31.0865 82.4963 33.4137 84.4111 35.3296C86.3434 37.2619 88.6791 38.228 91.4182 38.228C94.1573 38.228 96.4846 37.2619 98.3999 35.3296C100.332 33.3963 101.3 31.0691 101.302 28.3479H101.298Z" fill="white"/>
<path d="M79.5952 22.3492V18.9214H66.0098V37.7995H69.4376V30.0617H77.3776V26.6339H69.4376V22.3492H79.5952Z" fill="white"/>
<path fill-rule="evenodd" clip-rule="evenodd" d="M115.754 18.9243L114.616 20.5419V26.5655L119.987 18.9291H115.757" fill="white"/>
<path fill-rule="evenodd" clip-rule="evenodd" d="M31.4031 9.30184C30.8562 9.27172 30.4005 9.46035 30.3863 9.72665C30.372 9.99295 30.8031 10.2307 31.35 10.2608C31.8969 10.291 32.3526 10.1023 32.3669 9.83602C32.3811 9.56972 31.95 9.33275 31.4031 9.30184ZM38.0551 13.5349C36.9939 14.4979 34.5591 15.4276 32.0617 15.7367C38.5751 16.45 41.1763 14.2831 41.4029 12.95C41.5408 12.1297 40.9464 12.0259 40.2933 12.0203C39.7053 12.0148 38.9412 12.0782 38.2271 12.0203C34.5536 11.7176 33.444 6.98833 28.5158 6.35428C28.5686 3.91318 28.1008 2.02132 27.1122 0.678711C25.4404 4.35675 23.0516 7.82925 19.9458 11.0962C13.5561 18.7381 12.2412 27.4825 16.3039 35.9511C16.3594 27.4706 18.5453 15.4284 28.7734 14.0992C31.5165 13.7434 34.3578 14.188 38.0551 13.5349Z" fill="#08A0AB"/>
<path fill-rule="evenodd" clip-rule="evenodd" d="M20.471 37.8911C20.6723 37.9968 20.8742 38.1041 21.0765 38.2129L22.4778 33.3339L22.607 38.8169L22.6141 39.1077C23.0268 39.3624 23.4394 39.6287 23.8521 39.9066L26.3883 41.7517C26.6427 41.9467 26.9106 42.148 27.1912 42.3398L27.9108 39.8329L29.4254 34.5608L29.5546 40.0445L29.6434 43.7751C31.1944 44.4885 32.8755 44.8729 34.4408 44.3973C38.0866 43.2877 39.8493 37.9514 40.6442 34.6939L40.7504 34.2762C36.2867 29.803 25.7749 22.6017 30.2774 16.5029C16.3148 20.8494 20.4496 37.1699 20.471 37.8911Z" fill="#08A0AB"/>
<path fill-rule="evenodd" clip-rule="evenodd" d="M21.4111 39.8938C21.6356 40.0349 21.8602 40.1805 22.0847 40.3305C24.5306 41.9648 26.1879 43.6894 28.9872 44.9274C35.4165 47.7733 39.7822 44.4791 42.0844 35.0449C43.7614 47.0341 35.6559 57.6576 23.9861 55.7642C19.6317 55.0572 16.1397 52.5876 12.5391 49.8738C14.7733 48.4203 17.151 46.8787 19.3345 45.4735C19.3345 45.4735 17.2873 44.8062 14.8724 43.8495C14.8724 43.8495 17.9848 42.1059 21.4111 39.8938Z" fill="#08A0AB"/>
<path fill-rule="evenodd" clip-rule="evenodd" d="M0 42.3721C6.0885 36.3063 12.6945 35.1703 19.8181 38.9641C18.2378 39.9072 15.2212 41.6818 11.0745 44.0056C11.0745 44.0056 12.9244 44.5944 15.5605 45.6573L11.0682 48.7578C7.80203 46.2985 4.34406 43.8043 0 42.3721Z" fill="white"/>
<path fill-rule="evenodd" clip-rule="evenodd" d="M32.0922 15.7404H32.0605H32.0922ZM20.4693 37.8926C19.1408 37.1231 17.7465 36.4735 16.3027 35.9516C16.3582 27.4711 18.5433 15.4289 28.7722 14.0998L28.9006 14.0839L29.0298 14.0688L29.159 14.0546L29.2881 14.0419L29.4173 14.03L29.5473 14.0189L29.6765 14.0094L29.8073 13.9999L29.9373 13.992L30.068 13.984L30.1988 13.9777L30.3304 13.9714L30.4619 13.9658L30.5943 13.9611L30.7267 13.9571L30.8598 13.9531H30.993H31.1269H31.2608H31.3956H31.5311H31.6666H31.803H31.9393H32.0772H32.7723H32.9133H33.0552H33.1979H33.3405H33.4848H33.629H33.7749H33.9207L34.0681 13.9492H34.2155L34.3645 13.9444L34.5143 13.9389L34.6641 13.9325L34.8155 13.9262L34.9677 13.9183L35.1206 13.9103L35.2792 13.9008L35.4337 13.8913L35.5922 13.8802L35.7507 13.8683L35.9092 13.8556L36.0678 13.8414L36.2263 13.8263L36.3848 13.8105L36.5433 13.793L36.7066 13.774L36.8714 13.755L37.0363 13.7336L37.2027 13.7114L37.3707 13.6876L37.5396 13.6623L37.71 13.6353L37.8812 13.6068L38.0531 13.5767C36.9911 14.5396 34.5563 15.4701 32.059 15.7792C31.3211 15.8585 30.7219 16.1026 30.2733 16.5456C29.1879 16.8788 28.1397 17.3226 27.145 17.87C26.9818 17.954 26.828 18.042 26.683 18.1339L26.6124 18.1799C17.8665 23.5281 19.9921 35.1876 20.4059 37.5383C20.428 37.6287 20.4479 37.761 20.4693 37.8926Z" fill="white"/>
</svg>
