<svg width="86" height="86" viewBox="0 0 86 86" fill="none" xmlns="http://www.w3.org/2000/svg">
<path fill-rule="evenodd" clip-rule="evenodd" d="M64.3194 68H75.3486C79.0328 68 82.0879 65.0092 81.9981 61.2934V15.7066C81.9981 11.9908 79.0328 9 75.3486 9H10.6514C6.96722 9 3.91208 11.9908 4.00193 15.7066V61.2934C4.00193 65.0092 6.96722 68 10.6514 68H21.6339C21.603 68.0544 21.5769 68.1126 21.5564 68.1741L17.9668 77.3372C17.7778 77.6206 17.8723 77.9985 18.0612 78.2819C18.2501 78.5653 18.5335 78.7542 18.9114 78.7542H67.0887C67.3721 78.7542 67.75 78.5653 67.9389 78.2819C68.1279 77.9985 68.1279 77.6206 68.0334 77.3372L64.4437 68.1741C64.4069 68.1126 64.3652 68.0544 64.3194 68ZM62.6102 68H23.4838C23.6741 68.2885 23.7151 68.6744 23.5402 69.0243L20.5173 76.7704H65.4828L62.4599 69.0243C62.3376 68.6572 62.4133 68.2901 62.6102 68ZM5.97879 15.7972C5.97879 13.169 8.04551 11.0845 10.6514 11.0845V10.9939H75.3486C77.9545 10.9939 80.0212 13.0783 80.0212 15.7066V61.384C80.0212 64.0123 77.9545 66.0968 75.3486 66.0968H10.6514C8.04551 66.0968 5.97879 64.0123 5.97879 61.384V15.7972ZM53.9177 52.1752C53.4064 52.1752 52.9802 51.7491 52.9802 51.2377V46.2092L48.7188 42.5444C48.2927 42.2035 48.2927 41.6069 48.6336 41.1808C48.9745 40.7547 49.5711 40.7547 49.9972 41.0956L54.5996 45.1013C54.77 45.2717 54.9405 45.5274 54.9405 45.8683V51.4082C54.9405 51.7491 54.4291 52.1752 53.9177 52.1752ZM31.3324 51.2399C31.3324 51.7512 31.7585 52.1774 32.2699 52.1774C32.7813 52.1774 33.2074 51.7512 33.2074 51.3251V46.2114L37.554 42.3762C37.9802 42.0352 37.9802 41.4387 37.6393 41.0125C37.2983 40.5864 36.7017 40.5864 36.2756 40.9273L31.6733 45.0182C31.4176 45.1887 31.3324 45.4444 31.3324 45.7001V51.2399ZM43.1784 42.5457C39.0874 42.5457 35.8487 38.7104 35.8487 33.9376C35.8487 29.1649 39.1726 25.3296 43.1784 25.3296C47.2693 25.3296 50.508 29.1649 50.508 33.9376C50.508 38.7104 47.1841 42.5457 43.1784 42.5457ZM43.1784 27.2046C40.1954 27.2046 37.7238 30.1876 37.7238 33.8524C37.7238 37.5172 40.1954 40.5002 43.1784 40.5002C46.1613 40.5002 48.6329 37.5172 48.6329 33.8524C48.6329 30.2728 46.1613 27.2046 43.1784 27.2046ZM22.2983 38.7956C22.2983 50.2162 31.5882 59.5913 43.094 59.5913C54.5998 59.5913 63.8896 50.2162 63.8896 38.7956C63.8896 27.3751 54.5145 18 43.094 18C31.6734 18 22.2983 27.3751 22.2983 38.7956ZM24.1734 38.7956C24.1734 28.3978 32.6962 19.875 43.094 19.875C53.4918 19.875 62.0146 28.3126 62.0146 38.7956C62.0146 49.1935 53.4918 57.7163 43.094 57.7163C32.6962 57.7163 24.1734 49.1935 24.1734 38.7956Z" fill="#29D1DC"/>
</svg>
