<svg width="37" height="52" viewBox="0 0 37 52" fill="none" xmlns="http://www.w3.org/2000/svg">
<path d="M13.4609 51.6025C13.674 51.6901 13.9107 51.7015 14.1311 51.6348C14.3516 51.5681 14.5423 51.4273 14.6709 51.2363L36.2998 19.1318C36.4012 18.9814 36.4598 18.8062 36.4692 18.6251C36.4787 18.4439 36.4387 18.2636 36.3535 18.1035C36.2683 17.9433 36.1411 17.8093 35.9856 17.7159C35.8301 17.6225 35.6521 17.5732 35.4707 17.5732H21.9297L26.6309 1.27734C26.6738 1.1284 26.6816 0.971511 26.6535 0.819063C26.6254 0.666615 26.5623 0.522779 26.4691 0.398907C26.3759 0.275034 26.2552 0.174516 26.1165 0.105288C25.9778 0.0360594 25.8249 1.51413e-05 25.6699 0H9.11135C8.89626 0.000110713 8.68693 0.0695115 8.51438 0.197916C8.34183 0.326321 8.21523 0.506897 8.15335 0.712891L0.0419919 27.748C-0.00311442 27.8988 -0.0120315 28.0582 0.0159643 28.2131C0.04396 28.368 0.108079 28.5141 0.203121 28.6396C0.299303 28.7642 0.423106 28.8648 0.564777 28.9335C0.706449 29.0021 0.86212 29.0369 1.01953 29.0351L17.0215 28.7216L12.8594 50.4902C12.8163 50.7165 12.8527 50.9507 12.9623 51.1534C13.0719 51.356 13.248 51.5146 13.4609 51.6025ZM19.2178 27.8847C19.2454 27.7401 19.2407 27.5912 19.2041 27.4486C19.1674 27.306 19.0998 27.1733 19.006 27.0598C18.9121 26.9464 18.7944 26.8551 18.6612 26.7924C18.528 26.7297 18.3826 26.6972 18.2354 26.6972H18.2158L2.35254 27.0088L9.85547 1.99996H24.3408L19.6397 18.2958C19.5967 18.4448 19.589 18.6017 19.617 18.7541C19.6451 18.9066 19.7082 19.0504 19.8014 19.1743C19.8946 19.2981 20.0153 19.3987 20.154 19.4679C20.2927 19.5371 20.4456 19.5732 20.6006 19.5732H33.5908L15.7412 46.0683L19.2178 27.8847Z" fill="#08A0AB"/>
</svg>
